<svg width="16" height="16" viewBox="0 0 16 16" fill="none" xmlns="http://www.w3.org/2000/svg">
<path d="M7.58683 1.34595C7.09558 1.80369 6.70157 2.3557 6.42829 2.96903C6.15501 3.58236 6.00806 4.24444 5.99622 4.9158C5.98437 5.58715 6.10787 6.25401 6.35935 6.8766C6.61082 7.49919 6.98512 8.06474 7.45991 8.53954C7.9347 9.01433 8.50026 9.38863 9.12285 9.6401C9.74543 9.89157 10.4123 10.0151 11.0836 10.0032C11.755 9.99138 12.4171 9.84443 13.0304 9.57115C13.6437 9.29787 14.1957 8.90386 14.6535 8.41261C14.4415 11.9026 11.5442 14.6666 8.00083 14.6666C4.31816 14.6666 1.3335 11.6819 1.3335 7.99995C1.3335 4.45661 4.0975 1.55928 7.58683 1.34595Z" fill="#131740"/>
</svg>
