<svg width="33" height="32" viewBox="0 0 33 32" fill="none" xmlns="http://www.w3.org/2000/svg">
<path d="M7.20107 19.9464L5.72732 23.3964C5.69293 23.4775 5.63592 23.547 5.5631 23.5965C5.49028 23.6461 5.40474 23.6736 5.3167 23.6758L1.6092 24.0089L4.43545 26.4764C4.5667 26.5914 4.6167 26.7652 4.58045 26.9246L3.74545 30.5821L6.96482 28.6571C7.11482 28.5671 7.29607 28.5733 7.43607 28.6571L10.6567 30.5821L10.2898 28.9783C10.5948 29.0127 10.9092 28.9902 11.2148 28.9064L11.6323 30.7383C11.6442 30.8177 11.6442 30.8996 11.6311 30.9814C11.6151 31.0801 11.5807 31.1748 11.5298 31.2608C11.423 31.4393 11.2497 31.5681 11.0479 31.6189C10.8548 31.6677 10.6417 31.6421 10.4548 31.5308L7.20045 29.5852L3.9742 31.5152C3.9042 31.5608 3.82545 31.5958 3.74107 31.6171L3.68232 31.6314C3.59232 31.6477 3.49545 31.6477 3.39795 31.6289L3.3667 31.6233C3.15795 31.5746 2.98732 31.4458 2.88045 31.2758C2.77238 31.104 2.73498 30.8971 2.77607 30.6983L3.6242 26.9864L0.769196 24.4933C0.694196 24.4277 0.630446 24.3464 0.585446 24.2571C0.543405 24.175 0.516115 24.0861 0.504821 23.9946L0.501696 23.9539C0.487946 23.7471 0.558571 23.5508 0.685446 23.3996C0.811071 23.2496 0.991696 23.1464 1.19795 23.1233L4.98982 22.7852L6.47607 19.3033C6.51553 19.2094 6.57284 19.1241 6.64482 19.0521C6.70357 18.9921 6.77357 18.9414 6.8517 18.9021C6.87982 18.8871 6.90857 18.8746 6.9392 18.8652C7.1242 18.7989 7.3217 18.8083 7.49295 18.8771C7.66482 18.9464 7.81295 19.0764 7.9017 19.2527L9.07795 22.0033L8.73607 23.4989C8.71107 23.4677 8.69107 23.4333 8.67545 23.3964L7.20107 19.9464ZM3.05857 9.8427C2.70232 9.6927 2.53482 9.28269 2.68482 8.92645C2.83482 8.5702 3.24545 8.4027 3.6017 8.5527L6.52232 9.7902C6.87857 9.9402 7.04607 10.3508 6.89607 10.7064C6.74607 11.0627 6.33545 11.2302 5.9792 11.0802L3.05857 9.8427ZM6.02857 5.2902C5.75607 5.01582 5.75732 4.57207 6.0317 4.29957C6.30607 4.02707 6.74982 4.02832 7.02232 4.3027L9.25357 6.5577C9.52607 6.83207 9.52482 7.27582 9.25045 7.54832C8.97607 7.82082 8.53232 7.81957 8.25982 7.5452L6.02857 5.2902ZM10.5067 2.20645C10.3598 1.84895 10.5304 1.43957 10.8879 1.2927C11.2461 1.14582 11.6548 1.31645 11.8023 1.67395L13.0086 4.60832C13.1554 4.96582 12.9842 5.3752 12.6267 5.52207C12.2692 5.66895 11.8598 5.49832 11.7129 5.14082L10.5067 2.20645ZM29.3979 8.5527C29.7542 8.4027 30.1648 8.5702 30.3148 8.92645C30.4648 9.28269 30.2973 9.6927 29.9411 9.8427L27.0204 11.0802C26.6642 11.2302 26.2536 11.0627 26.1036 10.7064C25.9536 10.3508 26.1211 9.9402 26.4773 9.7902L29.3979 8.5527ZM25.9773 4.3027C26.2498 4.02832 26.6936 4.02707 26.9679 4.29957C27.2423 4.57207 27.2436 5.01582 26.9711 5.2902L24.7398 7.5452C24.4673 7.81957 24.0236 7.82082 23.7492 7.54832C23.4748 7.27582 23.4736 6.83207 23.7461 6.5577L25.9773 4.3027ZM21.1973 1.67395C21.3448 1.31645 21.7536 1.14582 22.1117 1.2927C22.4692 1.43957 22.6398 1.84895 22.4929 2.20645L21.2867 5.14082C21.1398 5.49832 20.7304 5.66895 20.3729 5.52207C20.0154 5.3752 19.8442 4.96582 19.9911 4.60832L21.1973 1.67395ZM15.7754 1.05895C15.7754 0.671445 16.0898 0.356445 16.4779 0.356445C16.8654 0.356445 17.1804 0.671445 17.1804 1.05895V4.23145C17.1804 4.61895 16.8654 4.93395 16.4779 4.93395C16.0898 4.93395 15.7754 4.61895 15.7754 4.23145V1.05895ZM17.2929 8.83332L19.5404 14.0952L25.2629 14.6077C25.4936 14.6308 25.6936 14.7439 25.8323 14.9089L25.8554 14.9396C25.9786 15.1002 26.0461 15.3039 26.0304 15.5183L26.0279 15.5502C26.0167 15.6564 25.9854 15.7558 25.9398 15.8458L25.9267 15.8696C25.8854 15.9439 25.8329 16.0127 25.7723 16.0714L21.4186 19.8752L22.7011 25.4889C22.7467 25.7121 22.7004 25.9339 22.5867 26.1146C22.3329 26.5208 21.7911 26.6352 21.3942 26.3758L16.4998 23.4489L11.5648 26.3989C11.3728 26.5107 11.1447 26.543 10.9292 26.4889C10.4748 26.3746 10.2017 25.9196 10.3036 25.4683L11.5811 19.8752L7.25982 16.1014C7.17515 16.0274 7.1059 15.9374 7.05603 15.8366C7.00616 15.7358 6.97666 15.6262 6.9692 15.5139C6.95482 15.2977 7.02357 15.0733 7.1792 14.8958C7.25732 14.8071 7.3492 14.7377 7.44795 14.6896C7.54982 14.6396 7.66232 14.6108 7.77607 14.6046L13.4592 14.0952L15.7123 8.81894C15.8048 8.60207 15.9779 8.44145 16.1811 8.3602C16.6198 8.18332 17.1104 8.39707 17.2898 8.8252L17.2929 8.83332ZM26.5273 19.3127L28.0098 22.7852L31.8017 23.1233C32.0079 23.1464 32.1886 23.2502 32.3142 23.3996C32.4411 23.5508 32.5117 23.7471 32.4979 23.9539L32.4948 23.9946C32.4835 24.0861 32.4562 24.175 32.4142 24.2571C32.3692 24.3464 32.3061 24.4271 32.2304 24.4933L29.3754 26.9864L30.2236 30.6983C30.2661 30.9039 30.2236 31.1096 30.1192 31.2758C30.0129 31.4452 29.8417 31.5746 29.6329 31.6233L29.6017 31.6289C29.5042 31.6477 29.4079 31.6477 29.3173 31.6314L29.2586 31.6171C29.1742 31.5958 29.0954 31.5614 29.0254 31.5152L25.7986 29.5852L22.5448 31.5308C22.4566 31.5838 22.3588 31.6189 22.257 31.634C22.1553 31.6491 22.0515 31.644 21.9517 31.6189C21.7579 31.5702 21.5811 31.4464 21.4698 31.2608C21.4173 31.1727 21.3836 31.0777 21.3679 30.9827L21.3673 30.9777C21.3542 30.8996 21.3548 30.8189 21.3673 30.7396L21.7854 28.9046C21.8536 28.9233 21.9236 28.9389 21.9936 28.9514C22.2279 28.9939 22.4698 29.0039 22.7098 28.9771L22.3429 30.5821L25.5629 28.6571C25.7036 28.5733 25.8842 28.5671 26.0342 28.6571L29.2542 30.5821L28.4186 26.9246C28.3829 26.7652 28.4329 26.5914 28.5642 26.4764L31.3904 24.0089L27.6829 23.6758C27.5949 23.6736 27.5094 23.6461 27.4365 23.5965C27.3637 23.547 27.3067 23.4775 27.2723 23.3964L25.7986 19.9464L24.3254 23.3964C24.3092 23.4346 24.2873 23.4702 24.2617 23.5021L23.9204 22.0077L25.0979 19.2527C25.1867 19.0764 25.3348 18.9464 25.5067 18.8771C25.6786 18.8083 25.8761 18.7989 26.0611 18.8652C26.0917 18.8752 26.1211 18.8877 26.1486 18.9027C26.2273 18.9421 26.2961 18.9927 26.3548 19.0521C26.4273 19.1252 26.4848 19.2114 26.5236 19.3033L26.5273 19.3127Z" fill="black"/>
</svg>
