<svg width="33" height="32" viewBox="0 0 33 32" fill="none" xmlns="http://www.w3.org/2000/svg">
<path d="M13.7812 3.40493C13.7094 3.40703 13.6379 3.39555 13.5703 3.37108C11.6849 4.21483 10.1589 6.06899 9.74219 9.15493C9.71644 9.32114 9.62637 9.47056 9.4914 9.57093C9.35644 9.6713 9.18742 9.71457 9.02083 9.69139C8.93859 9.68327 8.85876 9.65892 8.78599 9.61975C8.71322 9.58058 8.64893 9.52737 8.59686 9.46319C8.54479 9.39901 8.50597 9.32513 8.48264 9.24585C8.4593 9.16656 8.45193 9.08344 8.46094 9.00128C8.94531 5.40493 10.7891 3.23045 13.0703 2.23045C14.2187 1.73481 15.4678 1.51711 16.7161 1.59504C17.9636 1.66609 19.182 1.99976 20.2917 2.5742C22.6354 3.78514 24.4062 6.04556 24.5339 9.05858C24.5318 9.22419 24.4662 9.3827 24.3507 9.50133C24.2351 9.61997 24.0783 9.68966 23.9128 9.69602C23.7473 9.70237 23.5857 9.64489 23.4614 9.53547C23.337 9.42604 23.2595 9.27303 23.2448 9.10806C23.138 6.58462 21.6406 4.68097 19.6797 3.66795L19.4193 3.54295C19.3447 3.5685 19.2663 3.58084 19.1875 3.57941C18.599 3.56379 18.4453 4.62108 18.4062 6.02212C18.388 6.65233 18.4062 7.35024 18.4062 8.06118C18.4062 8.62628 18.4271 9.20441 18.4271 9.58722C18.4167 9.75041 18.3445 9.9035 18.2253 10.0154C18.106 10.1273 17.9487 10.1895 17.7852 10.1895C17.6216 10.1895 17.4643 10.1273 17.345 10.0154C17.2258 9.9035 17.1536 9.75041 17.1432 9.58722C17.1432 8.96222 17.1432 8.51691 17.1276 8.07941C17.112 7.35285 17.099 6.64451 17.1146 5.99608C17.1484 4.72264 17.2995 3.65233 17.7656 2.99608C17.397 2.91437 17.0226 2.86126 16.6458 2.83722C16.1666 2.80974 15.6859 2.83068 15.2109 2.89972C15.6406 3.56379 15.7865 4.62628 15.8177 5.87629C15.8359 6.55076 15.8177 7.28774 15.8177 8.04295C15.8177 8.49347 15.8021 8.95181 15.8021 9.58722C15.8076 9.67287 15.7955 9.75873 15.7665 9.83952C15.7376 9.9203 15.6923 9.99428 15.6336 10.0569C15.5749 10.1195 15.504 10.1694 15.4253 10.2035C15.3465 10.2376 15.2616 10.2552 15.1758 10.2552C15.09 10.2552 15.005 10.2376 14.9263 10.2035C14.8475 10.1694 14.7766 10.1195 14.7179 10.0569C14.6592 9.99428 14.614 9.9203 14.585 9.83952C14.5561 9.75873 14.544 9.67287 14.5495 9.58722C14.5495 9.18878 14.5495 8.60285 14.5729 8.02472C14.5729 7.28514 14.599 6.56118 14.5729 5.90754C14.5391 4.46222 14.3828 3.39191 13.7917 3.40754L13.7812 3.40493ZM23.9714 11.8086C24.0208 11.9284 24.0677 12.0508 24.112 12.1732C24.1823 12.3581 24.2448 12.5482 24.2995 12.7409V12.7617C24.3672 13.1263 24.4115 13.3138 24.4401 13.4284C24.4586 13.4967 24.4716 13.5663 24.4792 13.6367C24.4853 13.7234 24.4853 13.8104 24.4792 13.8971C24.4792 14.0221 24.4792 14.2174 24.4792 14.543V14.5612C24.4614 14.7935 24.4265 15.0241 24.375 15.2513C24.3199 15.4985 24.2521 15.7428 24.1719 15.9831C24.0372 16.3868 23.8317 16.7633 23.5651 17.095C23.3934 17.3147 23.1605 17.4787 22.8958 17.5664L22.849 17.7331L22.7708 18.043C22.3817 19.5377 21.5503 20.8802 20.3854 21.8945C19.3138 22.8173 17.9372 23.3083 16.5234 23.2721C15.0898 23.2613 13.7092 22.728 12.6406 21.7721C11.4922 20.7617 10.6615 19.3164 10.151 17.6914V17.668C10.1328 17.6028 10.1068 17.5247 10.0807 17.4466V17.4075C9.86239 17.3619 9.66068 17.2574 9.4974 17.1055C9.25344 16.8756 9.05779 16.5994 8.92188 16.293C8.80657 16.0408 8.71249 15.7795 8.64062 15.5117C8.56714 15.2403 8.51575 14.9633 8.48698 14.6836C8.45246 14.1903 8.50536 13.6949 8.64323 13.22C8.74995 12.8042 8.88481 12.3962 9.04688 11.9987C8.94271 11.9414 8.84115 11.8815 8.74479 11.8216C8.14455 11.4743 7.65581 10.963 7.33594 10.3476L8.51042 9.82681C8.7284 10.2256 9.05418 10.555 9.45052 10.7773C10.8854 11.6732 13.4115 12.1055 16.0208 12.1133C18.6302 12.1211 21.3281 11.694 23.0521 10.8789C23.7318 10.556 24.2396 10.1836 24.5 9.76691L25.6094 10.4023C25.1964 11.0055 24.6337 11.491 23.9766 11.8112L23.9714 11.8086ZM10.3437 12.5482C10.1228 12.8048 9.95939 13.1058 9.86458 13.431C9.72736 13.7818 9.65927 14.1559 9.66406 14.5325C9.69154 14.7653 9.73504 14.9959 9.79427 15.2226C9.8485 15.4274 9.92083 15.627 10.0104 15.819V15.8372C10.091 16.0185 10.2039 16.1835 10.3437 16.3242C10.3652 16.3489 10.3915 16.3688 10.4211 16.3828C10.4507 16.3967 10.4829 16.4042 10.5156 16.4049C10.5746 16.3865 10.6367 16.3804 10.6981 16.3872C10.7595 16.3939 10.8188 16.4132 10.8724 16.444C10.9743 16.5023 11.0527 16.5944 11.0938 16.7044C11.1484 16.8711 11.1849 16.9883 11.2188 17.095C11.2526 17.2018 11.2708 17.2643 11.2943 17.3555C11.7194 18.8246 12.6395 20.1016 13.8984 20.97C14.7069 21.5102 15.6529 21.8084 16.625 21.8294C17.5767 21.8417 18.5093 21.5618 19.2969 21.0273C20.2891 20.3581 21.1198 19.2643 21.5833 17.7252C21.6302 17.5377 21.6823 17.3555 21.7422 17.1549L21.8021 16.9388C21.8365 16.8384 21.9 16.7505 21.9844 16.6862H22C22.0472 16.653 22.1005 16.6297 22.1569 16.6177C22.2133 16.6056 22.2715 16.605 22.3281 16.6159C22.3932 16.6159 22.4792 16.5586 22.5729 16.444C22.758 16.1973 22.9014 15.922 22.9974 15.6289C23.0672 15.4284 23.1255 15.2241 23.1719 15.0169C23.2155 14.8336 23.246 14.6473 23.263 14.4596C23.2837 14.1518 23.2235 13.8438 23.0885 13.5664C23.0268 13.4148 22.9729 13.26 22.9271 13.1028C22.8906 12.9909 22.8542 12.8867 22.8177 12.793C22.7812 12.6992 22.7396 12.5872 22.6979 12.4909C22.6856 12.4584 22.6794 12.424 22.6797 12.3893C19.3594 13.5534 13.849 13.7669 10.3385 12.5716L10.3437 12.5482ZM32.5 30.418C32.138 25.6992 33.0625 26.8476 29.1146 25.3659C27.1432 24.6263 24.6224 23.6888 22.8099 22.5612L19.4245 30.418H32.5ZM0.5 30.418C0.861979 25.6992 -0.0624999 26.8424 3.88542 25.3659C5.85677 24.6263 8.3776 23.6888 10.1901 22.5612L13.5755 30.418H0.5ZM17.4479 26.6836H17.9193C18.1265 26.6836 18.3252 26.6013 18.4717 26.4548C18.6182 26.3082 18.7005 26.1095 18.7005 25.9023V24.6471C18.7005 24.4399 18.6182 24.2412 18.4717 24.0947C18.3252 23.9482 18.1265 23.8659 17.9193 23.8659H15.112C14.9048 23.8659 14.7061 23.9482 14.5596 24.0947C14.413 24.2412 14.3307 24.4399 14.3307 24.6471V25.9075C14.3307 26.1147 14.413 26.3134 14.5596 26.46C14.7061 26.6065 14.9048 26.6888 15.112 26.6888H15.5885L14.6745 30.4232H18.3333L17.4479 26.6888V26.6836Z" fill="black"/>
</svg>
