<svg width="21" height="21" viewBox="0 0 21 21" fill="none" xmlns="http://www.w3.org/2000/svg">
<path d="M10.4998 19.0633C5.89734 19.0633 2.1665 15.3324 2.1665 10.7299C2.1665 6.12744 5.89734 2.39661 10.4998 2.39661C15.1023 2.39661 18.8332 6.12744 18.8332 10.7299C18.8332 15.3324 15.1023 19.0633 10.4998 19.0633ZM10.4998 17.3966C12.2679 17.3966 13.9636 16.6942 15.2139 15.444C16.4641 14.1937 17.1665 12.498 17.1665 10.7299C17.1665 8.96183 16.4641 7.26614 15.2139 6.01589C13.9636 4.76565 12.2679 4.06327 10.4998 4.06327C8.73173 4.06327 7.03603 4.76565 5.78579 6.01589C4.53555 7.26614 3.83317 8.96183 3.83317 10.7299C3.83317 12.498 4.53555 14.1937 5.78579 15.444C7.03603 16.6942 8.73173 17.3966 10.4998 17.3966ZM9.669 14.0633L6.13317 10.5274L7.3115 9.34911L9.669 11.7066L14.3823 6.99244L15.5615 8.17077L9.669 14.0633Z" fill="#FF8000"/>
</svg>
