<svg width="21" height="21" viewBox="0 0 21 21" fill="none" xmlns="http://www.w3.org/2000/svg">
<path d="M10.4998 18.9234C5.89734 18.9234 2.1665 15.1926 2.1665 10.5901C2.1665 5.98761 5.89734 2.25677 10.4998 2.25677C15.1023 2.25677 18.8332 5.98761 18.8332 10.5901C18.8332 15.1926 15.1023 18.9234 10.4998 18.9234ZM10.4998 17.2568C12.2679 17.2568 13.9636 16.5544 15.2139 15.3042C16.4641 14.0539 17.1665 12.3582 17.1665 10.5901C17.1665 8.822 16.4641 7.12631 15.2139 5.87606C13.9636 4.62582 12.2679 3.92344 10.4998 3.92344C8.73173 3.92344 7.03603 4.62582 5.78579 5.87606C4.53555 7.12631 3.83317 8.822 3.83317 10.5901C3.83317 12.3582 4.53555 14.0539 5.78579 15.3042C7.03603 16.5544 8.73173 17.2568 10.4998 17.2568ZM9.669 13.9234L6.13317 10.3876L7.3115 9.20928L9.669 11.5668L14.3823 6.85261L15.5615 8.03094L9.669 13.9234Z" fill="#FF8000"/>
</svg>
