<svg width="20" height="21" viewBox="0 0 20 21" fill="none" xmlns="http://www.w3.org/2000/svg">
<path d="M9.99984 18.6983C5.39734 18.6983 1.6665 14.9674 1.6665 10.3649C1.6665 5.76245 5.39734 2.03162 9.99984 2.03162C14.6023 2.03162 18.3332 5.76245 18.3332 10.3649C18.3332 14.9674 14.6023 18.6983 9.99984 18.6983ZM9.99984 17.0316C11.7679 17.0316 13.4636 16.3292 14.7139 15.079C15.9641 13.8288 16.6665 12.1331 16.6665 10.3649C16.6665 8.59684 15.9641 6.90115 14.7139 5.6509C13.4636 4.40066 11.7679 3.69828 9.99984 3.69828C8.23173 3.69828 6.53603 4.40066 5.28579 5.6509C4.03555 6.90115 3.33317 8.59684 3.33317 10.3649C3.33317 12.1331 4.03555 13.8288 5.28579 15.079C6.53603 16.3292 8.23173 17.0316 9.99984 17.0316ZM9.169 13.6983L5.63317 10.1624L6.8115 8.98412L9.169 11.3416L13.8823 6.62745L15.0615 7.80578L9.169 13.6983Z" fill="#FF8000"/>
</svg>
