<svg width="32" height="32" viewBox="0 0 32 32" fill="none" xmlns="http://www.w3.org/2000/svg">
<path fill-rule="evenodd" clip-rule="evenodd" d="M5.96881 1.29059e-06C6.48913 1.54562e-06 6.99776 0.154327 7.43035 0.443453C7.86294 0.732579 8.20006 1.14352 8.39905 1.62427C8.59805 2.10503 8.64999 2.63401 8.54829 3.1443C8.44659 3.65458 8.19583 4.12323 7.82773 4.49097C7.45962 4.85871 6.99072 5.109 6.48034 5.2102C5.96996 5.31139 5.44103 5.25893 4.96047 5.05946C4.47991 4.85998 4.0693 4.52246 3.78061 4.08958C3.49191 3.6567 3.33809 3.14792 3.3386 2.62761C3.3386 2.28232 3.40665 1.94043 3.53887 1.62146C3.67108 1.3025 3.86486 1.01272 4.10913 0.768687C4.3534 0.524658 4.64337 0.331164 4.96247 0.199268C5.28157 0.0673716 5.62353 -0.000340911 5.96881 1.29059e-06ZM25.836 22.4401C26.2878 22.4396 26.7296 22.5731 27.1055 22.8237C27.4815 23.0744 27.7746 23.4309 27.9479 23.8482C28.1211 24.2654 28.1667 24.7247 28.0789 25.1679C27.9911 25.6111 27.7738 26.0183 27.4545 26.338C27.1352 26.6576 26.7282 26.8754 26.2851 26.9637C25.842 27.0521 25.3827 27.007 24.9652 26.8342C24.5477 26.6614 24.1909 26.3687 23.9398 25.9931C23.6888 25.6174 23.5547 25.1758 23.5547 24.724C23.5547 24.1187 23.795 23.5382 24.2228 23.1099C24.6505 22.6817 25.2307 22.4408 25.836 22.4401ZM7.67714 22.4401C8.12896 22.4396 8.57077 22.5731 8.94669 22.8237C9.32261 23.0744 9.61575 23.4309 9.78901 23.8482C9.96226 24.2654 10.0079 24.7247 9.92004 25.1679C9.83221 25.6111 9.6149 26.0183 9.2956 26.338C8.9763 26.6576 8.56936 26.8754 8.12627 26.9637C7.68317 27.0521 7.22383 27.007 6.80636 26.8342C6.38889 26.6614 6.03204 26.3687 5.78097 25.9931C5.52991 25.6174 5.39589 25.1758 5.39589 24.724C5.39589 24.1187 5.63616 23.5382 6.0639 23.1099C6.49164 22.6817 7.07188 22.4408 7.67714 22.4401ZM6.24225 27.3438C5.71376 27.4003 5.21103 27.6012 4.78912 27.9245C4.25081 28.368 3.81916 28.927 3.5261 29.5599C3.20458 30.2411 3.02727 30.9814 3.00527 31.7344L2.96621 31.9948H4.92454L4.95579 31.6484C4.9625 31.3014 5.03404 30.9587 5.16673 30.638C5.23011 30.4787 5.31797 30.3302 5.42714 30.1979L5.4636 31.9948H9.86985L9.89069 30.7995V30.8776L9.90371 30.1979C10.0129 30.3302 10.1007 30.4787 10.1641 30.638C10.2968 30.9587 10.3683 31.3014 10.3751 31.6484L10.4063 31.9948H10.5574C10.5535 31.9402 10.5535 31.8853 10.5574 31.8307L10.5938 31.5703C10.6228 31.1324 10.6837 30.6972 10.7761 30.2682C10.891 29.7969 11.0588 29.34 11.2761 28.9062L11.349 28.7578C11.1054 28.3656 10.7753 28.0343 10.3839 27.7892C9.99262 27.5441 9.55044 27.3918 9.09121 27.3438C8.30996 27.2812 7.00787 27.3438 6.24225 27.3438ZM16.7579 21.7396C17.2427 21.7396 17.7165 21.8834 18.1196 22.1528C18.5226 22.4221 18.8367 22.805 19.0221 23.2529C19.2075 23.7009 19.2559 24.1937 19.1611 24.6691C19.0664 25.1446 18.8327 25.5812 18.4897 25.9238C18.1468 26.2664 17.7099 26.4996 17.2343 26.5939C16.7588 26.6881 16.266 26.6392 15.8183 26.4533C15.3706 26.2675 14.988 25.953 14.7191 25.5496C14.4501 25.1463 14.3068 24.6723 14.3074 24.1875C14.3074 23.8658 14.3708 23.5473 14.4939 23.2501C14.6171 22.953 14.7977 22.683 15.0253 22.4556C15.2528 22.2283 15.523 22.048 15.8203 21.9252C16.1176 21.8023 16.4362 21.7392 16.7579 21.7396ZM15.2162 26.9922C14.648 27.0537 14.1076 27.2699 13.6537 27.6172C13.0771 28.0965 12.6153 28.6989 12.3021 29.3802C11.956 30.1145 11.7654 30.9125 11.7422 31.724L11.7006 32.0078H13.8047L13.8386 31.6354C13.8468 31.2634 13.9236 30.8962 14.0652 30.5521C14.1347 30.3804 14.2304 30.2205 14.349 30.0781L14.3881 32.0078H19.1094L19.1329 30.7266V30.8099L19.1485 30.0781C19.2653 30.2217 19.3609 30.3813 19.4324 30.5521C19.5727 30.8965 19.6495 31.2636 19.6589 31.6354L19.6928 32.0078H21.7943L21.7553 31.7161C21.7333 30.9045 21.5427 30.1063 21.1954 29.3724C20.5105 27.9245 19.6329 27.1589 18.2761 27C17.4454 26.9323 16.0521 27 15.2188 26.9844L15.2162 26.9922ZM24.4011 27.3438C23.8717 27.3997 23.3679 27.6007 22.9454 27.9245C22.6478 28.1689 22.385 28.4528 22.1641 28.7682L22.2292 28.9036C22.4437 29.3443 22.6062 29.8083 22.7136 30.2865C22.8063 30.7153 22.8664 31.1506 22.8933 31.5885L22.9219 31.776C22.9357 31.8499 22.9427 31.9249 22.9428 32H23.0938L23.1251 31.6536C23.134 31.3066 23.2063 30.9642 23.3386 30.6432C23.4019 30.4838 23.4898 30.3353 23.599 30.2031L23.6355 32H28.0313L28.0521 30.8047V30.8828L28.0678 30.2031C28.1761 30.336 28.2639 30.4843 28.3282 30.6432C28.4609 30.9639 28.5324 31.3066 28.5391 31.6536L28.5704 32H30.5313L30.4922 31.7396C30.4717 30.9864 30.2943 30.2458 29.9714 29.5651C29.3334 28.2161 28.5079 27.5026 27.2527 27.3542C26.4714 27.2917 25.1693 27.3542 24.4063 27.3542L24.4011 27.3438ZM13.7735 9.67188L16.7188 6.58073C16.802 6.49302 16.9167 6.44195 17.0376 6.43878C17.1584 6.43561 17.2756 6.48058 17.3633 6.5638C17.4511 6.64703 17.5021 6.76169 17.5053 6.88256C17.5085 7.00344 17.4635 7.12062 17.3803 7.20833L14.6042 10.1198C14.7549 10.302 14.8505 10.5235 14.8797 10.7581C14.9089 10.9928 14.8705 11.2309 14.769 11.4445C14.6676 11.6581 14.5073 11.8383 14.3069 11.9639C14.1066 12.0895 13.8745 12.1553 13.6381 12.1536V15.7734H28.1251V4.08073H13.6381V9.63542L13.7735 9.66146V9.67188ZM20.1693 18.8333V16.7188H10.6537C10.5887 16.7236 10.5234 16.7149 10.4618 16.6934C10.4003 16.6718 10.3439 16.6378 10.2961 16.5934C10.2483 16.5491 10.2102 16.4953 10.1842 16.4356C10.1581 16.3758 10.1446 16.3113 10.1446 16.2461C10.1446 16.1809 10.1581 16.1164 10.1842 16.0566C10.2102 15.9969 10.2483 15.9431 10.2961 15.8988C10.3439 15.8544 10.4003 15.8204 10.4618 15.7988C10.5234 15.7772 10.5887 15.7686 10.6537 15.7734H12.6928V11.9922L10.3334 11.5391C10.0188 11.4813 9.7388 11.304 9.55214 11.0443L8.53912 9.66146V9.69792L8.45839 14.3073L9.47141 20.1094L9.73183 22.0365C9.7343 22.0668 9.7343 22.0973 9.73183 22.1276C9.35112 21.8256 8.90829 21.6115 8.4351 21.5007C7.96191 21.39 7.47007 21.3853 6.99485 21.487L5.96621 15.599L4.82819 22.1745C4.56777 23.5964 2.25787 23.6068 2.23964 21.8828L3.5261 14.3568L3.42194 9.78385L3.40371 9.0026C3.27731 9.15998 3.17546 9.33558 3.10162 9.52344C2.95007 9.88975 2.8671 10.2808 2.85683 10.6771L2.63287 13.6068V13.6536V13.6745V13.6901V13.7318V13.8177V13.8411V13.8542V13.8802C2.19537 14.4844 1.10944 14.6615 0.703186 13.8802V13.8568V13.8385V13.8229V13.8047V13.7812V13.7578V13.7396V13.7135V13.8021V13.7734V13.7552V13.7318V13.7109V13.6719V13.6354V13.6146C0.700764 12.6645 0.770408 11.7156 0.911519 10.776C0.786519 8.33333 2.02871 5.86198 4.68496 5.66406C5.46621 5.60677 6.26308 5.6849 7.02871 5.6849C7.5439 5.67816 8.05593 5.76644 8.53912 5.94531C8.82687 6.01249 9.08098 6.18066 9.25527 6.41927L11.2605 9.1875L12.6902 9.46354V4.08073H10.6537C10.5887 4.08556 10.5234 4.07692 10.4618 4.05536C10.4003 4.03379 10.3439 3.99977 10.2961 3.9554C10.2483 3.91104 10.2102 3.8573 10.1842 3.79753C10.1581 3.73777 10.1446 3.67327 10.1446 3.60807C10.1446 3.54287 10.1581 3.47838 10.1842 3.41861C10.2102 3.35885 10.2483 3.30511 10.2961 3.26074C10.3439 3.21638 10.4003 3.18235 10.4618 3.16079C10.5234 3.13923 10.5887 3.13059 10.6537 3.13542H20.0938V1.76042C20.089 1.6954 20.0976 1.63008 20.1192 1.56855C20.1407 1.50702 20.1748 1.4506 20.2191 1.40282C20.2635 1.35504 20.3172 1.31693 20.377 1.29087C20.4368 1.2648 20.5013 1.25135 20.5665 1.25135C20.6317 1.25135 20.6962 1.2648 20.7559 1.29087C20.8157 1.31693 20.8694 1.35504 20.9138 1.40282C20.9582 1.4506 20.9922 1.50702 21.0138 1.56855C21.0353 1.63008 21.044 1.6954 21.0391 1.76042V3.125H31.0756C31.1406 3.12017 31.2059 3.12881 31.2674 3.15037C31.329 3.17194 31.3854 3.20596 31.4332 3.25033C31.481 3.29469 31.5191 3.34843 31.5451 3.4082C31.5712 3.46796 31.5846 3.53246 31.5846 3.59766C31.5846 3.66286 31.5712 3.72735 31.5451 3.78712C31.5191 3.84688 31.481 3.90062 31.4332 3.94499C31.3854 3.98935 31.329 4.02338 31.2674 4.04494C31.2059 4.06651 31.1406 4.07514 31.0756 4.07031H29.0626V15.763H31.1303C31.1953 15.7582 31.2606 15.7668 31.3221 15.7884C31.3837 15.81 31.4401 15.844 31.4879 15.8883C31.5356 15.9327 31.5738 15.9865 31.5998 16.0462C31.6259 16.106 31.6393 16.1705 31.6393 16.2357C31.6393 16.3009 31.6259 16.3654 31.5998 16.4251C31.5738 16.4849 31.5356 16.5386 31.4879 16.583C31.4401 16.6274 31.3837 16.6614 31.3221 16.683C31.2606 16.7045 31.1953 16.7132 31.1303 16.7083H21.1042V18.8724C21.1303 18.888 21.1459 18.9063 21.1719 18.9219L24.1225 21.7344C24.157 21.7658 24.186 21.8028 24.2084 21.8438C23.9809 21.9782 23.7695 22.1381 23.5782 22.3203L23.5079 22.3828L23.4844 22.4089L21.1042 20.1667V22.2083C21.0954 22.3276 21.0417 22.4392 20.9541 22.5206C20.8664 22.602 20.7512 22.6472 20.6316 22.6472C20.5119 22.6472 20.3967 22.602 20.3091 22.5206C20.2214 22.4392 20.1678 22.3276 20.1589 22.2083V20.0755L18.8907 21.2943C18.6243 21.1014 18.3324 20.9462 18.0235 20.8333L20.1693 18.8359V18.8333Z" fill="black"/>
</svg>
