<svg width="21" height="21" viewBox="0 0 21 21" fill="none" xmlns="http://www.w3.org/2000/svg">
<path d="M10.4998 18.9234C5.89734 18.9234 2.1665 15.1926 2.1665 10.5901C2.1665 5.98758 5.89734 2.25674 10.4998 2.25674C15.1023 2.25674 18.8332 5.98758 18.8332 10.5901C18.8332 15.1926 15.1023 18.9234 10.4998 18.9234ZM10.4998 17.2567C12.2679 17.2567 13.9636 16.5544 15.2139 15.3041C16.4641 14.0539 17.1665 12.3582 17.1665 10.5901C17.1665 8.82197 16.4641 7.12628 15.2139 5.87603C13.9636 4.62579 12.2679 3.92341 10.4998 3.92341C8.73173 3.92341 7.03603 4.62579 5.78579 5.87603C4.53555 7.12628 3.83317 8.82197 3.83317 10.5901C3.83317 12.3582 4.53555 14.0539 5.78579 15.3041C7.03603 16.5544 8.73173 17.2567 10.4998 17.2567ZM9.669 13.9234L6.13317 10.3876L7.3115 9.20924L9.669 11.5667L14.3823 6.85258L15.5615 8.03091L9.669 13.9234Z" fill="#FF8000"/>
</svg>
