<svg width="21" height="20" viewBox="0 0 21 20" fill="none" xmlns="http://www.w3.org/2000/svg">
<path d="M10.4998 18.3334C5.89734 18.3334 2.1665 14.6026 2.1665 10.0001C2.1665 5.39758 5.89734 1.66675 10.4998 1.66675C15.1023 1.66675 18.8332 5.39758 18.8332 10.0001C18.8332 14.6026 15.1023 18.3334 10.4998 18.3334ZM10.4998 16.6667C12.2679 16.6667 13.9636 15.9644 15.2139 14.7141C16.4641 13.4639 17.1665 11.7682 17.1665 10.0001C17.1665 8.23197 16.4641 6.53628 15.2139 5.28604C13.9636 4.03579 12.2679 3.33341 10.4998 3.33341C8.73173 3.33341 7.03603 4.03579 5.78579 5.28604C4.53555 6.53628 3.83317 8.23197 3.83317 10.0001C3.83317 11.7682 4.53555 13.4639 5.78579 14.7141C7.03603 15.9644 8.73173 16.6667 10.4998 16.6667ZM9.669 13.3334L6.13317 9.79758L7.3115 8.61925L9.669 10.9767L14.3823 6.26258L15.5615 7.44091L9.669 13.3334Z" fill="#FF8000"/>
</svg>
