<svg width="16" height="16" viewBox="0 0 16 16" fill="none" xmlns="http://www.w3.org/2000/svg">
<path d="M7.58683 1.34619C7.09558 1.80394 6.70157 2.35594 6.42829 2.96927C6.15501 3.5826 6.00806 4.24469 5.99622 4.91604C5.98437 5.58739 6.10787 6.25425 6.35935 6.87684C6.61082 7.49943 6.98512 8.06499 7.45991 8.53978C7.9347 9.01457 8.50026 9.38887 9.12285 9.64034C9.74543 9.89182 10.4123 10.0153 11.0836 10.0035C11.755 9.99162 12.4171 9.84468 13.0304 9.5714C13.6437 9.29812 14.1957 8.9041 14.6535 8.41286C14.4415 11.9029 11.5442 14.6669 8.00083 14.6669C4.31816 14.6669 1.3335 11.6822 1.3335 8.00019C1.3335 4.45686 4.0975 1.55952 7.58683 1.34619Z" fill="#131740"/>
</svg>
