<svg width="20" height="21" viewBox="0 0 20 21" fill="none" xmlns="http://www.w3.org/2000/svg">
<path d="M9.99984 18.4933C5.39734 18.4933 1.6665 14.7624 1.6665 10.1599C1.6665 5.55743 5.39734 1.8266 9.99984 1.8266C14.6023 1.8266 18.3332 5.55743 18.3332 10.1599C18.3332 14.7624 14.6023 18.4933 9.99984 18.4933ZM9.99984 16.8266C11.7679 16.8266 13.4636 16.1242 14.7139 14.874C15.9641 13.6237 16.6665 11.928 16.6665 10.1599C16.6665 8.39182 15.9641 6.69613 14.7139 5.44589C13.4636 4.19564 11.7679 3.49327 9.99984 3.49327C8.23173 3.49327 6.53603 4.19564 5.28579 5.44589C4.03555 6.69613 3.33317 8.39182 3.33317 10.1599C3.33317 11.928 4.03555 13.6237 5.28579 14.874C6.53603 16.1242 8.23173 16.8266 9.99984 16.8266ZM9.169 13.4933L5.63317 9.95743L6.8115 8.7791L9.169 11.1366L13.8823 6.42243L15.0615 7.60077L9.169 13.4933Z" fill="#FF8000"/>
</svg>
