<svg width="30" height="32" viewBox="0 0 30 32" fill="none" xmlns="http://www.w3.org/2000/svg">
<path d="M12.6042 1.99207L12.0156 0.841026L9.10938 2.36967L9.67188 3.52332L10.2162 3.23946C10.2448 3.21082 10.2761 3.18738 10.3125 3.16915L11.0781 2.78894L12.6042 1.99207ZM11.3203 7.85665C10.3073 8.1379 9.34376 8.56238 8.46355 9.10665C6.76303 10.1561 5.38022 11.6587 4.56772 13.4608C3.75782 15.2603 3.51824 17.3619 4.10157 19.6223C4.36199 20.6327 4.78907 21.6796 5.40366 22.7447C6.48438 21.7134 7.71616 21.0598 8.98699 20.7395C8.41407 19.6692 8.11199 18.6509 8.03647 17.7134C7.95313 16.6405 8.16668 15.6718 8.6172 14.8436C9.06511 14.0181 9.74741 13.3358 10.5938 12.8306C11.3828 12.3619 12.3203 12.0468 13.349 11.9192L11.3203 7.85665ZM13.6927 12.5988C12.6641 12.6926 11.7318 12.9869 10.9609 13.4426C10.224 13.8801 9.63543 14.4712 9.24741 15.1822C8.86199 15.8931 8.67709 16.729 8.75001 17.6587C8.82032 18.5546 9.12761 19.5389 9.72136 20.591C9.95053 20.5572 10.1771 20.5337 10.4063 20.5181C11.5026 20.453 12.5938 20.6197 13.612 20.9947C14.0078 21.1405 14.3932 21.3176 14.763 21.5259H24.8229C25.0208 21.5259 25.1797 21.6848 25.1797 21.8827V24.8462C25.1797 25.0442 25.0208 25.203 24.8229 25.203H18.1432C18.5234 26.0389 18.7813 26.9686 18.8802 27.9843H25.9245C26.013 27.9843 26.1016 28.0155 26.1693 28.0832L29.6146 31.3645C29.6953 31.4296 29.7448 31.5285 29.7448 31.6405C29.7448 31.8384 29.5859 31.9973 29.388 31.9973H0.611989V31.9947C0.531259 31.9947 0.453134 31.9686 0.385426 31.9139C0.234384 31.7889 0.210947 31.565 0.335947 31.4139L2.96095 28.2134C2.96355 27.2421 3.15365 26.341 3.50522 25.5051C3.83595 24.7108 4.30991 23.9738 4.89845 23.2837C4.19272 22.0988 3.70574 20.9296 3.41407 19.7968C2.78647 17.3671 3.04688 15.104 3.91928 13.1665C4.78907 11.2317 6.27084 9.62488 8.09116 8.49988C8.98699 7.94519 9.96876 7.5103 10.9974 7.20821L10.7734 6.7629C10.7682 6.75248 10.7604 6.74207 10.7552 6.72905C10.6693 6.55196 10.7448 6.33842 10.9245 6.25248L11.3568 6.04675L10.3203 3.98425L9.70053 4.30717C9.69011 4.31498 9.67709 4.32019 9.66668 4.3254C9.48959 4.41134 9.27605 4.33842 9.19011 4.16134L8.31772 2.36967C8.23438 2.1978 8.30209 1.98946 8.47136 1.89832L11.987 0.0493591C11.9948 0.0441508 12 0.0415466 12.0078 0.0363383C12.1823 -0.0522034 12.3984 0.0181091 12.487 0.192588L13.3984 1.97905C13.487 2.15353 13.4193 2.36446 13.2448 2.45561L12.7761 2.7004L13.8958 4.83321L14.3958 4.59363C14.5677 4.5103 14.7761 4.58061 14.8646 4.74988L19.2526 13.1327L19.6797 12.9061C19.8542 12.815 20.0703 12.8801 20.1615 13.0546L21.1406 14.9139L21.1432 14.9165C21.2344 15.091 21.1641 15.3072 20.9896 15.3957L15.7943 18.0832L15.7839 18.0884C15.6068 18.1744 15.3932 18.0988 15.3073 17.9218L14.4219 16.0936C14.3359 15.9218 14.4037 15.7108 14.5755 15.6197L15.0703 15.3567L13.6927 12.5988ZM20.3438 14.9348L19.6979 13.7108L15.9193 15.7134L15.7109 15.8228L15.7031 15.828L15.6927 15.8332L15.2109 16.0884L15.7891 17.2837L20.3438 14.9348ZM15.7005 15.0233L15.9427 14.8957L18.6224 13.466L14.3958 5.39311L12.2656 6.40873L11.9974 6.54155C11.9792 6.54936 11.9636 6.55717 11.9453 6.56238L11.5599 6.74728L15.7005 15.0233ZM12 5.74207L12.0417 5.72123L13.2448 5.12488L12.1537 3.04675L11.3516 3.44519L10.9531 3.65353L12 5.74207ZM15.8255 22.2395C16.0156 22.3905 16.2005 22.5494 16.3776 22.7186C16.9141 23.229 17.3854 23.8228 17.7734 24.4895H24.4636V22.2395H15.8255ZM5.63543 23.5181C5.62501 23.5337 5.61459 23.5494 5.60157 23.5624C4.98438 24.2525 4.4922 24.9869 4.16147 25.7811C3.87501 26.4686 3.70574 27.2004 3.67709 27.9869H18.1641C17.9583 26.0129 17.1016 24.3957 15.888 23.2369C15.1563 22.5389 14.2943 22.0077 13.3672 21.6665C12.4401 21.3254 11.4453 21.1718 10.4505 21.2317C8.74741 21.3332 7.03907 22.0572 5.63543 23.5181ZM18.6146 28.7004C18.6016 28.703 18.5859 28.7056 18.5729 28.7056C18.5443 28.7082 18.5156 28.7056 18.4896 28.7004H3.48438L1.36459 31.2863H28.4974L25.7813 28.7004H18.6146Z" fill="black"/>
</svg>
