<svg width="20" height="21" viewBox="0 0 20 21" fill="none" xmlns="http://www.w3.org/2000/svg">
<path fill-rule="evenodd" clip-rule="evenodd" d="M7.14304 7.40874H11.095V9.43474H11.1522C11.7025 8.4474 13.0483 7.40874 15.055 7.40874C19.2281 7.40874 19.9999 10.0057 19.9999 13.3841V20.2659H15.8785V14.1655C15.8785 12.7112 15.8482 10.8391 13.7355 10.8391C11.5895 10.8391 11.2607 12.4222 11.2607 14.0595V20.2659H7.14301V7.40874H7.14304ZM4.28586 3.83734C4.28586 5.0203 3.32582 5.98034 2.14286 5.98034C0.959887 5.98034 -0.000488281 5.0203 -0.000488281 3.83734C-0.000488281 2.65437 0.959887 1.69434 2.14286 1.69434C3.32582 1.69434 4.28586 2.65437 4.28586 3.83734ZM-0.000488281 7.40874H4.28586V20.2659H-0.000488281V7.40874Z" fill="#A1A2B3"/>
</svg>
