<svg width="20" height="21" viewBox="0 0 20 21" fill="none" xmlns="http://www.w3.org/2000/svg">
<path fill-rule="evenodd" clip-rule="evenodd" d="M19.7958 6.98138C19.7958 6.98138 19.6005 5.60279 18.9996 4.99748C18.2382 4.20132 17.3855 4.19616 16.9958 4.15004C14.1991 3.94629 9.99876 3.94629 9.99876 3.94629H9.99139C9.99139 3.94629 5.79289 3.94629 2.99473 4.15004C2.60348 4.19763 1.75198 4.20098 0.990887 4.99748C0.389637 5.60279 0.198449 6.98138 0.198449 6.98138C0.198449 6.98138 -0.000488281 8.59913 -0.000488281 10.2202V11.7361C-0.000488281 13.3539 0.198449 14.975 0.198449 14.975C0.198449 14.975 0.393699 16.3535 0.990887 16.96C1.75198 17.7561 2.75223 17.7303 3.19886 17.8152C4.80001 17.968 10.0002 18.0141 10.0002 18.0141C10.0002 18.0141 14.2043 18.0067 17.0009 17.8067C17.3922 17.7605 18.2433 17.7558 19.0048 16.9592C19.606 16.3539 19.8009 14.9739 19.8009 14.9739C19.8009 14.9739 19.9999 13.3561 19.9999 11.735V10.2191C19.9958 8.60135 19.7969 6.98029 19.7969 6.98029L19.7958 6.98138ZM7.92701 13.5754V7.95435L13.3299 10.7743L7.92701 13.5754Z" fill="#A1A2B3"/>
</svg>
