<svg width="20" height="21" viewBox="0 0 20 21" fill="none" xmlns="http://www.w3.org/2000/svg">
<path fill-rule="evenodd" clip-rule="evenodd" d="M17.0845 3.85166C15.2039 1.9671 12.7025 0.930664 10.0384 0.930664C4.55025 0.930633 0.0834063 5.39785 0.0834063 10.89C0.0834063 12.6444 0.542938 14.3604 1.41363 15.8681L0 21.0299L5.27997 19.6443C6.73606 20.4375 8.37412 20.8579 10.0369 20.8579H10.041C15.5295 20.8579 20 16.3907 20 10.8989C20 8.23695 18.9635 5.73704 17.083 3.85316L17.0844 3.8517L17.0845 3.85166ZM10.0413 19.1774C8.55384 19.1774 7.097 18.7766 5.82584 18.0225L5.52281 17.8417L2.38953 18.6622L3.22628 15.6083L3.03028 15.2945C2.19722 13.979 1.76247 12.4565 1.76247 10.8904C1.76247 6.32535 5.47597 2.61041 10.0458 2.61041C12.2556 2.61041 14.3373 3.47448 15.899 5.0361C17.4613 6.60257 18.3206 8.67948 18.3206 10.893C18.3169 15.4613 14.6034 19.1763 10.0406 19.1763L10.0414 19.1774L10.0413 19.1774ZM14.5794 12.9754C14.3321 12.8495 13.107 12.2494 12.8797 12.1664C12.6523 12.0833 12.4866 12.0405 12.3179 12.2922C12.1533 12.5395 11.6746 13.1013 11.5288 13.2692C11.383 13.4342 11.2387 13.4578 10.9914 13.332C10.7441 13.2061 9.93906 12.9437 8.98938 12.0955C8.25081 11.4363 7.74994 10.6198 7.60412 10.3725C7.45834 10.1252 7.58787 9.98791 7.7145 9.86651C7.82891 9.75576 7.96216 9.57638 8.08766 9.43057C8.21353 9.28479 8.25266 9.18291 8.33531 9.01463C8.41837 8.84963 8.37778 8.70382 8.31541 8.5787C8.25266 8.45323 7.75362 7.22816 7.55025 6.72916C7.35056 6.24157 7.14203 6.30948 6.98884 6.30101C6.84306 6.2936 6.67806 6.2936 6.51384 6.2936C6.34956 6.2936 6.07791 6.35598 5.85056 6.60401C5.62319 6.85132 4.97875 7.45588 4.97875 8.68057C4.97875 9.9056 5.86975 11.0871 5.99487 11.2558C6.12072 11.4204 7.74994 13.9365 10.2458 15.0132C10.8389 15.2683 11.3021 15.4214 11.6631 15.5399C12.2599 15.7282 12.8014 15.7009 13.2296 15.6377C13.7083 15.5672 14.7019 15.0368 14.9104 14.4555C15.1186 13.8738 15.1186 13.3763 15.0562 13.2733C14.9972 13.1625 14.8326 13.1013 14.5812 12.9739L14.5794 12.9754Z" fill="#A1A2B3"/>
</svg>
