<svg width="20" height="21" viewBox="0 0 20 21" fill="none" xmlns="http://www.w3.org/2000/svg">
<g clip-path="url(#clip0_144_245)">
<path d="M18.1876 6.85119C18.2006 7.03119 18.2006 7.21119 18.2006 7.39119C18.2006 12.8835 14.02 19.2118 6.38 19.2118C4.02588 19.2118 1.83941 18.53 0 17.3465C0.334706 17.3853 0.655882 17.3977 1.00353 17.3977C2.94588 17.3977 4.73353 16.7418 6.16118 15.6224C4.33471 15.5835 2.80412 14.3877 2.27647 12.7412C2.53353 12.78 2.79118 12.8053 3.06118 12.8053C3.43412 12.8053 3.80706 12.7535 4.15471 12.6641C2.25118 12.2782 0.823529 10.6059 0.823529 8.58648V8.53531C1.37647 8.84413 2.02 9.03707 2.70118 9.06236C1.58235 8.31648 0.848824 7.04295 0.848824 5.60236C0.848824 4.8306 1.05471 4.12295 1.41471 3.50589C3.46 6.02707 6.53412 7.67354 9.98118 7.85354C9.91706 7.54472 9.87823 7.22354 9.87823 6.90178C9.87823 4.61236 11.7306 2.74707 14.0329 2.74707C15.2294 2.74707 16.3094 3.24884 17.0682 4.05884C18.0071 3.87884 18.9076 3.53119 19.7053 3.05531C19.3965 4.02001 18.7406 4.8306 17.8788 5.34472C18.7147 5.25472 19.5253 5.02295 20.2712 4.70178C19.7053 5.52472 18.9976 6.25825 18.1876 6.85001V6.85119Z" fill="#A1A2B3"/>
</g>
<defs>
<clipPath id="clip0_144_245">
<rect width="20" height="20" fill="white" transform="translate(0 0.97998)"/>
</clipPath>
</defs>
</svg>
