<svg width="20" height="21" viewBox="0 0 20 21" fill="none" xmlns="http://www.w3.org/2000/svg">
<g clip-path="url(#clip0_144_239)">
<path d="M20.1214 11.0407C20.1214 5.48284 15.6186 0.97998 10.0607 0.97998C4.50286 0.97998 0 5.48284 0 11.0407C0 16.0621 3.67929 20.2243 8.48857 20.98V13.9493H5.93286V11.0407H8.48857V8.82427C8.48857 6.30284 9.98929 4.90998 12.2886 4.90998C13.3893 4.90998 14.5407 5.10641 14.5407 5.10641V7.58141H13.2714C12.0221 7.58141 11.6321 8.35712 11.6321 9.15284V11.0414H14.4221L13.9757 13.95H11.6314V20.9807C16.4414 20.225 20.12 16.0628 20.12 11.0414L20.1214 11.0407Z" fill="#A1A2B3"/>
</g>
<defs>
<clipPath id="clip0_144_239">
<rect width="20" height="20" fill="white" transform="translate(0 0.97998)"/>
</clipPath>
</defs>
</svg>
