<svg width="20" height="21" viewBox="0 0 20 21" fill="none" xmlns="http://www.w3.org/2000/svg">
<g clip-path="url(#clip0_144_255)">
<path d="M9.98199 5.88013C7.14913 5.88013 4.86413 8.16513 4.86413 10.998C4.86413 13.8308 7.14913 16.1158 9.98199 16.1158C12.8148 16.1158 15.0998 13.8308 15.0998 10.998C15.0998 8.16513 12.8148 5.88013 9.98199 5.88013ZM9.98199 14.3251C8.15127 14.3251 6.65484 12.833 6.65484 10.998C6.65484 9.16298 8.14699 7.67084 9.98199 7.67084C11.817 7.67084 13.3091 9.16298 13.3091 10.998C13.3091 12.833 11.8127 14.3251 9.98199 14.3251ZM16.5034 5.67084C16.5034 6.33441 15.9691 6.86441 15.3098 6.86441C14.6463 6.86441 14.1163 6.33013 14.1163 5.67084C14.1163 5.01155 14.6506 4.47727 15.3098 4.47727C15.9691 4.47727 16.5034 5.01155 16.5034 5.67084ZM19.8927 6.88227C19.817 5.28298 19.452 3.86655 18.2806 2.69941C17.1134 1.53227 15.697 1.16727 14.0977 1.08727C12.4498 0.993697 7.50984 0.993697 5.86127 1.08727C4.26627 1.16298 2.84984 1.52798 1.67842 2.69513C0.506987 3.86227 0.146272 5.2787 0.0662723 6.87798C-0.0272991 8.52584 -0.0272991 13.4658 0.0662723 15.1144C0.141987 16.7137 0.506987 18.1301 1.67842 19.2973C2.84984 20.4644 4.26199 20.8294 5.86127 20.9094C7.50913 21.003 12.4491 21.003 14.0977 20.9094C15.697 20.8337 17.1134 20.4687 18.2806 19.2973C19.4477 18.1301 19.8127 16.7137 19.8927 15.1144C19.9863 13.4666 19.9863 8.53084 19.8927 6.88298V6.88227ZM17.7634 16.8823C17.4163 17.7551 16.7434 18.428 15.8656 18.7801C14.5513 19.3016 11.4334 19.1808 9.98127 19.1808C8.52913 19.1808 5.40699 19.2966 4.09699 18.7801C3.22413 18.433 2.55127 17.7601 2.19913 16.8823C1.6777 15.568 1.79842 12.4501 1.79842 10.998C1.79842 9.54584 1.6827 6.4237 2.19913 5.1137C2.54627 4.24084 3.21913 3.56798 4.09699 3.21584C5.41127 2.69441 8.52913 2.81513 9.98127 2.81513C11.4334 2.81513 14.5556 2.69941 15.8656 3.21584C16.7384 3.56298 17.4113 4.23584 17.7634 5.1137C18.2848 6.42798 18.1641 9.54584 18.1641 10.998C18.1641 12.4501 18.2841 15.5723 17.7634 16.8823Z" fill="#A1A2B3"/>
</g>
<defs>
<clipPath id="clip0_144_255">
<rect width="20" height="20" fill="white" transform="translate(0 0.97998)"/>
</clipPath>
</defs>
</svg>
