<svg width="16" height="16" viewBox="0 0 16 16" fill="none" xmlns="http://www.w3.org/2000/svg">
<path d="M7.58634 1.34595C7.0951 1.80369 6.70108 2.3557 6.4278 2.96903C6.15452 3.58236 6.00758 4.24444 5.99573 4.9158C5.98389 5.58715 6.10738 6.25401 6.35886 6.8766C6.61033 7.49919 6.98463 8.06474 7.45942 8.53954C7.93421 9.01433 8.49977 9.38863 9.12236 9.6401C9.74494 9.89157 10.4118 10.0151 11.0832 10.0032C11.7545 9.99138 12.4166 9.84443 13.0299 9.57115C13.6433 9.29787 14.1953 8.90386 14.653 8.41261C14.441 11.9026 11.5437 14.6666 8.00034 14.6666C4.31767 14.6666 1.33301 11.6819 1.33301 7.99995C1.33301 4.45661 4.09701 1.55928 7.58634 1.34595Z" fill="#F9E916"/>
</svg>
