<svg width="40" height="28" viewBox="0 0 40 28" fill="none" xmlns="http://www.w3.org/2000/svg">
<g clip-path="url(#clip0_144_974)">
<path d="M0.00500488 0.440063H39.995V27.1001H0.00500488V0.440063Z" fill="#006C35"/>
<path d="M17.2423 6.73659C17.2216 6.73601 17.1907 6.74752 17.1473 6.77328C17.0498 6.83859 16.8566 7.03988 16.8507 7.27145C16.8449 7.40208 16.8202 7.4016 16.9057 7.48473C16.9676 7.57382 17.0292 7.56508 17.154 7.49976C17.2256 7.44698 17.2498 7.41328 17.274 7.32477C17.3037 7.17632 17.1178 7.39504 17.094 7.22986C17.0524 7.07646 17.1711 7.01338 17.284 6.86488C17.2866 6.79503 17.2878 6.73798 17.2423 6.73659ZM19.0585 6.74662C19.0237 6.75126 18.981 6.79594 18.9218 6.90322C18.8794 7.01562 18.6966 7.18565 18.8285 7.53639C18.9365 7.75874 18.9809 8.12019 18.9319 8.52281C18.8571 8.63724 18.84 8.67664 18.7419 8.79107C18.6041 8.9393 18.4549 8.90139 18.3404 8.84604C18.2333 8.77395 18.1492 8.73695 18.1004 8.50783C18.1092 8.14259 18.1305 7.54487 18.0638 7.41808C17.9653 7.22165 17.8031 7.29208 17.7338 7.35143C17.4007 7.65599 17.2362 8.17026 17.1356 8.57939C17.0433 8.87766 16.9448 8.79139 16.8757 8.6711C16.7074 8.51338 16.6956 7.2803 16.4925 7.48302C16.1671 8.41292 16.6792 9.4316 17.034 9.33258C17.2899 9.43858 17.4524 8.95135 17.5572 8.41783C17.6289 8.2681 17.6836 8.25094 17.7205 8.32788C17.711 9.03735 17.7714 9.19561 17.9538 9.41091C18.3606 9.72481 18.6972 9.45069 18.7236 9.42424L19.0402 9.10763C19.1107 9.03351 19.2038 9.02898 19.3034 9.0943C19.4002 9.18228 19.3878 9.33386 19.5951 9.43928C19.7694 9.50902 20.1419 9.45618 20.2282 9.30598C20.3445 9.10672 20.3726 9.03826 20.4265 8.9627C20.5095 8.85222 20.6515 8.90117 20.6515 8.93604C20.6382 8.99763 20.5548 9.05836 20.6115 9.16932C20.7101 9.24333 20.7331 9.19577 20.7914 9.17929C20.9979 9.08065 21.153 8.63276 21.153 8.63276C21.1621 8.46576 21.0671 8.4784 21.0063 8.51279C20.9271 8.5612 20.9223 8.57768 20.8431 8.62609C20.7421 8.64108 20.5466 8.70767 20.4498 8.55779C20.351 8.37757 20.3504 8.12638 20.2749 7.94461C20.2749 7.93139 20.1428 7.65882 20.2649 7.64138C20.3264 7.65279 20.4589 7.68702 20.4798 7.57633C20.5444 7.46852 20.3404 7.16257 20.2016 7.00821C20.081 6.87587 19.9145 6.85976 19.7533 6.99488C19.6404 7.09874 19.6572 7.21477 19.635 7.32477C19.6063 7.45114 19.6117 7.60763 19.74 7.77468C19.8527 7.99692 20.0574 8.28202 19.9899 8.68443C19.9899 8.68443 19.871 8.8759 19.6617 8.85105C19.5745 8.83202 19.4323 8.79427 19.3567 8.23622C19.2996 7.81376 19.3711 7.22197 19.1918 6.94481C19.1513 6.8403 19.1166 6.73878 19.0585 6.74662ZM18.4837 6.79141C18.4295 6.7961 18.3694 6.85928 18.3204 6.98133C18.2784 7.07411 18.2271 7.55953 18.2354 7.55953C18.2019 7.70403 18.3863 7.76519 18.4704 7.57953C18.5963 7.23913 18.5969 7.0941 18.6053 6.94971C18.5857 6.83971 18.5379 6.78666 18.4837 6.79141ZM20.6065 6.82969C20.5508 6.83476 20.5064 6.86739 20.4898 6.94966C20.4676 7.14321 20.479 7.24841 20.5115 7.40955C20.5364 7.51699 20.6928 7.69689 20.7698 7.80113C21.1375 8.2954 21.4912 8.79197 21.8329 9.30576C21.8859 9.67968 21.9253 10.0554 21.9512 10.4321C22.0066 11.2471 22.0234 12.2616 21.9729 13.1198C22.1255 13.1258 22.3701 12.8732 22.456 12.5033C22.5119 11.9915 22.4362 10.9474 22.431 10.6454C22.4275 10.5201 22.4197 10.3705 22.411 10.2139C22.8278 10.8946 23.2152 11.5929 23.5725 12.3067C23.7105 12.2411 23.6798 11.4643 23.5991 11.3552C23.2963 10.7033 22.8778 10.0598 22.7444 9.81225C22.6962 9.72289 22.5322 9.47346 22.3378 9.18574C22.3021 8.77528 22.2631 8.42758 22.2378 8.3226C22.1753 7.88868 22.4162 8.37154 22.3828 8.11934C22.3047 7.68601 22.0655 7.39152 21.783 6.99461C21.6918 6.86552 21.6936 6.83918 21.553 7.02628C21.4689 7.21695 21.4701 7.37563 21.4947 7.52445C21.4483 7.45665 21.3989 7.39105 21.3464 7.32786C21.1024 7.11852 21.0873 7.10711 20.8848 6.93628C20.821 6.89096 20.6994 6.82121 20.6066 6.82964L20.6065 6.82969ZM26.8982 6.89474C26.8711 6.89048 26.8416 6.90381 26.8082 6.95302C26.7446 7.00879 26.6762 7.10978 26.6783 7.23961C26.6938 7.4683 26.7345 7.70243 26.75 7.93112C26.7554 7.96173 26.7612 7.99217 26.7666 8.02278C26.7483 7.99903 26.7289 7.97621 26.7083 7.95442C26.2626 7.48617 26.9131 7.87791 26.6233 7.51624C26.3783 7.24713 26.3066 7.1615 26.0968 6.99967C25.9916 6.93169 25.928 6.8018 25.8935 7.02303C25.8797 7.21733 25.8654 7.44239 25.8785 7.60624C25.8778 7.69726 25.972 7.86863 26.0534 7.96946C26.3629 8.35029 26.6651 8.73693 26.9599 9.12917C27.0241 9.95648 27.0413 10.7149 27.1065 11.5436C27.0973 11.898 26.9882 12.3687 26.8849 12.4133C26.8849 12.4133 26.7271 12.504 26.6216 12.4033C26.5449 12.3725 26.2384 11.8918 26.2384 11.8918C26.0815 11.7479 25.9768 11.789 25.8652 11.8918C25.5572 12.1892 25.4179 12.7461 25.2087 13.1298C25.1547 13.2154 25.0028 13.2883 24.8338 13.1232C24.4046 12.5368 24.6556 11.7023 24.6022 11.9168C24.2199 12.3475 24.3892 13.0613 24.4755 13.2148C24.6016 13.4669 24.7035 13.6283 24.9488 13.753C25.1721 13.9174 25.346 13.8148 25.442 13.6997C25.6667 13.4668 25.6697 12.8711 25.7752 12.7533C25.8492 12.5368 26.0347 12.574 26.1251 12.6699C26.2128 12.796 26.3163 12.878 26.445 12.9466C26.6547 13.1315 26.9049 13.1651 27.1515 12.9965C27.3201 12.902 27.4294 12.7791 27.5281 12.5366C27.634 12.2535 27.5816 10.7695 27.5581 9.94395C27.7164 10.167 27.8727 10.3949 28.028 10.6254C28.0961 11.3501 28.1271 12.0638 28.1046 12.7482C28.0886 12.8843 28.5795 12.3419 28.5762 12.085C28.574 11.8603 28.5766 11.6565 28.5762 11.4668C28.8143 11.847 29.0449 12.2336 29.2627 12.6249C29.3977 12.5534 29.3514 11.7889 29.266 11.6835C29.0379 11.3007 28.7458 10.8871 28.5195 10.567C28.4748 10.1632 28.414 9.68663 28.3862 9.54064C28.3431 9.31296 28.2999 8.97102 28.2346 8.70085C28.2167 8.59538 28.1627 8.2584 28.1796 8.22598C28.2062 8.15059 28.3067 8.22838 28.3562 8.14099C28.4303 8.06021 28.0993 7.20266 27.9313 6.95792C27.871 6.84825 27.7617 6.88621 27.6264 7.06456C27.501 7.18198 27.5469 7.44975 27.5948 7.7044C27.7192 8.35352 27.8302 9.01458 27.918 9.67394C27.7343 9.40056 27.5488 9.12841 27.3614 8.8575C27.3562 8.83031 27.3365 8.7306 27.3365 8.72922C27.3365 8.71754 27.3096 8.1982 27.2865 8.07445C27.2825 8.02417 27.2705 8.00966 27.3232 8.01606C27.379 8.06304 27.3866 8.06559 27.4214 8.08111C27.4778 8.0914 27.5271 7.99607 27.4931 7.90782C27.3187 7.58614 27.1443 7.26302 26.9699 6.94134C26.9489 6.92071 26.9254 6.89895 26.8982 6.89474ZM10.6607 6.91138C10.5641 6.9086 10.4574 6.96848 10.4991 7.08467C10.4748 7.14796 10.6882 7.36193 10.7257 7.47955C10.7593 7.56327 10.6924 7.83291 10.7623 7.85781C10.8267 7.88569 10.9153 7.67113 10.949 7.47284C10.9676 7.36428 10.9535 6.99258 10.7007 6.91634C10.6876 6.91337 10.6742 6.91174 10.6607 6.91138ZM29.1579 6.91351C29.1359 6.91564 29.1091 6.95126 29.068 7.03844C28.9691 7.20042 28.9351 7.49049 28.9747 7.74658C29.2128 9.35701 29.3897 10.9165 29.4262 12.3438C29.4057 12.4793 29.3998 12.5514 29.3362 12.722C29.1957 12.9022 29.0407 13.128 28.8947 13.2369C28.7487 13.3457 28.4381 13.4495 28.3364 13.5301C28.0142 13.7164 28.0126 13.9306 28.2732 13.9384C28.7222 13.8863 29.2535 13.8494 29.6195 13.2969C29.7174 13.1421 29.8328 12.7224 29.8378 12.4655C29.872 10.9593 29.8185 9.48668 29.5928 8.39815C29.5784 8.29204 29.5315 8.04837 29.5495 8.01654C29.5786 7.942 29.7255 8.02401 29.7777 7.93827C29.8545 7.85989 29.3978 7.27518 29.2379 7.02516C29.2059 6.96235 29.1863 6.91068 29.1579 6.91351ZM24.4491 6.93846C24.4306 6.94166 24.4032 6.96992 24.3525 7.03679C24.2271 7.44692 24.183 7.78183 24.2309 8.03654C24.5531 9.71793 24.8832 11.2498 24.8307 12.8503C24.9835 12.8514 25.1602 12.5008 25.2356 12.1539C25.2769 11.6759 25.2081 11.385 25.1956 11.1041C25.1833 10.8232 24.8776 8.54398 24.8157 8.33145C24.7411 7.92958 25.1129 8.27861 25.0724 8.04485C24.9438 7.75021 24.6229 7.32109 24.5225 7.0651C24.4848 6.99653 24.4801 6.93313 24.4492 6.93846H24.4491ZM12.9837 6.97014C12.9441 6.97701 12.9059 7.00959 12.8921 7.06345C12.8834 7.09869 12.9073 7.15734 12.8755 7.1751C12.8571 7.1936 12.7876 7.18118 12.7905 7.08344C12.7905 7.0523 12.7676 7.01983 12.7538 7.00015C12.7399 6.99109 12.7306 6.98842 12.7055 6.98842C12.6749 6.9897 12.6756 6.99776 12.6588 7.02346C12.6514 7.04958 12.6418 7.07518 12.6418 7.10503C12.638 7.1398 12.624 7.15158 12.5985 7.1567C12.5698 7.1567 12.5766 7.15979 12.5535 7.14502C12.5397 7.12999 12.5234 7.12407 12.5234 7.09837C12.5234 7.07176 12.5165 7.02932 12.5085 7.01172C12.4963 6.99573 12.4771 6.98736 12.4552 6.98176C12.3353 6.98219 12.3266 7.11986 12.3335 7.17168C12.3246 7.18144 12.3201 7.42549 12.4834 7.49326C12.7028 7.59787 13.1141 7.55362 13.0966 7.2C13.0966 7.16875 13.0897 7.06371 13.0867 7.03503C13.0643 6.98293 13.0229 6.9632 12.9833 6.97008L12.9837 6.97014ZM15.9264 6.97349C15.8566 6.97733 15.7884 6.99605 15.7264 7.02841C15.5811 7.16763 15.5469 7.39078 15.6614 7.53C15.7729 7.58262 15.884 7.69475 15.8097 7.75661C15.4947 8.09311 14.6747 8.65542 14.6334 8.75801C14.633 8.75886 14.6319 8.76057 14.6318 8.76131C14.6316 8.76206 14.6318 8.76398 14.6318 8.76467C14.6318 8.76499 14.6317 8.76606 14.6318 8.76633C14.6322 8.76751 14.6327 8.76863 14.6334 8.76969C14.6336 8.7699 14.6348 8.77113 14.6351 8.77129C14.6353 8.7715 14.6364 8.77118 14.6367 8.77129C14.637 8.7715 14.638 8.77288 14.6384 8.77299C14.6387 8.7731 14.6396 8.77288 14.64 8.77299L14.6417 8.77464C14.6834 8.80258 15.1964 8.80194 15.2533 8.7763C15.2536 8.77608 15.2545 8.77486 15.2549 8.7747C15.2551 8.77454 15.2565 8.77475 15.2566 8.7747C15.2567 8.77454 15.2565 8.7731 15.2566 8.77299C15.4329 8.70799 16.2696 7.75159 16.2696 7.75159C16.2262 7.71448 16.1863 7.68708 16.143 7.64997C16.0966 7.60976 16.1013 7.57025 16.143 7.53C16.3502 7.40939 16.2846 7.14407 16.1763 7.02346C16.0866 6.9832 16.0022 6.96966 15.9264 6.97349ZM23.6178 6.9768C23.5958 6.97899 23.5689 7.0129 23.5278 7.10013C23.4289 7.26206 23.3617 7.54418 23.3695 7.80822C23.5837 9.29132 23.6494 10.5891 23.7894 12.0722C23.8008 12.2157 23.7798 12.424 23.6844 12.5071C23.3318 12.8753 22.8233 13.3295 22.2698 13.5385C22.2102 13.6054 22.4179 13.8904 22.6863 13.8901C23.1354 13.838 23.53 13.5859 23.8961 12.922C23.994 12.7672 24.166 12.4358 24.171 12.1789C24.2053 10.6727 24.0951 9.50166 23.8694 8.41313C23.855 8.30708 23.8648 8.18167 23.8827 8.14984C23.9118 8.11513 24.0104 8.15064 24.0627 8.06485C24.1395 7.98647 23.8577 7.33676 23.6978 7.08675C23.6658 7.02399 23.6461 6.97397 23.6178 6.9768H23.6178ZM11.7024 7.02212C11.6404 7.02937 11.5821 7.07981 11.5541 7.1471C11.5437 7.38497 11.5424 7.62272 11.5691 7.84186C11.6773 8.22641 11.7115 8.56456 11.764 8.95833C11.7786 9.48567 11.4595 9.18643 11.4741 8.92501C11.5478 8.58536 11.5279 8.05077 11.4624 7.91523C11.4105 7.77975 11.3504 7.74632 11.2241 7.7686C11.1239 7.76247 10.865 8.04459 10.7926 8.51178C10.7926 8.51178 10.7323 8.7515 10.7059 8.965C10.6705 9.20622 10.5107 9.37711 10.3993 8.93167C10.3031 8.60791 10.244 7.81025 10.0828 7.99692C10.0366 8.6197 9.98178 9.71569 10.511 9.82814C11.1511 9.88967 10.7975 8.74606 11.0292 8.53844C11.073 8.43585 11.1542 8.43398 11.1608 8.56344V9.53488C11.155 9.85064 11.3628 9.94449 11.5241 10.0097C11.6919 9.99679 11.8032 10.0014 11.869 10.1647C11.8952 10.7247 11.9227 11.286 11.949 11.8459C11.949 11.8459 12.337 11.9574 12.3555 10.9012C12.3741 10.2809 12.232 9.76048 12.3155 9.63981C12.3185 9.52128 12.4705 9.51542 12.5755 9.57316C12.7428 9.69116 12.817 9.83641 13.077 9.77813C13.4726 9.66914 13.711 9.47708 13.7168 9.17326C13.6938 8.88454 13.6603 8.59554 13.5352 8.30681C13.5527 8.25429 13.4595 8.11769 13.4769 8.06522C13.548 8.17655 13.6556 8.16733 13.6802 8.06522C13.6129 7.8433 13.508 7.63066 13.3386 7.53869C13.1986 7.4153 12.9938 7.44143 12.9188 7.69865C12.8839 7.995 13.0261 8.34632 13.242 8.63335C13.2878 8.74553 13.3519 8.9321 13.3236 9.0999C13.2088 9.16548 13.0949 9.13818 12.9987 9.03661C12.9987 9.03661 12.6838 8.80088 12.6838 8.74836C12.7674 8.21329 12.7018 8.15203 12.6555 8.00348C12.6231 7.79857 12.5259 7.73368 12.4472 7.59361C12.3684 7.51011 12.2615 7.51011 12.2106 7.59361C12.0714 7.83493 12.1367 8.35299 12.2372 8.58504C12.3099 8.79848 12.4213 8.93162 12.3689 8.93162C12.3257 9.05223 12.2356 9.02418 12.1706 8.88496C12.0778 8.5973 12.0589 8.1685 12.0589 7.97522C12.0311 7.7356 12 7.22367 11.8423 7.09384C11.8002 7.03647 11.7506 7.01647 11.7024 7.02212ZM13.9501 7.02548C13.9183 7.02948 13.8833 7.04756 13.8418 7.0571C13.7058 7.10045 13.5783 7.21807 13.6185 7.44703C13.7794 8.42449 13.8843 9.17049 14.0451 10.148C14.0698 10.2625 13.9738 10.4134 13.8501 10.3979C13.6398 10.2556 13.5876 9.96741 13.2286 9.97973C12.9688 9.98282 12.6725 10.2656 12.6355 10.5379C12.5922 10.7544 12.5767 10.989 12.6355 11.1778C12.8181 11.3973 13.0369 11.3739 13.2286 11.3244C13.3864 11.2595 13.5161 11.104 13.5719 11.1411C13.5721 11.1413 13.5734 11.1409 13.5735 11.1411C13.5737 11.1413 13.5734 11.1425 13.5735 11.1427C13.608 11.2029 13.5703 11.7113 12.8304 12.1042C12.3757 12.3084 12.0138 12.3571 11.8189 11.9858C11.6983 11.7539 11.8277 10.8702 11.5307 11.0744C10.6523 13.3387 13.5888 13.6548 13.9168 11.1677C13.938 11.0976 14.0027 11.0271 14.0484 11.0444C14.0684 11.053 14.0868 11.0801 14.0934 11.1311C14.0253 13.383 11.8216 13.5374 11.4474 12.829C11.3546 12.662 11.3267 12.2903 11.3174 12.0675C11.3004 11.9327 11.2666 11.855 11.2274 11.8242C11.1382 11.7572 11.0182 11.9321 10.9925 12.2359C10.9554 12.4802 10.9659 12.5472 10.9659 12.7824C11.0834 14.561 13.9191 13.7968 14.38 12.3275C14.6081 11.5679 14.3753 10.9948 14.4516 10.9245C14.4523 10.924 14.4543 10.9233 14.455 10.9229L14.4583 10.9212C14.4591 10.9209 14.4608 10.9198 14.4616 10.9195C14.4649 10.9186 14.4683 10.9181 14.4716 10.9179C14.7532 11.2211 15.1482 10.9564 15.2348 10.8512C15.2719 10.7986 15.3648 10.7649 15.4297 10.8328C15.6493 10.9907 16.0342 10.9163 16.1145 10.6379C16.1609 10.3657 16.2002 10.0855 16.2095 9.79482C16.0664 9.83923 15.9511 9.8725 15.9046 9.92145C15.8935 9.93355 15.8854 9.94694 15.8829 9.96144C15.8705 10.042 15.8587 10.1226 15.8463 10.203C15.845 10.2097 15.8428 10.2158 15.8396 10.2214C15.8329 10.2317 15.8237 10.2403 15.813 10.2464C15.7624 10.274 15.6742 10.2582 15.6696 10.1847C15.6016 9.87538 15.3216 9.83513 15.1514 10.3147C15.0369 10.4075 14.8282 10.4256 14.8065 10.2864C14.8344 9.96464 14.7047 9.9215 14.4449 10.0731C14.3614 9.43587 14.2786 8.82748 14.195 8.19026C14.3033 8.18711 14.4026 8.26565 14.5016 8.14195C14.3944 7.80875 14.1678 7.13084 14.0401 7.06723C14.039 7.0667 14.0377 7.06595 14.0367 7.06558C14.0288 7.05629 14.0198 7.04789 14.0101 7.04052C14.0077 7.03892 14.0041 7.03689 14.0017 7.03556C13.9964 7.0328 13.9908 7.03057 13.985 7.02889C13.9737 7.0254 13.9618 7.02427 13.9501 7.02559L13.9501 7.02548ZM22.7127 7.03044C22.6003 7.02713 22.476 7.09794 22.5245 7.23871C22.4962 7.31549 22.7659 7.57601 22.8094 7.71859C22.8876 7.93768 22.7496 8.14664 22.831 8.17682C22.906 8.21063 23.0102 7.95069 23.0493 7.71027C23.0945 7.51597 22.9559 7.11767 22.7594 7.03545C22.744 7.03223 22.7284 7.03052 22.7127 7.03044ZM15.8862 7.27038C15.9374 7.26515 15.9992 7.31218 16.0295 7.37867C16.0618 7.44959 16.0455 7.51741 15.9928 7.53032C15.94 7.54327 15.8718 7.4963 15.8395 7.42533C15.8072 7.35441 15.8234 7.28499 15.8762 7.27203C15.8795 7.27123 15.8828 7.27075 15.8862 7.27043V7.27038ZM28.5497 7.59862C28.4472 7.59505 28.3355 7.67284 28.3797 7.82523C28.354 7.90841 28.5984 8.19079 28.638 8.3451C28.6736 8.45494 28.5837 8.80898 28.658 8.84167C28.7263 8.87825 28.8223 8.59709 28.8579 8.33678C28.8777 8.19431 28.7721 7.69433 28.593 7.60528C28.5789 7.60138 28.5643 7.59914 28.5497 7.59862ZM21.5482 7.77191C21.5576 7.81371 21.5669 7.85578 21.5732 7.89854C21.5942 7.99089 21.6123 8.0826 21.6316 8.17351C21.5507 8.06213 21.4837 7.97212 21.4549 7.94024C21.2719 7.72269 21.459 7.7974 21.5482 7.77191ZM23.1612 8.56504C23.1215 8.57198 23.0833 8.60621 23.0695 8.66006C23.0608 8.69525 23.0865 8.7523 23.0545 8.77001C23.0362 8.78851 22.9649 8.77774 22.9679 8.68005C22.9679 8.64892 22.945 8.61479 22.9312 8.59506C22.9173 8.586 22.908 8.58339 22.8829 8.58339C22.8523 8.58461 22.853 8.59272 22.8362 8.61836C22.8291 8.64454 22.8196 8.67035 22.8196 8.70005C22.8157 8.73481 22.8035 8.7466 22.7779 8.75166C22.7493 8.75166 22.7544 8.75481 22.7312 8.74004C22.7175 8.72495 22.7013 8.71903 22.7013 8.69338C22.7013 8.66672 22.6943 8.62428 22.6863 8.60674C22.6741 8.59074 22.6549 8.58403 22.633 8.57837C22.5132 8.5788 22.5061 8.71482 22.513 8.7667C22.504 8.77646 22.4979 9.0221 22.6612 9.08993C22.8806 9.19449 23.2935 9.14863 23.2761 8.79501C23.2761 8.76371 23.2676 8.65867 23.2644 8.63004C23.242 8.57789 23.2007 8.55822 23.1612 8.56504ZM15.7966 8.63836C15.7696 8.63564 15.7341 8.64556 15.6933 8.67003C15.4993 8.77496 15.4242 9.08614 15.545 9.26828C15.6578 9.42861 15.8362 9.36986 15.8599 9.36986C16.05 9.39364 16.1632 9.0133 16.1632 9.0133C16.1632 9.0133 16.1689 8.90635 15.9432 9.10827C15.8483 9.12608 15.8354 9.09174 15.8116 9.03831C15.7918 8.93935 15.7961 8.83905 15.8416 8.74004C15.8626 8.68069 15.8417 8.64294 15.7966 8.63836ZM26.2073 8.68672C26.0996 8.68149 25.985 8.75124 25.9557 8.89835C25.9561 8.9851 25.9949 9.03282 25.9874 9.11163C25.9762 9.15663 25.9298 9.18627 25.8191 9.13327C25.8364 9.11733 25.7474 8.99166 25.7474 8.99166C25.6611 8.93908 25.5459 8.99448 25.4708 9.04327C25.4295 9.11829 25.399 9.24695 25.4459 9.37817C25.5697 9.60708 25.9947 9.99765 26.1974 10.0014C26.2011 9.79503 26.2211 9.52059 26.2323 9.34986C26.2371 9.28545 26.2522 9.21443 26.314 9.19827C26.3757 9.18212 26.4827 9.26034 26.4839 9.19326C26.4727 9.06199 26.4465 8.86822 26.3723 8.77667C26.3343 8.72042 26.2719 8.68987 26.2073 8.68672ZM17.5897 9.40489C17.5869 9.40595 17.584 9.40835 17.5814 9.40985C17.5801 9.41065 17.5777 9.41224 17.5764 9.4132C17.555 9.42931 17.5297 9.46647 17.4731 9.50651C17.3777 9.61502 17.3606 9.69058 17.3665 9.90807C17.3719 9.9311 17.5476 10.4195 17.6964 10.7628C17.7967 11.1197 17.8896 11.5283 17.8214 11.9142C17.5864 12.4245 17.1142 12.882 16.6584 13.1306C16.4261 13.2049 16.2255 13.1796 16.1718 13.1289L16.1702 13.1273C16.0367 13.0376 16.0337 12.8779 16.0418 12.8506V12.849L16.0435 12.8473C16.4281 12.5794 16.8675 12.3625 17.2115 11.6393C17.3131 11.3629 17.3441 11.1969 17.2432 10.7696C17.2038 10.6103 17.1552 10.4792 17.0466 10.3663L17.0482 10.3647C17.1137 10.3333 17.2836 10.4585 17.3098 10.3796C17.2696 10.1756 17.1314 9.90162 16.975 9.76144C16.8379 9.63699 16.6888 9.62259 16.5633 9.73648C16.422 9.81508 16.392 10.0975 16.4601 10.3447C16.5356 10.5307 16.7396 10.5633 16.885 10.9378V10.9394C16.8879 10.9629 16.9348 11.219 16.8616 11.3227C16.8022 11.5079 16.0392 12.1097 15.9851 12.1459C15.9845 12.1464 15.9807 12.1486 15.9801 12.1492L15.9785 12.1509C15.9783 12.151 15.9772 12.1521 15.9768 12.1525L15.9752 12.1542H15.9718C15.9713 12.1537 15.9707 12.1531 15.9702 12.1526V12.1509C15.9698 12.1503 15.9688 12.1481 15.9685 12.1475C15.9662 12.1325 15.9703 12.0942 15.9685 12.0325C15.9635 11.9198 16.0101 11.6647 16.0068 11.621V11.6194L16.0052 11.6177V11.616H16.0035C15.7513 11.7789 15.668 12.278 15.6219 12.4258C14.9834 12.867 14.2583 13.1952 13.8407 13.6422C13.6232 13.9818 15.3392 13.2521 15.5386 13.1639C15.5403 13.1652 15.542 13.1673 15.5436 13.169C15.5815 13.2107 15.5848 13.3561 15.6986 13.4872C15.8769 13.7288 16.2561 13.8776 16.625 13.7854C17.2437 13.5618 17.6001 13.1402 17.963 12.6724C18.0149 12.5969 18.0962 12.5375 18.1713 12.5958C18.4207 13.154 19.1397 13.5513 20.0692 13.5922C20.2843 13.3306 20.1814 13.202 20.0942 13.1473C20.0673 13.1294 19.6319 12.9597 19.5643 12.7908C19.5217 12.6335 19.6252 12.494 19.8326 12.3892C20.4294 12.317 21.0161 12.2368 21.5838 12.0543C21.5896 11.8635 21.7019 11.5783 21.7771 11.4545C21.8293 11.3684 21.8629 11.36 21.8754 11.3478L21.8771 11.3461C21.8773 11.3459 21.8786 11.3447 21.8787 11.3445C21.8791 11.3442 21.8801 11.3431 21.8804 11.3428V11.3394C21.8807 11.3357 21.8804 11.3292 21.8788 11.3228L21.7821 11.2661L19.8775 11.2578C19.8541 11.2487 19.8365 11.2397 19.8259 11.2312C19.8251 11.2305 19.8233 11.2285 19.8226 11.2278L19.8209 11.2262L19.8193 11.2245C19.819 11.2239 19.8178 11.2217 19.8176 11.2211L19.8159 11.2195V11.2178L19.8143 11.2162V11.2145V11.2128V11.2095V11.2078V11.2062V11.2045V11.2029C19.8146 11.2025 19.8156 11.2015 19.8159 11.2012C19.8163 11.2003 19.817 11.1987 19.8176 11.1979C19.8269 11.1853 19.8494 11.1735 19.8776 11.1628C20.3324 11.1009 21.1403 10.9684 21.194 10.1914C21.1855 9.78671 21.0207 9.52171 20.5242 9.44824C20.1592 9.4765 19.899 9.82947 19.9409 10.2181C19.9235 10.3227 19.9763 10.5281 19.8693 10.5513C19.1693 10.6153 18.4053 11.0539 18.3796 11.3678H18.378L18.3763 11.3694L18.373 11.3711H18.3696C18.3685 11.3715 18.3658 11.3724 18.3646 11.3727H18.3596C18.358 11.3728 18.3563 11.3728 18.3546 11.3727C18.3528 11.3724 18.3496 11.3715 18.348 11.3711C18.3024 11.3585 18.2438 11.2833 18.253 11.1778C18.2263 10.6352 18.0497 10.0212 17.7731 9.54826C17.6744 9.44957 17.6314 9.40958 17.6032 9.40494C17.6022 9.40483 17.6007 9.40499 17.5998 9.40494H17.5899L17.5897 9.40489ZM19.4126 9.69148C19.373 9.69831 19.3348 9.73094 19.321 9.78479C19.3123 9.81998 19.3379 9.87863 19.306 9.89639C19.2877 9.91489 19.2164 9.90412 19.2194 9.80644C19.2194 9.7753 19.1965 9.74118 19.1827 9.72145C19.1688 9.71238 19.1611 9.70977 19.136 9.70977C19.1055 9.71105 19.1045 9.7191 19.0877 9.7448C19.0806 9.77093 19.0711 9.79679 19.0711 9.82638C19.0672 9.8612 19.055 9.87298 19.0294 9.8781C19.0008 9.8781 19.0076 9.88119 18.9844 9.86637C18.9707 9.85139 18.9528 9.84547 18.9528 9.81977C18.9528 9.79316 18.9474 9.75072 18.9394 9.73312C18.9273 9.71713 18.9064 9.71041 18.8845 9.70481C18.7647 9.70524 18.7576 9.8412 18.7645 9.89303C18.7555 9.90284 18.7494 10.1485 18.9128 10.2163C19.1321 10.3209 19.6548 10.2593 19.5276 9.92145C19.5276 9.89015 19.5191 9.78511 19.5159 9.75643C19.4935 9.70433 19.4522 9.6846 19.4126 9.69148ZM26.7692 9.99306C26.7631 9.99202 26.7567 9.99259 26.7509 9.99471C26.7509 9.99471 25.7346 10.7177 25.7095 10.7428C25.6088 10.8324 25.6591 11.1475 25.7095 11.1111C25.7823 11.1391 26.8054 10.4457 26.7859 10.3646C26.8305 10.3673 26.8519 10.0079 26.7692 9.99306ZM20.3729 10.1002C20.4144 10.0958 20.4688 10.1099 20.5212 10.1402C20.5971 10.1841 20.6439 10.2504 20.6379 10.2985C20.6377 10.2998 20.6382 10.3023 20.6379 10.3035C20.6376 10.3048 20.6349 10.3072 20.6345 10.3085C20.6341 10.3097 20.6334 10.3123 20.6329 10.3135C20.6326 10.3143 20.6316 10.3161 20.6312 10.3168L20.6296 10.3202C20.6267 10.3244 20.6233 10.3284 20.6195 10.3319C20.5831 10.3659 20.4989 10.361 20.4196 10.3152C20.3444 10.2717 20.298 10.2049 20.303 10.1569C20.3031 10.1556 20.3044 10.1531 20.3046 10.1519C20.3059 10.1459 20.3083 10.1405 20.3113 10.1352C20.3124 10.1333 20.3133 10.1303 20.3146 10.1285L20.3163 10.1269C20.3189 10.1239 20.3217 10.1211 20.3246 10.1186C20.3367 10.109 20.3539 10.1023 20.3729 10.1002ZM11.4733 10.2835C10.9467 10.2931 10.1756 10.9737 10.1553 11.3515C10.7109 11.0847 11.2567 10.8279 11.8215 10.5517C11.7304 10.4157 11.816 10.2931 11.4733 10.2835V10.2835ZM13.1795 10.5201C13.2312 10.5207 13.2856 10.5462 13.3145 10.6184C13.3405 10.6847 13.3157 10.754 13.2845 10.7884C13.2844 10.7886 13.2847 10.7898 13.2845 10.79C13.284 10.7908 13.2834 10.7927 13.2829 10.7934C13.2607 10.8219 13.1832 10.81 13.1279 10.81C13.061 10.8071 13.0281 10.7962 12.9879 10.7418C12.9687 10.6813 13.0272 10.6219 13.053 10.5768C13.0532 10.5763 13.0543 10.5755 13.0546 10.5752C13.0574 10.5709 13.0619 10.5659 13.0663 10.5618C13.0862 10.5435 13.1208 10.5264 13.1579 10.5218C13.1651 10.5209 13.1722 10.52 13.1795 10.5201ZM26.5714 10.7297C26.4778 10.7412 26.3888 10.8298 26.4298 10.9713C26.4041 11.0544 26.5568 11.3451 26.5964 11.4995C26.632 11.6093 26.5505 11.92 26.6247 11.9527C26.693 11.9893 26.8727 11.7682 26.8663 11.4911C26.8861 11.3487 26.8155 10.8237 26.6364 10.7346C26.6153 10.7288 26.5932 10.7271 26.5714 10.7296V10.7297ZM15.1977 11.2429C15.1149 11.2486 15.0411 11.2929 15.0744 11.4095C15.0694 11.4941 15.3082 11.5969 15.3227 11.7927C15.3568 11.8734 15.2716 12.1319 15.3427 12.156C15.4079 12.1829 15.4984 11.9773 15.5326 11.7861C15.5515 11.6813 15.4507 11.315 15.2793 11.2495C15.2526 11.2435 15.2251 11.2413 15.1977 11.2429ZM18.6019 11.7078C18.6082 11.7074 18.6137 11.7078 18.6202 11.7078H18.6235C18.8357 11.7654 19.1485 11.7714 19.42 11.7994C19.6412 11.8135 19.7504 11.9865 19.5433 12.0593C19.339 12.1293 19.1427 12.184 19.1418 12.4792C19.1686 12.6255 19.163 12.7022 19.1401 12.7375C19.1383 12.7402 19.1354 12.7437 19.1334 12.7459L19.1318 12.7475L19.1301 12.7492L19.1285 12.7508L19.1268 12.7525L19.1234 12.7542C19.1203 12.7561 19.1169 12.7578 19.1135 12.7591C19.1106 12.7601 19.1065 12.7603 19.1034 12.7608C19.0549 12.7679 18.9843 12.7216 18.9318 12.6941C18.8059 12.6037 18.4523 12.3846 18.402 11.9143C18.3948 11.8082 18.4742 11.7167 18.6019 11.7077L18.6019 11.7078ZM10.2871 12.0693C10.2739 12.0698 10.2474 12.1094 10.2122 12.1543C9.89892 12.6534 9.87103 13.3983 10.0439 13.6206C10.1357 13.7257 10.2871 13.7718 10.3988 13.7389C10.5955 13.6536 10.6821 13.2549 10.6354 13.1091C10.5697 13.0063 10.5177 12.99 10.4521 13.0775C10.3136 13.3586 10.256 13.1663 10.2438 13.0092C10.2226 12.7111 10.2515 12.4367 10.2838 12.2194C10.3011 12.1079 10.3004 12.069 10.2871 12.0694V12.0693ZM20.9597 12.7246C20.9343 12.723 20.909 12.7282 20.8864 12.7396C20.8814 12.7396 20.6621 12.888 20.5914 12.9912C20.5483 13.024 20.5532 13.0526 20.5664 13.1096C20.6 13.1868 20.6592 13.1626 20.7264 13.1262C20.8156 13.114 20.8586 13.1724 20.8514 13.2795C20.8102 13.413 20.8697 13.4628 20.8697 13.4711C20.8697 13.4795 20.9556 13.5532 21.0563 13.4945C21.269 13.4133 21.4016 13.3343 21.6995 13.2695C21.7777 13.268 21.7731 13.0587 21.6495 13.0512C21.4881 13.0593 21.3393 13.0676 21.1779 13.1945C21.0787 13.2174 21.0617 13.1571 21.0397 13.1029C21.0144 12.9685 21.0964 12.8737 21.0796 12.773C21.0841 12.7774 21.0295 12.7283 20.9597 12.7246ZM27.7932 12.9796C27.7536 12.9808 27.7119 12.9863 27.6516 12.9912C27.5862 13.0051 27.5635 13.0337 27.5516 13.1129C27.5563 13.2329 27.6297 13.227 27.7049 13.2745C27.7484 13.3299 27.7767 13.3801 27.7015 13.4711C27.6303 13.5364 27.5795 13.5724 27.5082 13.6377C27.4746 13.6951 27.4536 13.7833 27.5566 13.811C27.7466 13.8645 28.1864 13.5787 28.1864 13.5728C28.2576 13.5193 28.234 13.4178 28.228 13.4178C28.1865 13.3703 28.0927 13.3988 28.0297 13.3911C27.9998 13.3911 27.9012 13.3765 27.9481 13.2895C27.9872 13.2353 28.0016 13.2029 28.0281 13.1362C28.0577 13.0709 28.0317 13.0269 27.9248 12.9912C27.8704 12.9813 27.8327 12.9783 27.7932 12.9796ZM24.9384 18.7595C24.938 18.7597 24.9372 18.7608 24.9368 18.7611C24.6207 18.8422 24.6305 19.1703 24.8334 19.3143C21.4959 19.3143 16.3742 19.2577 15.2758 19.2577C14.6613 19.2577 12.7171 19.1844 12.6798 19.1844C13.0967 19.7942 13.7007 19.9184 14.4911 19.9308C15.9734 19.9308 22.842 19.9125 24.7967 19.9125C24.6577 20.1593 24.8093 20.5563 24.9183 20.629C24.9207 20.6305 24.9244 20.6329 24.9267 20.634C24.9307 20.6361 24.9361 20.638 24.94 20.639C24.9413 20.6393 24.9437 20.6388 24.945 20.639C25.0744 20.6695 25.1314 20.5759 25.1749 20.5074C25.3849 20.5259 26.5664 20.543 26.6746 20.5057C26.6749 20.5055 26.6758 20.5042 26.6762 20.5041C26.7494 20.6117 26.8219 20.7134 26.9612 20.6957C27.2048 20.6434 27.3966 20.6169 27.4027 20.1225C27.4027 20.1225 27.3778 19.2799 26.8245 19.3327C26.6936 19.3525 26.3263 19.3894 26.3263 19.3894C25.9013 19.3388 25.5895 19.3336 25.1117 19.3161C25.1557 19.2601 25.2336 19.0333 25.1383 18.9511C25.1134 18.9305 25.0764 18.9189 25.025 18.9228H25.0234C25.0226 18.9228 25.0207 18.9229 25.02 18.9228C25.0196 18.9227 25.0187 18.9212 25.0183 18.9211C25.017 18.9206 25.0146 18.9203 25.0133 18.9195C25.0102 18.9171 25.0074 18.9143 25.005 18.9111C25.0044 18.9104 25.0022 18.9086 25.0017 18.9078C24.9775 18.8726 24.9643 18.7864 24.9483 18.7645L24.9467 18.7629L24.945 18.7612C24.9439 18.7606 24.9428 18.76 24.9417 18.7596H24.94C24.9398 18.7596 24.9385 18.7595 24.9384 18.7596L24.9384 18.7595ZM25.165 19.9642C25.1656 19.9639 25.1661 19.9644 25.1667 19.9642C25.6536 19.9879 26.1111 19.9688 26.598 19.9925C26.6752 20.0581 26.6366 20.2084 26.5863 20.2358C26.5836 20.2371 26.5809 20.2382 26.578 20.2391C26.5762 20.2395 26.5732 20.2391 26.5713 20.2391C26.5695 20.2391 26.5665 20.2395 26.5647 20.2391C26.4063 20.2351 26.3148 20.2314 26.1565 20.2275C26.1563 20.2196 26.1552 20.2117 26.1531 20.2041C26.1156 20.0929 25.8438 20.1003 25.7799 20.1875L25.7766 20.1924C25.7755 20.1942 25.7741 20.1973 25.7732 20.1991C25.7722 20.2014 25.7706 20.2051 25.7699 20.2075C25.7689 20.2107 25.7687 20.2156 25.7682 20.2191C25.7678 20.2231 25.7662 20.2282 25.7666 20.2324C25.5528 20.2581 25.3604 20.2253 25.1467 20.2175C25.084 20.1394 25.0913 19.9981 25.165 19.9642V19.9642Z" fill="white"/>
</g>
<defs>
<clipPath id="clip0_144_974">
<rect width="39.99" height="26.66" fill="white" transform="translate(0.00500488 0.440063)"/>
</clipPath>
</defs>
</svg>
