<svg width="64" height="64" viewBox="0 0 64 64" fill="none" xmlns="http://www.w3.org/2000/svg">
<path d="M33.024 16.896C35.168 16.896 36.896 15.2 36.896 13.088C36.896 10.976 35.168 9.28003 33.024 9.28003C30.88 9.28003 29.152 10.976 29.152 13.088C29.152 15.168 30.88 16.896 33.024 16.896ZM24.992 33.024C24.992 30.912 23.264 29.216 21.12 29.216C18.976 29.216 17.248 30.912 17.248 33.024C17.248 35.136 18.976 36.832 21.12 36.832C23.232 36.832 24.992 35.136 24.992 33.024Z" fill="#FF6A00"/>
<path d="M48.96 23.04C45.664 23.04 43.008 20.416 43.008 17.184C43.008 13.952 45.664 11.328 48.96 11.328C52.256 11.328 54.912 13.952 54.912 17.184C54.912 20.416 52.224 23.04 48.96 23.04ZM38.688 45.632C38.688 48.8639 36.032 51.4879 32.736 51.4879C29.44 51.4879 26.784 48.8639 26.784 45.632C26.784 42.4 29.44 39.776 32.736 39.776C36 39.7439 38.688 42.4 38.688 45.632ZM16.768 23.3279C13.472 23.3279 10.816 20.704 10.816 17.472C10.816 14.24 13.472 11.616 16.768 11.616C20.064 11.616 22.72 14.24 22.72 17.472C22.752 20.704 20.064 23.3279 16.768 23.3279ZM48.96 7.19995C43.36 7.19995 38.848 11.648 38.848 17.184C38.848 18.72 39.232 20.16 39.872 21.472L32.896 25.952L26.016 21.536C26.592 20.256 26.912 18.88 26.912 17.472C26.912 11.968 22.368 7.48795 16.8 7.48795C11.2 7.48795 6.68799 11.936 6.68799 17.472C6.68799 23.008 11.2 27.424 16.8 27.424C19.744 27.424 22.368 26.176 24.224 24.192L31.104 28.608V35.776C26.304 36.544 22.624 40.6399 22.624 45.5999C22.624 51.104 27.168 55.584 32.736 55.584C38.304 55.584 42.848 51.1359 42.848 45.5999C42.848 40.6399 39.168 36.576 34.368 35.776V28.832L41.696 24.128C43.616 26.08 46.208 27.1679 48.96 27.1679C54.56 27.1679 59.072 22.72 59.072 17.184C59.072 11.648 54.528 7.19995 48.96 7.19995Z" fill="#FF6A00"/>
<path d="M44.0319 29.792C41.8879 29.792 40.1599 31.488 40.1599 33.6C40.1599 35.712 41.8879 37.408 44.0319 37.408C46.1759 37.408 47.9039 35.712 47.9039 33.6C47.9039 31.488 46.1759 29.792 44.0319 29.792Z" fill="#FF6A00"/>
</svg>
