<svg width="21" height="21" viewBox="0 0 21 21" fill="none" xmlns="http://www.w3.org/2000/svg">
<path d="M10.5001 18.8333C5.89758 18.8333 2.16675 15.1025 2.16675 10.5C2.16675 5.89746 5.89758 2.16663 10.5001 2.16663C15.1026 2.16663 18.8334 5.89746 18.8334 10.5C18.8334 15.1025 15.1026 18.8333 10.5001 18.8333ZM10.5001 17.1666C12.2682 17.1666 13.9639 16.4642 15.2141 15.214C16.4644 13.9638 17.1667 12.2681 17.1667 10.5C17.1667 8.73185 16.4644 7.03616 15.2141 5.78591C13.9639 4.53567 12.2682 3.83329 10.5001 3.83329C8.73197 3.83329 7.03628 4.53567 5.78604 5.78591C4.53579 7.03616 3.83341 8.73185 3.83341 10.5C3.83341 12.2681 4.53579 13.9638 5.78604 15.214C7.03628 16.4642 8.73197 17.1666 10.5001 17.1666ZM9.66925 13.8333L6.13341 10.2975L7.31175 9.11913L9.66925 11.4766L14.3826 6.76246L15.5617 7.94079L9.66925 13.8333Z" fill="#FF8000"/>
</svg>
