<svg width="16" height="16" viewBox="0 0 16 16" fill="none" xmlns="http://www.w3.org/2000/svg">
<path d="M7.58659 1.34619C7.09534 1.80394 6.70133 2.35594 6.42805 2.96927C6.15477 3.5826 6.00782 4.24469 5.99598 4.91604C5.98413 5.58739 6.10763 6.25425 6.3591 6.87684C6.61057 7.49943 6.98487 8.06499 7.45966 8.53978C7.93445 9.01457 8.50001 9.38887 9.1226 9.64034C9.74519 9.89182 10.4121 10.0153 11.0834 10.0035C11.7548 9.99162 12.4168 9.84468 13.0302 9.5714C13.6435 9.29812 14.1955 8.9041 14.6533 8.41286C14.4413 11.9029 11.5439 14.6669 8.00059 14.6669C4.31792 14.6669 1.33325 11.6822 1.33325 8.00019C1.33325 4.45686 4.09725 1.55952 7.58659 1.34619Z" fill="white"/>
</svg>
