<svg width="64" height="62" viewBox="0 0 64 62" fill="none" xmlns="http://www.w3.org/2000/svg">
<path opacity="0.18" d="M26.5442 1.58547C31.4719 0.11725 37.1469 0.787745 41.1992 3.95745C44.8829 6.84442 46.854 11.3602 49.9126 14.9065C52.8965 18.3701 56.8801 20.8642 59.8307 24.3571C62.7813 27.8499 64.5615 33.0523 62.2057 36.9703C60.4789 39.8411 56.7781 41.6607 56.4398 44.993C56.3388 46.0401 56.5984 47.0903 56.5963 48.1425C56.5862 52.4139 52.23 55.4917 48.0233 56.2329C43.8165 56.974 39.4755 56.1693 35.2344 56.656C31.4982 57.0841 27.9266 58.5029 24.1944 58.9936C20.4623 59.4844 16.2172 58.8139 13.8452 55.8916C12.0518 53.6822 11.6812 50.6407 10.2625 48.1778C7.28867 43.0108 -0.23926 40.0945 0.00712716 34.1419C0.188888 29.823 4.53297 27.0572 6.89081 23.4382C9.80403 18.9588 9.95247 13.6019 13.9431 9.84852C17.4622 6.53139 21.8235 2.99109 26.5442 1.58547Z" fill="#68E1FD"/>
<path opacity="0.57" d="M10.9411 34.4146C9.56978 35.1648 8.19951 36.1312 7.60172 37.5742C6.75552 39.623 7.76126 42.0435 9.36277 43.5773C12.5557 46.6349 17.4279 46.9096 21.8487 46.9177C28.5052 46.9305 35.1583 46.739 41.8081 46.3431C43.8398 46.2219 45.9017 46.0755 47.8183 45.3869C50.4437 44.4427 52.6037 42.5524 54.6757 40.6843C55.7047 39.7573 56.764 38.7738 57.2436 37.4752C58.2009 34.8861 56.5216 32.0446 54.4708 30.1977C51.2041 27.2795 46.9668 25.6841 42.5866 25.7234C42.3968 26.3292 43.0602 26.8341 43.6348 27.0997C45.4686 27.9459 47.4356 28.5295 49.1391 29.6161C50.8426 30.7026 52.3018 32.4556 52.328 34.4751C52.3644 37.1753 49.9298 39.2373 47.5194 40.4541C41.9303 43.2754 35.4788 43.7914 29.2181 43.8318C25.4405 43.8591 21.5751 43.7157 18.0489 42.3575C17.3037 42.0707 16.504 41.6507 16.2606 40.8893C16.0798 40.3268 16.2556 39.7119 16.5009 39.1727C16.8957 38.324 17.4598 37.565 18.1585 36.9423C18.8573 36.3196 19.676 35.8463 20.5643 35.5516C21.776 35.1567 23.1322 35.0861 24.1561 34.3287C24.9639 33.7309 25.492 32.2466 24.5913 31.5518C23.7744 30.9217 21.3802 31.4054 20.4512 31.4953C17.117 31.8184 13.8823 32.8113 10.9411 34.4146Z" fill="white"/>
<path d="M6.13959 3.00009L19.8797 8.53976C20.0864 8.62325 20.2634 8.76657 20.3881 8.95134C20.5128 9.13611 20.5794 9.35391 20.5795 9.57681V33.0179C20.5795 33.2031 20.5336 33.3854 20.4457 33.5484C20.3579 33.7115 20.2309 33.8501 20.0763 33.9519C19.9216 34.0538 19.744 34.1155 19.5595 34.1318C19.3751 34.148 19.1894 34.1181 19.0194 34.0448L4.98339 28.0094C4.78128 27.9214 4.6097 27.7756 4.49022 27.5904C4.37074 27.4051 4.30869 27.1887 4.31188 26.9683L4.60371 4.023C4.60595 3.84124 4.65249 3.66276 4.73928 3.50303C4.82608 3.34331 4.95052 3.20717 5.10182 3.1064C5.25312 3.00564 5.42671 2.94329 5.60754 2.92476C5.78838 2.90624 5.971 2.9321 6.13959 3.00009Z" fill="#68E1FD"/>
<path d="M5.24396 3.3537L18.977 8.89337C19.1848 8.9758 19.3631 9.11851 19.4891 9.30315C19.615 9.48778 19.6829 9.70589 19.6838 9.92941V33.3715C19.6836 33.5566 19.6375 33.7388 19.5496 33.9016C19.4617 34.0645 19.3348 34.2031 19.1802 34.3048C19.0256 34.4066 18.8481 34.4684 18.6637 34.4848C18.4794 34.5011 18.2938 34.4715 18.1237 34.3984L4.08776 28.362C3.88487 28.2745 3.71238 28.129 3.59199 27.9438C3.4716 27.7585 3.4087 27.5418 3.4112 27.3209L3.70303 4.3756C3.70511 4.19328 3.75175 4.01424 3.83889 3.85409C3.92604 3.69393 4.05103 3.55752 4.20298 3.45675C4.35494 3.35598 4.52923 3.29391 4.71067 3.27594C4.89212 3.25798 5.0752 3.28468 5.24396 3.3537Z" fill="#68E1FD"/>
<path d="M49.6743 2.91538L63.2458 8.3884C63.4676 8.47767 63.6578 8.631 63.7922 8.82883C63.9265 9.02666 63.9989 9.26003 64.0001 9.49916V32.7544C64.0007 32.9542 63.9517 33.151 63.8574 33.3272C63.763 33.5033 63.6264 33.6532 63.4597 33.7633C63.2931 33.8735 63.1016 33.9405 62.9026 33.9583C62.7036 33.9761 62.5033 33.9441 62.3198 33.8652L48.4625 27.9004C48.2438 27.8063 48.0579 27.6495 47.9281 27.4499C47.7984 27.2502 47.7306 27.0166 47.7335 26.7786L48.0233 4.01806C48.0262 3.82276 48.0764 3.63108 48.1698 3.45951C48.2631 3.28794 48.3968 3.14162 48.5592 3.03314C48.7216 2.92466 48.908 2.85726 49.1022 2.83675C49.2965 2.81623 49.4928 2.84322 49.6743 2.91538Z" fill="#68E1FD"/>
<path d="M48.8665 3.40215L62.4299 8.87315C62.6527 8.96281 62.8435 9.11707 62.978 9.31609C63.1124 9.51512 63.1842 9.7498 63.1842 9.98997V33.2412C63.1848 33.441 63.1358 33.6378 63.0415 33.8139C62.9471 33.99 62.8105 34.1399 62.6438 34.2501C62.4772 34.3603 62.2857 34.4273 62.0867 34.4451C61.8877 34.4628 61.6874 34.4308 61.5039 34.352L47.6456 28.3943C47.4269 28.3002 47.2411 28.1434 47.1115 27.9437C46.9819 27.7441 46.9144 27.5104 46.9176 27.2724L47.2064 4.5119C47.2075 4.31486 47.257 4.1211 47.3503 3.94758C47.4437 3.77407 47.5782 3.62608 47.742 3.51657C47.9058 3.40706 48.094 3.33937 48.29 3.31943C48.486 3.29948 48.684 3.32788 48.8665 3.40215Z" fill="#68E1FD"/>
<path d="M5.24396 3.3537L18.977 8.89337C19.1848 8.9758 19.3631 9.11851 19.4891 9.30315C19.615 9.48778 19.6829 9.70589 19.6838 9.92941V33.3715C19.6836 33.5566 19.6375 33.7388 19.5496 33.9016C19.4617 34.0645 19.3348 34.2031 19.1802 34.3048C19.0256 34.4066 18.8481 34.4684 18.6637 34.4848C18.4794 34.5011 18.2938 34.4715 18.1237 34.3984L4.08776 28.362C3.88487 28.2745 3.71238 28.129 3.59199 27.9438C3.4716 27.7585 3.4087 27.5418 3.4112 27.3209L3.70303 4.3756C3.70511 4.19328 3.75175 4.01424 3.83889 3.85409C3.92604 3.69393 4.05103 3.55752 4.20298 3.45675C4.35494 3.35598 4.52923 3.29391 4.71067 3.27594C4.89212 3.25798 5.0752 3.28468 5.24396 3.3537Z" fill="url(#paint0_linear_144_465)"/>
<path d="M48.8665 3.40215L62.4299 8.87315C62.6527 8.96281 62.8435 9.11707 62.978 9.31609C63.1124 9.51512 63.1842 9.7498 63.1842 9.98997V33.2412C63.1848 33.441 63.1358 33.6378 63.0415 33.8139C62.9471 33.99 62.8105 34.1399 62.6438 34.2501C62.4772 34.3603 62.2857 34.4273 62.0867 34.4451C61.8877 34.4628 61.6874 34.4308 61.5039 34.352L47.6456 28.3943C47.4269 28.3002 47.2411 28.1434 47.1115 27.9437C46.9819 27.7441 46.9144 27.5104 46.9176 27.2724L47.2064 4.5119C47.2075 4.31486 47.257 4.1211 47.3503 3.94758C47.4437 3.77407 47.5782 3.62608 47.742 3.51657C47.9058 3.40706 48.094 3.33937 48.29 3.31943C48.486 3.29948 48.684 3.32788 48.8665 3.40215Z" fill="url(#paint1_linear_144_465)"/>
<path d="M44.1133 29.9916L41.3869 30.1996L41.0658 28.5638C40.8416 28.072 41.3869 30.1996 39.9046 38.2223L39.0503 38.0284L30.04 35.9867L32.2262 24.4751L28.4163 24.2177L29.0605 20.637L30.9559 20.7985C30.9559 20.7985 34.3619 20.4431 36.8984 20.7985C39.435 21.154 41.2243 21.2438 42.427 22.4818C43.6296 23.7198 44.1133 29.9916 44.1133 29.9916Z" fill="#68E1FD"/>
<path d="M41.0659 28.5638C40.8417 28.072 41.387 30.1996 39.9047 38.2224L39.0504 38.0285L38.1537 37.8265C38.1537 37.8265 39.0999 35.605 38.5687 35.2011C38.0376 34.7972 35.4253 35.7757 33.0846 35.9877C30.7439 36.1998 31.0418 35.5464 31.0418 35.5464C31.0418 35.5464 33.1825 33.5996 36.8067 32.5443C40.4308 31.4891 40.6024 26.0535 40.6024 26.0535L41.0659 28.5638Z" fill="url(#paint2_linear_144_465)"/>
<path d="M35.4849 21.3308C35.4849 21.3308 37.771 21.4257 38.6233 20.7441L39.3372 21.142C39.3372 21.142 39.1423 22.5092 38.0245 22.691C36.9066 22.8728 35.4828 22.8112 35.4849 21.3308Z" fill="#68E1FD"/>
<path d="M35.4849 21.3308C35.4849 21.3308 37.771 21.4257 38.6233 20.7441L39.3372 21.142C39.3372 21.142 39.1423 22.5092 38.0245 22.691C36.9066 22.8728 35.4828 22.8112 35.4849 21.3308Z" fill="url(#paint3_linear_144_465)"/>
<path d="M33.4804 32.8725L31.1326 32.0879C31.1326 32.0879 30.8559 32.2707 31.2669 32.5736C31.4411 32.7057 31.6077 32.8476 31.7657 32.9987L33.4804 32.8725Z" fill="url(#paint4_linear_144_465)"/>
<path d="M35.6463 20.3564C35.6978 19.9525 35.718 19.5051 35.9775 19.186C36.1379 19.0129 36.3298 18.8721 36.543 18.771L38.2526 17.8218C38.4606 17.7067 38.6868 17.5876 38.9221 17.6199C38.9792 17.6247 39.0339 17.6458 39.0796 17.6805C39.1937 17.7744 39.1755 17.9521 39.1472 18.0985C38.9736 18.9811 38.7989 19.8636 38.6232 20.7462C38.5846 20.9965 38.513 21.2407 38.4101 21.4722C38.2688 21.7331 38.0571 21.9492 37.7992 22.0959C37.5413 22.2426 37.2475 22.3141 36.951 22.3022C36.4663 22.2747 36.0109 22.0613 35.6797 21.7065C35.2959 21.3036 35.5837 20.8562 35.6463 20.3564Z" fill="url(#paint5_linear_144_465)"/>
<path d="M41.2102 33.6501C41.5436 33.6026 41.8659 33.4966 42.1624 33.3371C42.7542 33.02 43.7024 32.4546 43.8871 32.0042C44.1588 31.3387 44.1133 29.9917 44.1133 29.9917L41.3869 30.1997C41.3869 30.1997 41.4102 31.0611 41.185 31.0914C40.9598 31.1216 33.7197 32.9342 33.7197 32.9342C33.7197 32.9342 32.5998 32.5717 31.6173 32.9494C30.6348 33.327 29.1867 34.2055 29.5553 34.666C29.6115 34.734 29.6818 34.789 29.7613 34.8274C29.8407 34.8657 29.9276 34.8864 30.0158 34.8881C30.3349 34.8982 30.2097 35.2708 30.4015 35.4122C30.658 35.601 33.2067 35.7959 34.0791 34.8902C34.3023 34.6599 39.5855 33.8844 41.2102 33.6501Z" fill="url(#paint6_linear_144_465)"/>
<path d="M29.0607 20.6361L28.6083 23.1454C28.1723 22.8325 27.7144 22.5514 27.238 22.3043C26.4363 21.8882 24.5631 16.6495 24.5631 16.6495C24.5631 16.6495 24.3662 15.7134 23.7775 15.3953C23.1888 15.0773 23.2181 14.0493 23.2181 13.7161C23.2181 13.3839 22.9152 12.8709 22.6193 12.4639C22.3234 12.057 22.6193 11.8439 22.6193 11.8439C22.6193 11.8439 23.3837 12.569 23.3978 12.4791C23.412 12.3892 23.0161 11.3966 22.792 11.1472C22.5678 10.8978 22.5809 10.4848 22.7021 10.4242C22.8233 10.3636 24.0148 11.9197 24.0148 11.9197C23.9775 11.5292 23.8804 11.1467 23.727 10.7857C23.4857 10.2576 23.5463 9.66785 23.727 9.75873C23.9078 9.84961 24.6641 11.5763 24.6641 11.2461C24.6641 10.9159 24.0582 9.21547 24.5429 9.39622C24.7237 9.46388 24.9206 9.81427 25.1175 10.3515C25.4457 11.2512 25.7708 12.674 26.0061 14.1735C26.3848 16.5616 29.0607 20.6361 29.0607 20.6361Z" fill="url(#paint7_linear_144_465)"/>
<path d="M25.3941 12.6437C25.3941 12.6437 24.8812 12.05 24.5025 12.1277C24.1238 12.2055 24.5782 12.8245 24.5782 12.8245C24.5782 12.8245 24.8953 13.3687 24.7448 13.7464C24.5944 14.1241 24.4884 14.9703 24.5328 15.0005C24.5772 15.0308 24.2006 15.3792 23.7926 14.4876C23.6591 14.1919 23.4635 13.9285 23.2191 13.7151C23.2191 13.3829 22.9161 12.8699 22.6203 12.463C22.3244 12.056 22.6203 11.843 22.6203 11.843C22.6203 11.843 23.3847 12.568 23.3988 12.4781C23.4129 12.3882 23.0171 11.3956 22.7929 11.1462C22.5688 10.8968 22.5819 10.4838 22.7031 10.4232C22.8242 10.3626 24.0158 11.9187 24.0158 11.9187C23.9785 11.5282 23.8814 11.1457 23.728 10.7847C23.4867 10.2566 23.5472 9.66688 23.728 9.75776C23.9087 9.84864 24.6651 11.5754 24.6651 11.2452C24.6651 10.915 24.0592 9.2145 24.5439 9.39525C24.7247 9.4629 24.9216 9.8133 25.1185 10.3505C25.1225 10.3505 25.4396 11.9783 25.3941 12.6437Z" fill="url(#paint8_linear_144_465)"/>
<path d="M43.5852 55.3555L39.9046 57.891C39.3522 56.8227 41.3869 54.8112 41.3869 54.8112C41.3869 54.8112 38.2566 49.8784 37.0358 46.5825C36.1058 44.0822 35.7231 41.4881 34.2639 41.5093C33.8005 41.5164 33.2289 41.787 32.4958 42.408C29.4523 44.983 30.4106 53.7277 30.4106 53.7277L29.5018 54.2427L25.8494 56.3026L25.6949 55.4231C25.5495 53.452 28.2254 52.5159 28.2254 52.5159C28.2254 52.5159 27.9134 48.2274 28.2254 43.9328C28.5375 39.6382 30.043 35.9868 30.043 35.9868L38.1567 37.8256L39.3401 38.0932C39.2735 46.5108 43.5146 55.2191 43.5842 55.3534L43.5852 55.3555Z" fill="#3F3D56"/>
<path d="M39.959 15.8465C39.9062 16.1872 39.8171 16.5213 39.6935 16.8432C39.727 16.8412 39.7604 16.8486 39.7898 16.8647C39.8193 16.8808 39.8436 16.9048 39.8601 16.9341C40.0519 17.2542 39.6036 18.3256 39.0179 18.2044C38.6918 18.7466 38.3192 19.2758 37.8133 19.6554C36.6803 20.5057 34.9313 20.3896 33.9216 19.4C33.1773 18.6719 32.8593 17.5904 32.8653 16.5493C32.8724 15.3376 33.1985 13.412 33.9619 12.4173C34.7253 11.4227 36.3541 11.8054 37.3558 12.1477C38.1303 12.4123 38.9119 12.7748 39.4138 13.421C39.9358 14.0936 40.0812 15.0044 39.959 15.8465Z" fill="url(#paint9_linear_144_465)"/>
<path d="M33.0845 11.1149C33.3208 10.7917 33.2218 10.3464 33.2521 9.94754C33.2884 9.47396 33.5894 8.97714 34.0599 8.90141C34.2568 8.8691 34.4578 8.91353 34.6577 8.91151C35.0616 8.91151 35.4413 8.70955 35.822 8.56717C36.2027 8.42479 36.648 8.33189 37.0055 8.52678C37.2266 8.64695 37.3811 8.86001 37.5699 9.03167C37.8564 9.27983 38.2191 9.42238 38.5979 9.43559C38.9008 9.44568 39.2098 9.36995 39.5168 9.36793C39.8238 9.36591 40.162 9.45881 40.3246 9.71731C40.5033 9.99299 40.4317 10.3545 40.4922 10.6776C40.5377 10.9169 40.7235 11.0654 40.9325 11.1926C41.1415 11.3198 41.3738 11.4259 41.5192 11.6218C41.5951 11.7377 41.6444 11.869 41.6634 12.0062C41.6825 12.1435 41.6708 12.2833 41.6293 12.4155C41.5447 12.6789 41.4156 12.9258 41.2476 13.1455C41.1466 13.294 41.0325 13.4606 41.0597 13.6393C41.0951 13.8776 41.3495 14.0069 41.502 14.1927C41.5667 14.2808 41.6118 14.3818 41.6342 14.4888C41.6566 14.5958 41.6558 14.7064 41.6319 14.813C41.6079 14.9197 41.5614 15.02 41.4955 15.1072C41.4296 15.1944 41.3457 15.2665 41.2496 15.3186C41.1244 15.3771 40.981 15.4024 40.876 15.4923C40.6286 15.7063 40.7326 16.1567 40.4862 16.3718C40.2842 16.5515 39.9338 16.4435 39.7662 16.2264C39.5986 16.0093 39.2118 15.4569 39.1725 15.1853C39.1018 14.747 39.3431 14.5511 39.0412 14.226C38.6878 13.8473 38.1495 13.7211 37.6699 13.5292C37.0772 13.2879 36.3491 13.3374 35.7624 13.0819C35.2444 12.8557 34.4921 12.6275 33.967 12.4175C33.4419 12.2074 33.3945 11.5864 33.0845 11.1149Z" fill="#3F3D56"/>
<path d="M39.2876 15.0923L40.6003 15.9072C40.6003 15.9072 40.2125 17.0008 39.9035 17.1189L38.2939 16.4252L39.2876 15.0923Z" fill="#68E1FD"/>
<path d="M39.2876 15.0923L40.6003 15.9072C40.6003 15.9072 40.2125 17.0008 39.9035 17.1189L38.2939 16.4252L39.2876 15.0923Z" fill="url(#paint10_linear_144_465)"/>
<path d="M33.1653 11.1472C33.1653 11.1472 31.4265 11.1775 31.0013 11.7824C30.5762 12.3872 30.1663 14.3927 30.1663 14.3927L36.1058 17.0029C36.1058 17.0029 36.8914 17.3463 37.571 16.8606C38.2506 16.3749 39.4239 15.98 39.3755 15.361C39.327 14.742 39.8077 14.1089 38.8403 13.6262C37.8729 13.1436 33.8065 12.4751 33.1653 11.1472Z" fill="#68E1FD"/>
<path d="M33.1653 11.1472C33.1653 11.1472 31.4265 11.1775 31.0013 11.7824C30.5762 12.3872 30.1663 14.3927 30.1663 14.3927L36.1058 17.0029C36.1058 17.0029 36.8914 17.3463 37.571 16.8606C38.2506 16.3749 39.4239 15.98 39.3755 15.361C39.327 14.742 39.8077 14.1089 38.8403 13.6262C37.8729 13.1436 33.8065 12.4751 33.1653 11.1472Z" fill="url(#paint11_linear_144_465)"/>
<path d="M31.0013 11.7822C31.0013 11.7822 36.9217 13.9634 37.1711 14.1724C37.4205 14.3814 37.0347 15.9223 36.6722 16.6696C36.3097 17.4168 35.6867 17.1199 35.6867 17.1199L30.3177 15.0155C30.3177 15.0155 29.9693 14.7894 30.3177 13.6109C30.666 12.4325 30.8569 12.0609 31.0013 11.7822Z" fill="#68E1FD"/>
<path d="M31.0013 11.7822C31.0013 11.7822 36.9217 13.9634 37.1711 14.1724C37.4205 14.3814 37.0347 15.9223 36.6722 16.6696C36.3097 17.4168 35.6867 17.1199 35.6867 17.1199L30.3177 15.0155C30.3177 15.0155 29.9693 14.7894 30.3177 13.6109C30.666 12.4325 30.8569 12.0609 31.0013 11.7822Z" fill="url(#paint12_linear_144_465)"/>
<path d="M30.0845 13.1101C30.1309 12.9465 30.4026 12.789 30.5621 12.8486C31.8496 13.3302 36.8318 15.2872 37.3822 15.2872C38.0133 15.2872 39.3795 15.0095 39.3795 15.0095C39.4076 15.1249 39.4076 15.2455 39.3795 15.3609C39.328 15.4972 37.7306 16.1182 37.0389 16.0031C36.433 15.9021 31.4638 14.1986 30.2814 13.7543C30.141 13.7018 30.0108 13.3747 30.0512 13.2293L30.0845 13.1101Z" fill="#68E1FD"/>
<path d="M30.0845 13.1101C30.1309 12.9465 30.4026 12.789 30.5621 12.8486C31.8496 13.3302 36.8318 15.2872 37.3822 15.2872C38.0133 15.2872 39.3795 15.0095 39.3795 15.0095C39.4076 15.1249 39.4076 15.2455 39.3795 15.3609C39.328 15.4972 37.7306 16.1182 37.0389 16.0031C36.433 15.9021 31.4638 14.1986 30.2814 13.7543C30.141 13.7018 30.0108 13.3747 30.0512 13.2293L30.0845 13.1101Z" fill="url(#paint13_linear_144_465)"/>
<path d="M28.6081 23.1453H31.1608C31.3218 23.1451 31.4807 23.1806 31.6263 23.2492C31.7719 23.3177 31.9005 23.4177 32.0029 23.5418C32.1053 23.6659 32.179 23.8112 32.2186 23.9671C32.2583 24.1231 32.2629 24.2859 32.2322 24.4438L32.2262 24.4772L28.4163 24.2197L28.6081 23.1453Z" fill="url(#paint14_linear_144_465)"/>
<path d="M43.5842 55.3532C38.3262 49.8227 38.1536 37.8254 38.1536 37.8254L39.337 38.093C39.2734 46.5106 43.5145 55.2189 43.5842 55.3532Z" fill="#25233A"/>
<path d="M34.2639 41.5092C33.8004 41.5163 33.2289 41.7869 32.4958 42.4079C29.4523 44.9828 30.4106 53.7275 30.4106 53.7275L29.5018 54.2425C28.7404 49.6601 28.6939 45.72 31.0336 42.5775C31.9555 41.3304 34.1235 41.494 34.2639 41.5092Z" fill="#25233A"/>
<path opacity="0.19" d="M16.2031 54.3426C15.8669 54.9798 15.7427 55.7644 15.1933 56.2309C14.644 56.6974 13.7615 56.7257 13.2747 57.277C12.6689 57.9657 13.0576 59.129 13.814 59.646C14.5703 60.163 15.5407 60.2135 16.4556 60.2458L41.3023 61.1334C43.034 61.195 44.9203 61.2101 46.2987 60.161C47.984 58.8796 48.2173 56.0885 46.7632 54.5476C47.5013 54.485 48.2698 54.4113 48.9029 54.0255C49.536 53.6398 49.9813 52.839 49.7178 52.1463C49.3836 51.2708 48.2385 51.0972 47.3014 51.08C41.0872 50.9659 35.1527 52.3321 29.0051 52.6472C25.6214 52.8188 18.2005 50.5569 16.2031 54.3426Z" fill="url(#paint15_linear_144_465)"/>
<path opacity="0.57" d="M23.1171 25.1195C23.5291 26.7463 25.4396 27.4107 27.0684 27.7955C31.1621 28.7618 34.5236 28.5407 38.6587 27.7672C40.5167 27.4198 43.3723 27.3138 45.6191 27.9358C45.8211 27.9934 46.3381 26.2364 46.2088 26.0647C46.1189 25.9456 44.4104 25.7486 44.264 25.7214C42.9725 25.4871 39.7513 25.574 38.4466 25.7214C35.3072 26.0788 31.6589 22.0791 30.5017 25.0054C30.332 25.4356 22.7768 23.7715 23.1171 25.1195Z" fill="white"/>
<defs>
<linearGradient id="paint0_linear_144_465" x1="15.9557" y1="59.4612" x2="11.2683" y2="16.0446" gradientUnits="userSpaceOnUse">
<stop offset="0.01"/>
<stop offset="0.99" stop-opacity="0"/>
</linearGradient>
<linearGradient id="paint1_linear_144_465" x1="58.3726" y1="49.3977" x2="53.6841" y2="5.98113" gradientUnits="userSpaceOnUse">
<stop offset="0.01"/>
<stop offset="0.99" stop-opacity="0"/>
</linearGradient>
<linearGradient id="paint2_linear_144_465" x1="44.1851" y1="35.0436" x2="28.174" y2="27.139" gradientUnits="userSpaceOnUse">
<stop offset="0.01"/>
<stop offset="0.15" stop-opacity="0.48"/>
<stop offset="0.99" stop-opacity="0"/>
</linearGradient>
<linearGradient id="paint3_linear_144_465" x1="41.4759" y1="22.5143" x2="35.0355" y2="21.2006" gradientUnits="userSpaceOnUse">
<stop offset="0.01"/>
<stop offset="0.99" stop-opacity="0"/>
</linearGradient>
<linearGradient id="paint4_linear_144_465" x1="32.2464" y1="32.5403" x2="31.9293" y2="32.8685" gradientUnits="userSpaceOnUse">
<stop stop-color="#ECC4D7"/>
<stop offset="0.42" stop-color="#EFD4D1"/>
<stop offset="1" stop-color="#F2EAC9"/>
</linearGradient>
<linearGradient id="paint5_linear_144_465" x1="37.466" y1="19.803" x2="38.7272" y2="21.447" gradientUnits="userSpaceOnUse">
<stop stop-color="#ECC4D7"/>
<stop offset="0.83" stop-color="#F2EAC9"/>
</linearGradient>
<linearGradient id="paint6_linear_144_465" x1="29.4978" y1="32.7817" x2="44.1164" y2="32.7817" gradientUnits="userSpaceOnUse">
<stop stop-color="#ECC4D7"/>
<stop offset="0.42" stop-color="#EFD4D1"/>
<stop offset="1" stop-color="#F2EAC9"/>
</linearGradient>
<linearGradient id="paint7_linear_144_465" x1="22.488" y1="16.2638" x2="29.0607" y2="16.2638" gradientUnits="userSpaceOnUse">
<stop stop-color="#ECC4D7"/>
<stop offset="0.42" stop-color="#EFD4D1"/>
<stop offset="1" stop-color="#F2EAC9"/>
</linearGradient>
<linearGradient id="paint8_linear_144_465" x1="22.488" y1="12.2368" x2="25.3992" y2="12.2368" gradientUnits="userSpaceOnUse">
<stop stop-color="#ECC4D7"/>
<stop offset="0.42" stop-color="#EFD4D1"/>
<stop offset="1" stop-color="#F2EAC9"/>
</linearGradient>
<linearGradient id="paint9_linear_144_465" x1="39.6248" y1="13.7371" x2="32.8512" y2="17.8106" gradientUnits="userSpaceOnUse">
<stop stop-color="#ECC4D7"/>
<stop offset="0.83" stop-color="#F2EAC9"/>
</linearGradient>
<linearGradient id="paint10_linear_144_465" x1="39.9116" y1="15.2882" x2="39.2108" y2="16.6908" gradientUnits="userSpaceOnUse">
<stop offset="0.01"/>
<stop offset="0.99" stop-opacity="0"/>
</linearGradient>
<linearGradient id="paint11_linear_144_465" x1="29.6937" y1="15.0278" x2="43.1521" y2="12.6801" gradientUnits="userSpaceOnUse">
<stop offset="0.01"/>
<stop offset="0.99" stop-opacity="0"/>
</linearGradient>
<linearGradient id="paint12_linear_144_465" x1="32.8694" y1="16.7887" x2="34.7163" y2="11.8115" gradientUnits="userSpaceOnUse">
<stop offset="0.01"/>
<stop offset="0.99" stop-opacity="0"/>
</linearGradient>
<linearGradient id="paint13_linear_144_465" x1="34.8446" y1="13.7301" x2="34.3609" y2="15.7921" gradientUnits="userSpaceOnUse">
<stop offset="0.01"/>
<stop offset="0.99" stop-opacity="0"/>
</linearGradient>
<linearGradient id="paint14_linear_144_465" x1="30.9114" y1="26.3927" x2="29.8855" y2="22.4202" gradientUnits="userSpaceOnUse">
<stop offset="0.01"/>
<stop offset="0.99" stop-opacity="0"/>
</linearGradient>
<linearGradient id="paint15_linear_144_465" x1="12.9819" y1="56.1148" x2="49.7986" y2="56.1148" gradientUnits="userSpaceOnUse">
<stop stop-color="#183866"/>
<stop offset="1" stop-color="#1A7FC1"/>
</linearGradient>
</defs>
</svg>
