<svg width="40" height="28" viewBox="0 0 40 28" fill="none" xmlns="http://www.w3.org/2000/svg">
<path d="M2.24215 0.043335H37.7504C38.9574 0.043335 39.9403 1.02626 39.9403 2.23324V13.92H0.0522461V2.23324C0.0522461 1.02626 1.03517 0.043335 2.24215 0.043335Z" fill="white"/>
<path d="M0.0522461 13.9199H39.9476V25.6067C39.9476 26.8136 38.9646 27.7966 37.7577 27.7966H2.24215C1.03517 27.7966 0.0522461 26.8064 0.0522461 25.6067V13.9199Z" fill="#D52B1E"/>
<path d="M0.0522461 9.29443H39.9476V18.5455H0.0522461V9.29443Z" fill="#0039A6"/>
<path d="M2.24215 0.043335H37.7504C38.9574 0.043335 39.9403 1.02626 39.9403 2.23324V25.5995C39.9403 26.8064 38.9574 27.7894 37.7504 27.7894H2.24215C1.03517 27.7894 0.0522461 26.7992 0.0522461 25.5995V2.23324C0.0522461 1.02626 1.03517 0.043335 2.24215 0.043335Z" stroke="#CCCCCC" stroke-width="0.0866567" stroke-miterlimit="2.6131"/>
</svg>
