<svg width="40" height="29" viewBox="0 0 40 29" fill="none" xmlns="http://www.w3.org/2000/svg">
<path d="M2.20435 0.890015H37.7884C38.998 0.890015 39.983 1.87495 39.983 3.0844V26.4984C39.983 27.7078 38.998 28.6928 37.7884 28.6928H2.20435C0.994792 28.7 0.00976562 27.7151 0.00976562 26.5056V3.0844C0.00976562 1.87495 0.994792 0.890015 2.20435 0.890015Z" fill="#B22234"/>
<path d="M0.0242513 2.86731H39.983C39.9902 2.93973 39.9975 3.01215 39.9975 3.09182V5.22102H0.00976562V3.08458C0.00976562 3.01215 0.0170085 2.93973 0.0242513 2.86731ZM39.9902 7.16917V9.51564H0.00976562V7.16917H39.9902ZM39.9902 11.471V13.8175H0.00976562V11.471H39.9902ZM39.9902 15.7729V18.1194H0.00976562V15.7729H39.9902ZM39.9902 20.0747V22.4212H0.00976562V20.0747H39.9902ZM39.9902 24.3766V26.4986C39.9902 26.571 39.983 26.6507 39.9757 26.7231H0.0242513C0.0170085 26.6579 0.00976562 26.5782 0.00976562 26.5058V24.3838H39.9902V24.3766Z" fill="white"/>
<path d="M15.0749 0.890015V15.8669H0.00976562V3.0844C0.00976562 1.87495 0.994792 0.890015 2.20435 0.890015H15.0749Z" fill="#3C3B6E"/>
<path d="M0.900594 2.96143L1.40035 4.51864L0.0821533 3.55534H1.71903L0.393595 4.51864L0.900594 2.96143Z" fill="white"/>
<path d="M0.900594 5.974L1.40035 7.53121L0.0821533 6.56791H1.71903L0.393595 7.53121L0.900594 5.974Z" fill="white"/>
<path d="M0.900594 8.98682L1.40035 10.544L0.0821533 9.58073H1.71903L0.393595 10.544L0.900594 8.98682Z" fill="white"/>
<path d="M0.900594 11.9995L1.40035 13.5567L0.0821533 12.5934H1.71903L0.393595 13.5567L0.900594 11.9995Z" fill="white"/>
<path d="M2.66793 1.45496L3.17493 3.01217L1.84949 2.04887H3.49361L2.16093 3.01217L2.66793 1.45496Z" fill="white"/>
<path d="M2.66793 4.46765L3.17493 6.02486L1.84949 5.06156H3.49361L2.16093 6.02486L2.66793 4.46765Z" fill="white"/>
<path d="M2.66793 7.48035L3.17493 9.03756L1.84949 8.07426H3.49361L2.16093 9.03756L2.66793 7.48035Z" fill="white"/>
<path d="M2.66793 10.4932L3.17493 12.0504L1.84949 11.0871H3.49361L2.16093 12.0504L2.66793 10.4932Z" fill="white"/>
<path d="M2.66793 13.5059L3.17493 15.0631L1.84949 14.0998H3.49361L2.16093 15.0631L2.66793 13.5059Z" fill="white"/>
<path d="M4.44234 2.96143L4.94934 4.51864L3.6239 3.55534H5.26078L3.93534 4.51864L4.44234 2.96143Z" fill="white"/>
<path d="M4.44234 5.974L4.94934 7.53121L3.6239 6.56791H5.26078L3.93534 7.53121L4.44234 5.974Z" fill="white"/>
<path d="M4.44234 8.98682L4.94934 10.544L3.6239 9.58073H5.26078L3.93534 10.544L4.44234 8.98682Z" fill="white"/>
<path d="M4.44234 11.9995L4.94934 13.5567L3.6239 12.5934H5.26078L3.93534 13.5567L4.44234 11.9995Z" fill="white"/>
<path d="M6.21688 1.45496L6.71663 3.01217L5.39844 2.04887H7.03532L5.70988 3.01217L6.21688 1.45496Z" fill="white"/>
<path d="M6.21688 4.46765L6.71663 6.02486L5.39844 5.06156H7.03532L5.70988 6.02486L6.21688 4.46765Z" fill="white"/>
<path d="M6.21688 7.48035L6.71663 9.03756L5.39844 8.07426H7.03532L5.70988 9.03756L6.21688 7.48035Z" fill="white"/>
<path d="M6.21688 10.4932L6.71663 12.0504L5.39844 11.0871H7.03532L5.70988 12.0504L6.21688 10.4932Z" fill="white"/>
<path d="M6.21688 13.5059L6.71663 15.0631L5.39844 14.0998H7.03532L5.70988 15.0631L6.21688 13.5059Z" fill="white"/>
<path d="M7.98409 2.96143L8.49109 4.51864L7.16565 3.55534H8.80253L7.47709 4.51864L7.98409 2.96143Z" fill="white"/>
<path d="M7.98409 5.974L8.49109 7.53121L7.16565 6.56791H8.80253L7.47709 7.53121L7.98409 5.974Z" fill="white"/>
<path d="M7.98409 8.98682L8.49109 10.544L7.16565 9.58073H8.80253L7.47709 10.544L7.98409 8.98682Z" fill="white"/>
<path d="M7.98409 11.9995L8.49109 13.5567L7.16565 12.5934H8.80253L7.47709 13.5567L7.98409 11.9995Z" fill="white"/>
<path d="M9.75863 1.45496L10.2656 3.01217L8.94019 2.04887H10.5771L9.25163 3.01217L9.75863 1.45496Z" fill="white"/>
<path d="M9.75863 4.46765L10.2656 6.02486L8.94019 5.06156H10.5771L9.25163 6.02486L9.75863 4.46765Z" fill="white"/>
<path d="M9.75863 7.48035L10.2656 9.03756L8.94019 8.07426H10.5771L9.25163 9.03756L9.75863 7.48035Z" fill="white"/>
<path d="M9.75863 10.4932L10.2656 12.0504L8.94019 11.0871H10.5771L9.25163 12.0504L9.75863 10.4932Z" fill="white"/>
<path d="M9.75863 13.5059L10.2656 15.0631L8.94019 14.0998H10.5771L9.25163 15.0631L9.75863 13.5059Z" fill="white"/>
<path d="M11.5258 2.96143L12.0328 4.51864L10.7074 3.55534H12.3443L11.0261 4.51864L11.5258 2.96143Z" fill="white"/>
<path d="M11.5258 5.974L12.0328 7.53121L10.7074 6.56791H12.3443L11.0261 7.53121L11.5258 5.974Z" fill="white"/>
<path d="M11.5258 8.98682L12.0328 10.544L10.7074 9.58073H12.3443L11.0261 10.544L11.5258 8.98682Z" fill="white"/>
<path d="M11.5258 11.9995L12.0328 13.5567L10.7074 12.5934H12.3443L11.0261 13.5567L11.5258 11.9995Z" fill="white"/>
<path d="M13.3004 1.45496L13.8074 3.01217L12.4819 2.04887H14.1188L12.7934 3.01217L13.3004 1.45496Z" fill="white"/>
<path d="M13.3004 4.46765L13.8074 6.02486L12.4819 5.06156H14.1188L12.7934 6.02486L13.3004 4.46765Z" fill="white"/>
<path d="M13.3004 7.48035L13.8074 9.03756L12.4819 8.07426H14.1188L12.7934 9.03756L13.3004 7.48035Z" fill="white"/>
<path d="M13.3004 10.4932L13.8074 12.0504L12.4819 11.0871H14.1188L12.7934 12.0504L13.3004 10.4932Z" fill="white"/>
<path d="M13.3004 13.5059L13.8074 15.0631L12.4819 14.0998H14.1188L12.7934 15.0631L13.3004 13.5059Z" fill="white"/>
</svg>
