<svg width="44" height="21" viewBox="0 0 44 21" fill="none" xmlns="http://www.w3.org/2000/svg">
<path d="M31.6561 2.19995C31.603 2.19995 31.5521 2.17887 31.5146 2.14137C31.4771 2.10386 31.4561 2.05299 31.4561 1.99995V0.743945C31.4561 0.690902 31.4771 0.640031 31.5146 0.602524C31.5521 0.565017 31.603 0.543945 31.6561 0.543945C31.7091 0.543945 31.76 0.565017 31.7975 0.602524C31.835 0.640031 31.8561 0.690902 31.8561 0.743945V1.99995C31.8561 2.05299 31.835 2.10386 31.7975 2.14137C31.76 2.17887 31.7091 2.19995 31.6561 2.19995Z" fill="#DFEAEF"/>
<path d="M31.6561 4.3999C31.603 4.3999 31.5521 4.37883 31.5146 4.34132C31.4771 4.30381 31.4561 4.25294 31.4561 4.1999V2.9439C31.4561 2.89085 31.4771 2.83998 31.5146 2.80247C31.5521 2.76497 31.603 2.7439 31.6561 2.7439C31.7091 2.7439 31.76 2.76497 31.7975 2.80247C31.835 2.83998 31.8561 2.89085 31.8561 2.9439V4.1999C31.8561 4.25294 31.835 4.30381 31.7975 4.34132C31.76 4.37883 31.7091 4.3999 31.6561 4.3999Z" fill="#DFEAEF"/>
<path d="M33.3798 2.66587H32.1238C32.0708 2.66587 32.0199 2.6448 31.9824 2.60729C31.9449 2.56978 31.9238 2.51891 31.9238 2.46587C31.9238 2.41283 31.9449 2.36195 31.9824 2.32445C32.0199 2.28694 32.0708 2.26587 32.1238 2.26587H33.3798C33.4329 2.26587 33.4837 2.28694 33.5213 2.32445C33.5588 2.36195 33.5798 2.41283 33.5798 2.46587C33.5798 2.51891 33.5588 2.56978 33.5213 2.60729C33.4837 2.6448 33.4329 2.66587 33.3798 2.66587Z" fill="#DFEAEF"/>
<path d="M31.1879 2.66587H29.9319C29.8789 2.66587 29.828 2.6448 29.7905 2.60729C29.753 2.56978 29.7319 2.51891 29.7319 2.46587C29.7319 2.41283 29.753 2.36195 29.7905 2.32445C29.828 2.28694 29.8789 2.26587 29.9319 2.26587H31.1879C31.241 2.26587 31.2918 2.28694 31.3294 2.32445C31.3669 2.36195 31.3879 2.41283 31.3879 2.46587C31.3879 2.51891 31.3669 2.56978 31.3294 2.60729C31.2918 2.6448 31.241 2.66587 31.1879 2.66587Z" fill="#DFEAEF"/>
<path d="M2.56182 8.0599C2.50877 8.0599 2.4579 8.03883 2.42039 8.00132C2.38289 7.96382 2.36182 7.91295 2.36182 7.8599V6.5999C2.36182 6.54686 2.38289 6.49599 2.42039 6.45848C2.4579 6.42097 2.50877 6.3999 2.56182 6.3999C2.61486 6.3999 2.66573 6.42097 2.70324 6.45848C2.74075 6.49599 2.76182 6.54686 2.76182 6.5999V7.8559C2.76235 7.8825 2.75757 7.90894 2.74776 7.93367C2.73794 7.9584 2.7233 7.98092 2.70467 7.99992C2.68605 8.01892 2.66382 8.03401 2.63929 8.04431C2.61476 8.05461 2.58842 8.05991 2.56182 8.0599Z" fill="#DFEAEF"/>
<path d="M2.56182 10.2519C2.50877 10.2519 2.4579 10.2308 2.42039 10.1933C2.38289 10.1558 2.36182 10.1049 2.36182 10.0519V8.79985C2.36182 8.74681 2.38289 8.69594 2.42039 8.65843C2.4579 8.62092 2.50877 8.59985 2.56182 8.59985C2.61486 8.59985 2.66573 8.62092 2.70324 8.65843C2.74075 8.69594 2.76182 8.74681 2.76182 8.79985V10.0559C2.76077 10.1082 2.73924 10.158 2.70184 10.1947C2.66445 10.2313 2.61417 10.2519 2.56182 10.2519Z" fill="#DFEAEF"/>
<path d="M4.28583 8.52793H3.02983C2.97679 8.52793 2.92592 8.50686 2.88841 8.46935C2.85091 8.43184 2.82983 8.38097 2.82983 8.32793C2.82983 8.27489 2.85091 8.22402 2.88841 8.18651C2.92592 8.149 2.97679 8.12793 3.02983 8.12793H4.28583C4.33888 8.12793 4.38975 8.149 4.42726 8.18651C4.46476 8.22402 4.48583 8.27489 4.48583 8.32793C4.48583 8.38097 4.46476 8.43184 4.42726 8.46935C4.38975 8.50686 4.33888 8.52793 4.28583 8.52793Z" fill="#DFEAEF"/>
<path d="M2.09394 8.52793H0.837939C0.784896 8.52793 0.734025 8.50686 0.696518 8.46935C0.659011 8.43184 0.637939 8.38097 0.637939 8.32793C0.637939 8.27489 0.659011 8.22402 0.696518 8.18651C0.734025 8.149 0.784896 8.12793 0.837939 8.12793H2.09394C2.14698 8.12793 2.19785 8.149 2.23536 8.18651C2.27287 8.22402 2.29394 8.27489 2.29394 8.32793C2.29394 8.38097 2.27287 8.43184 2.23536 8.46935C2.19785 8.50686 2.14698 8.52793 2.09394 8.52793Z" fill="#DFEAEF"/>
<path d="M41.482 8.0599C41.4289 8.0599 41.3781 8.03883 41.3406 8.00132C41.3031 7.96382 41.282 7.91295 41.282 7.8599V6.5999C41.282 6.54686 41.3031 6.49599 41.3406 6.45848C41.3781 6.42097 41.4289 6.3999 41.482 6.3999C41.535 6.3999 41.5859 6.42097 41.6234 6.45848C41.6609 6.49599 41.682 6.54686 41.682 6.5999V7.8559C41.6825 7.8825 41.6777 7.90894 41.6679 7.93367C41.6581 7.9584 41.6435 7.98092 41.6248 7.99992C41.6062 8.01892 41.584 8.03401 41.5595 8.04431C41.5349 8.05461 41.5086 8.05991 41.482 8.0599Z" fill="#DFEAEF"/>
<path d="M41.482 10.2519C41.4289 10.2519 41.3781 10.2308 41.3406 10.1933C41.3031 10.1558 41.282 10.1049 41.282 10.0519V8.79985C41.282 8.74681 41.3031 8.69594 41.3406 8.65843C41.3781 8.62092 41.4289 8.59985 41.482 8.59985C41.535 8.59985 41.5859 8.62092 41.6234 8.65843C41.6609 8.69594 41.682 8.74681 41.682 8.79985V10.0559C41.6809 10.1082 41.6594 10.158 41.622 10.1947C41.5846 10.2313 41.5343 10.2519 41.482 10.2519Z" fill="#DFEAEF"/>
<path d="M43.1999 8.52793H41.9439C41.8909 8.52793 41.84 8.50686 41.8025 8.46935C41.765 8.43184 41.7439 8.38097 41.7439 8.32793C41.7439 8.27489 41.765 8.22402 41.8025 8.18651C41.84 8.149 41.8909 8.12793 41.9439 8.12793H43.1999C43.2529 8.12793 43.3038 8.149 43.3413 8.18651C43.3788 8.22402 43.3999 8.27489 43.3999 8.32793C43.3999 8.38097 43.3788 8.43184 43.3413 8.46935C43.3038 8.50686 43.2529 8.52793 43.1999 8.52793Z" fill="#DFEAEF"/>
<path d="M41.0139 8.52793H39.7579C39.7048 8.52793 39.6539 8.50686 39.6164 8.46935C39.5789 8.43184 39.5579 8.38097 39.5579 8.32793C39.5579 8.27489 39.5789 8.22402 39.6164 8.18651C39.6539 8.149 39.7048 8.12793 39.7579 8.12793H41.0139C41.0669 8.12793 41.1178 8.149 41.1553 8.18651C41.1928 8.22402 41.2139 8.27489 41.2139 8.32793C41.2139 8.38097 41.1928 8.43184 41.1553 8.46935C41.1178 8.50686 41.0669 8.52793 41.0139 8.52793Z" fill="#DFEAEF"/>
<path d="M40.3539 20.706H31.5679C31.5149 20.706 31.464 20.685 31.4265 20.6475C31.389 20.61 31.3679 20.5591 31.3679 20.506V16C31.3679 15.947 31.389 15.8961 31.4265 15.8586C31.464 15.8211 31.5149 15.8 31.5679 15.8H40.3539C40.407 15.8 40.4578 15.8211 40.4953 15.8586C40.5329 15.8961 40.5539 15.947 40.5539 16V20.502C40.5545 20.5286 40.5497 20.5551 40.5399 20.5798C40.53 20.6045 40.5154 20.6271 40.4968 20.6461C40.4782 20.6651 40.4559 20.6802 40.4314 20.6905C40.4069 20.7008 40.3805 20.7061 40.3539 20.706ZM31.7679 20.306H40.1539V16.2H31.7679V20.306Z" fill="#DFEAEF"/>
<path d="M6.35393 18.2718C5.90554 18.2718 5.4672 18.1389 5.09432 17.8899C4.72143 17.6409 4.43074 17.2869 4.25896 16.8727C4.08719 16.4585 4.04204 16.0027 4.12923 15.5628C4.21641 15.123 4.43202 14.7189 4.74881 14.4015C5.06559 14.0842 5.46934 13.8679 5.90902 13.7799C6.34871 13.6919 6.8046 13.7363 7.21909 13.9073C7.63359 14.0784 7.98807 14.3685 8.23776 14.7409C8.48746 15.1133 8.62114 15.5514 8.62194 15.9998C8.6222 16.2979 8.56374 16.5932 8.44991 16.8687C8.33607 17.1442 8.16909 17.3946 7.95848 17.6056C7.74788 17.8165 7.49778 17.984 7.22248 18.0983C6.94717 18.2126 6.65204 18.2716 6.35393 18.2718ZM6.35393 14.1358C5.98448 14.1358 5.62332 14.2454 5.31613 14.4507C5.00894 14.6559 4.76951 14.9477 4.62813 15.289C4.48674 15.6303 4.44975 16.0059 4.52183 16.3683C4.59391 16.7306 4.77181 17.0635 5.03306 17.3247C5.2943 17.586 5.62715 17.7639 5.98951 17.8359C6.35186 17.908 6.72746 17.871 7.06879 17.7296C7.41012 17.5883 7.70186 17.3488 7.90712 17.0416C8.11238 16.7345 8.22194 16.3733 8.22194 16.0038C8.22141 15.5086 8.02443 15.0338 7.67423 14.6835C7.32402 14.3333 6.8492 14.1364 6.35393 14.1358Z" fill="#DFEAEF"/>
</svg>
