<svg width="40" height="28" viewBox="0 0 40 28" fill="none" xmlns="http://www.w3.org/2000/svg">
<path d="M2.36518 27.6206H37.6276C38.8263 27.6206 39.8024 26.6373 39.8024 25.4458V2.23419C39.8024 1.03557 38.8263 0.0594482 37.6276 0.0594482H2.36518C1.16655 0.0594482 0.19043 1.03557 0.19043 2.23419V25.4387C0.19043 26.6445 1.16655 27.6206 2.36518 27.6206Z" fill="#FEFEFE" stroke="#CCCCCC" stroke-width="0.358869" stroke-miterlimit="2.6131"/>
<path d="M9.01148 10.6533L12.8298 4.91858M7.576 9.69872L11.4015 3.96399M6.14771 8.74412L9.97325 3.0094" stroke="#252422" stroke-width="1.14852"/>
<path d="M30.0339 24.6706L33.8595 18.9359M28.5984 23.716L32.424 17.9813M27.163 22.7615L30.9885 17.0267" stroke="#252422" stroke-width="1.14852"/>
<path d="M28.1248 19.2517L32.8977 22.4385" stroke="#FEFEFE" stroke-width="0.574118"/>
<path d="M14.2652 10.0216C16.3754 6.85637 20.6531 6.00226 23.8183 8.11241C26.9836 10.2226 27.8377 14.5003 25.7275 17.6655C23.6174 20.8307 19.3396 21.6848 16.1744 19.5747C13.0092 17.4645 12.1551 13.1868 14.2652 10.0216Z" fill="#C62631"/>
<path d="M14.2652 10.0216C13.2102 11.6078 13.6408 13.7467 15.2198 14.8017C16.806 15.8568 18.9449 15.4262 20 13.8471C21.055 12.2609 23.1939 11.8375 24.7801 12.8926C26.3663 13.9476 26.7898 16.0865 25.7347 17.6727C23.6245 20.8379 19.3468 21.692 16.1816 19.5819C13.0092 17.4645 12.1551 13.1868 14.2652 10.0216Z" fill="#303C70"/>
<path d="M12.8298 22.7615L9.01145 17.0267M11.4015 23.716L7.57598 17.9813M9.96605 24.6706L6.1405 18.9359" stroke="#252422" stroke-width="1.14852"/>
<path d="M33.8523 8.74412L30.0267 3.0094M32.424 9.69872L28.5984 3.96399M30.9885 10.6533L27.163 4.91858" stroke="#252422" stroke-width="1.14852"/>
<path d="M31.2254 6.35401L32.6608 5.39941M28.1247 8.42827L29.7971 7.31577M8.77454 21.326L10.21 20.3714" stroke="#FEFEFE" stroke-width="0.574118"/>
</svg>
