<svg width="40" height="28" viewBox="0 0 40 28" fill="none" xmlns="http://www.w3.org/2000/svg">
<path d="M2.08846 27.89H37.9115C39.0631 27.8248 39.9902 26.8616 39.9902 25.6956V2.27434C39.9902 1.07214 39.0124 0.0871982 37.8101 0.0799561H2.18986C0.987549 0.0871982 0.00976562 1.07214 0.00976562 2.27434V25.6883C0.00976562 26.8616 0.936849 27.8248 2.08846 27.89Z" fill="#B22234"/>
<path d="M17.2043 16.7587V27.89H22.7668V16.7587H39.9902V11.1967H22.7668V0.0799561H17.2043V11.1967H0.00976562V16.7587H17.2043Z" fill="white"/>
<path d="M24.621 9.0828V0.0799561H37.8247C38.7373 0.0944417 39.5195 0.666626 39.8382 1.47058L24.621 9.0828Z" fill="#3C3B6E"/>
<path d="M24.621 18.8879V27.8908H37.9116C38.788 27.8401 39.5267 27.2751 39.8382 26.5002L24.621 18.8879Z" fill="#3C3B6E"/>
<path d="M15.3501 18.8879V27.8908H2.08846C1.21208 27.8401 0.466064 27.2751 0.161865 26.4857L15.3501 18.8879Z" fill="#3C3B6E"/>
<path d="M15.3501 9.0828V0.0799561H2.17537C1.26278 0.0944417 0.473307 0.673869 0.161865 1.48507L15.3501 9.0828Z" fill="#3C3B6E"/>
<path d="M0.00976562 9.35018H5.55054L0.00976562 6.57617V9.35018Z" fill="#3C3B6E"/>
<path d="M39.9903 9.35026H34.4205L39.9903 6.56177V9.35026Z" fill="#3C3B6E"/>
<path d="M39.9903 18.62H34.4205L39.9903 21.4085V18.62Z" fill="#3C3B6E"/>
<path d="M0.00976562 18.62H5.55054L0.00976562 21.394V18.62Z" fill="#3C3B6E"/>
<path d="M39.9902 2.43384L26.1926 9.35075H29.2781L39.9902 3.99105V2.43384Z" fill="white"/>
<path d="M13.7784 18.62H10.693L0.00976562 23.9652V25.5224L13.8074 18.62H13.7784Z" fill="white"/>
<path d="M7.62923 9.35763H10.7147L0.00976562 3.99792V5.54789L7.62923 9.35763Z" fill="white"/>
<path d="M32.3346 18.6127H29.2491L39.9903 23.9941V22.4441L32.3346 18.6127Z" fill="white"/>
</svg>
