<svg width="40" height="29" viewBox="0 0 40 29" fill="none" xmlns="http://www.w3.org/2000/svg">
<path d="M37.7941 0.984985H2.20598C0.996534 0.984985 0.0115967 1.96992 0.0115967 3.17937V26.5934C0.0115967 27.8028 0.996534 28.7877 2.20598 28.7877H37.7868C38.9963 28.7877 39.9812 27.7956 39.9812 26.5934V3.17937C39.9885 1.96992 38.9963 0.984985 37.7941 0.984985Z" fill="#00008B"/>
<path d="M11.6498 17.5985L12.3812 19.887L14.6336 19.0325L13.301 21.0458L15.3723 22.2697L12.9751 22.4797L13.3082 24.8697L11.6498 23.1171L9.98407 24.8697L10.3172 22.4797L7.92004 22.2697L9.99131 21.0458L8.65875 19.0325L10.9111 19.887L11.6498 17.5985Z" fill="white"/>
<path d="M31.2688 21.7266L31.6165 22.8129L32.6883 22.4073L32.0582 23.3633L33.0432 23.9499L31.8989 24.0513L32.0582 25.1883L31.2688 24.3555L30.4794 25.1883L30.6315 24.0513L29.4945 23.9499L30.4794 23.3633L29.8421 22.4073L30.914 22.8129L31.2688 21.7266Z" fill="white"/>
<path d="M31.2688 4.72925L31.6165 5.81558L32.6883 5.41001L32.0582 6.36598L33.0432 6.9526L31.8989 7.05399L32.0582 8.19101L31.2688 7.35816L30.4794 8.19101L30.6315 7.05399L29.4945 6.9526L30.4794 6.36598L29.8421 5.41001L30.914 5.81558L31.2688 4.72925Z" fill="white"/>
<path d="M26.2646 11.631L26.6194 12.7246L27.6913 12.319L27.054 13.275L28.0389 13.8616L26.9019 13.9557L27.054 15.0927L26.2646 14.2599L25.4752 15.0927L25.6345 13.9557L24.4902 13.8616L25.4752 13.275L24.8451 12.319L25.9169 12.7246L26.2646 11.631Z" fill="white"/>
<path d="M36.9323 9.92908L37.2872 11.0226L38.359 10.6171L37.7217 11.5731L38.7066 12.1597L37.5696 12.2611L37.7217 13.3908L36.9323 12.5652L36.1429 13.3908L36.3022 12.2611L35.158 12.1597L36.1429 11.5731L35.5128 10.6171L36.5847 11.0226L36.9323 9.92908Z" fill="white"/>
<path d="M33.8181 15.0493L34.0933 15.7301L34.8248 15.7808L34.2671 16.2515L34.4409 16.9685L33.8181 16.5847L33.1953 16.9685L33.3691 16.2515L32.8042 15.7808L33.5429 15.7301L33.8181 15.0493Z" fill="white"/>
<path d="M0.178167 2.33927L20.1811 12.3407H22.7231V11.0734L2.5536 0.984985H2.20598C1.30071 0.984985 0.511308 1.54263 0.178167 2.33927ZM22.7231 0.984985V2.25237L2.5536 12.3407H0.0115967V11.0734L20.1811 0.984985H22.7231Z" fill="white"/>
<path d="M9.47714 0.984985V12.3407H13.2648V0.984985H9.47714ZM0.0115967 4.77265V8.56031H22.7231V4.77265H0.0115967Z" fill="white"/>
<path d="M0.0115967 5.52584V7.79988H22.7231V5.52584H0.0115967ZM10.2303 0.984985V12.3407H12.5044V0.984985H10.2303Z" fill="#FF0000"/>
<path d="M0.0115967 12.3407L7.57968 8.55307H9.27435L1.70627 12.3407H0.0115967ZM0.359222 2.00613C0.504065 1.78163 0.68512 1.58609 0.895144 1.42676L7.58692 4.77265H5.89225L0.359222 2.00613ZM13.4603 4.77265L21.0284 0.984985H22.7231L15.1478 4.77265H13.4603ZM22.7231 12.3407L15.1478 8.55307H16.8424L22.7159 11.4934V12.3407H22.7231Z" fill="#FF0000"/>
</svg>
