<svg width="8" height="8" viewBox="0 0 8 8" fill="none" xmlns="http://www.w3.org/2000/svg">
<path d="M7.31006 5.90012V7.18612H4.89006C4.98499 7.03154 5.03486 6.85352 5.03406 6.67212C5.03406 6.40691 4.9287 6.15255 4.74117 5.96501C4.55363 5.77748 4.29927 5.67212 4.03406 5.67212C3.76884 5.67212 3.51449 5.77748 3.32695 5.96501C3.13941 6.15255 3.03406 6.40691 3.03406 6.67212C3.03255 6.85334 3.08173 7.03138 3.17606 7.18612H0.758057V5.90012C0.758057 5.22212 2.30806 4.92812 2.30806 4.92812L2.53606 1.12812C2.55297 0.949342 2.6359 0.783281 2.76866 0.662355C2.90142 0.541429 3.07448 0.474318 3.25406 0.474121H4.81406C4.99364 0.474318 5.16669 0.541429 5.29945 0.662355C5.43221 0.783281 5.51515 0.949342 5.53206 1.12812L5.76006 4.92812C5.76006 4.92812 7.31006 5.22212 7.31006 5.90012Z" fill="#FFBC0E"/>
</svg>
