<svg width="3" height="4" viewBox="0 0 3 4" fill="none" xmlns="http://www.w3.org/2000/svg">
<path d="M1.35597 3.35808C1.18395 3.35759 1.01796 3.29467 0.888838 3.181C0.759721 3.06734 0.676261 2.91066 0.653972 2.74008L0.437972 1.06808C0.428693 0.890006 0.486953 0.714987 0.601109 0.577998C0.715265 0.441009 0.876909 0.35214 1.05374 0.329152C1.23057 0.306164 1.40956 0.350751 1.55495 0.453999C1.70034 0.557248 1.80141 0.711552 1.83797 0.886082L2.05397 2.55808C2.06675 2.65808 2.05809 2.75966 2.02856 2.85606C1.99903 2.95245 1.94931 3.04145 1.8827 3.11713C1.8161 3.19281 1.73415 3.25344 1.64229 3.29499C1.55044 3.33654 1.45079 3.35804 1.34997 3.35808H1.35597ZM1.14197 0.668083H1.10197C1.02097 0.679042 0.947584 0.721546 0.897768 0.786345C0.847951 0.851143 0.82574 0.932994 0.83597 1.01409L1.05197 2.68608C1.06379 2.76508 1.10527 2.8366 1.16797 2.88608C1.21659 2.92335 1.27515 2.94537 1.33628 2.94938C1.3974 2.95339 1.45834 2.9392 1.51141 2.9086C1.56447 2.878 1.60729 2.83237 1.63444 2.77746C1.66159 2.72255 1.67187 2.66083 1.66397 2.60008L1.44797 0.930083C1.43654 0.85712 1.39943 0.79064 1.34333 0.742607C1.28723 0.694574 1.21583 0.668145 1.14197 0.668083Z" fill="#093F68"/>
</svg>
