<svg width="5" height="7" viewBox="0 0 5 7" fill="none" xmlns="http://www.w3.org/2000/svg">
<path d="M1.63807 6.78603C1.52366 6.78604 1.411 6.75802 1.30994 6.7044C1.20888 6.65079 1.1225 6.57322 1.05835 6.47849C0.994214 6.38376 0.954269 6.27475 0.942015 6.16101C0.929762 6.04727 0.945574 5.93225 0.988066 5.82603L3.06807 0.644032C3.10234 0.558673 3.15309 0.480902 3.21742 0.415157C3.28176 0.349412 3.35841 0.296979 3.443 0.260857C3.5276 0.224735 3.61848 0.205631 3.71045 0.204631C3.80243 0.203632 3.8937 0.220756 3.97906 0.255031C4.06442 0.289306 4.1422 0.340059 4.20795 0.40439C4.27369 0.468722 4.32612 0.545373 4.36224 0.629967C4.39836 0.714561 4.41747 0.805442 4.41847 0.89742C4.41947 0.989398 4.40234 1.08067 4.36807 1.16603L2.28807 6.34803C2.23579 6.47756 2.14595 6.58848 2.03012 6.66654C1.91428 6.74459 1.77775 6.78621 1.63807 6.78603Z" fill="#093F68"/>
</svg>
