<svg width="33" height="14" viewBox="0 0 33 14" fill="none" xmlns="http://www.w3.org/2000/svg">
<path d="M29.24 3.334C28.406 5.81 28.112 7.066 26.874 7.218C25.636 7.37 21.874 2.218 21.656 1.974C21.642 1.954 21.626 1.93401 21.614 1.91401C21.278 1.57761 20.8789 1.31082 20.4396 1.12892C20.0003 0.947028 19.5294 0.853606 19.054 0.854005H14.458C13.911 0.853982 13.3712 0.978182 12.8792 1.21724C12.3872 1.45629 11.956 1.80396 11.618 2.234C11.618 2.234 9.04397 7.162 6.69597 7.162C5.21197 7.162 4.43397 3.92401 4.30797 2.45401L0.719971 2.746C0.963971 5.72 2.49397 10.756 6.68997 10.762C8.32397 10.762 9.70197 10.104 11.29 9.18201V13.96H21.704V8.644C24.256 10.114 26.184 11.56 28.18 10.806C31.258 9.642 32.748 4.64801 32.748 4.64801L29.24 3.334Z" fill="#68E1FD"/>
</svg>
