<svg width="6" height="8" viewBox="0 0 6 8" fill="none" xmlns="http://www.w3.org/2000/svg">
<path d="M3.12211 7.52788C3.10021 7.52795 3.0785 7.52388 3.05811 7.51589L0.326112 6.56788C0.276574 6.55099 0.235631 6.51535 0.212074 6.46861C0.188517 6.42187 0.184224 6.36775 0.200111 6.31788L1.94011 0.935884C1.94734 0.909299 1.95998 0.884494 1.97724 0.863023C1.9945 0.841551 2.016 0.823878 2.04041 0.811109C2.06482 0.798341 2.09161 0.790754 2.11909 0.788822C2.14657 0.786891 2.17415 0.790656 2.20011 0.799885L4.95011 1.68988C5.0003 1.70668 5.04239 1.74164 5.06811 1.78789C5.08022 1.81148 5.08752 1.83724 5.08958 1.86368C5.09164 1.89012 5.08842 1.9167 5.08011 1.94189L3.32211 7.38189C3.31388 7.40738 3.30061 7.43097 3.28309 7.45124C3.26557 7.47151 3.24415 7.48805 3.22011 7.49989C3.19041 7.51752 3.15664 7.52717 3.12211 7.52788ZM0.642109 6.25389L3.00011 7.07189L4.63411 2.01389L2.26411 1.24789L0.642109 6.25389Z" fill="#093F68"/>
</svg>
