<svg width="4" height="3" viewBox="0 0 4 3" fill="none" xmlns="http://www.w3.org/2000/svg">
<path d="M2.44792 2.15009C2.38435 2.15031 2.32106 2.14156 2.25992 2.12409L0.633928 1.67609C0.452785 1.62597 0.298971 1.50593 0.206328 1.3424C0.113685 1.17887 0.089802 0.985236 0.139928 0.804093C0.190054 0.622951 0.310082 0.469139 0.473613 0.376496C0.637145 0.283853 0.830782 0.259967 1.01193 0.310093L2.63592 0.758091C2.81148 0.794253 2.96679 0.895658 3.07051 1.04184C3.17423 1.18803 3.21865 1.36811 3.19479 1.54576C3.17094 1.72341 3.08059 1.8854 2.94197 1.99904C2.80336 2.11269 2.6268 2.16953 2.44792 2.15809V2.15009ZM0.739928 1.29009L2.36592 1.73809C2.44549 1.75984 2.53044 1.74909 2.60207 1.70821C2.67371 1.66732 2.72618 1.59966 2.74792 1.52009C2.76967 1.44053 2.75892 1.35558 2.71804 1.28394C2.67716 1.2123 2.60949 1.15984 2.52992 1.13809L0.905925 0.690092C0.82636 0.668079 0.741308 0.678574 0.669481 0.71927C0.597655 0.759965 0.544937 0.827528 0.522924 0.907093C0.500911 0.986658 0.511409 1.07171 0.552104 1.14353C0.5928 1.21536 0.660363 1.26808 0.739928 1.29009Z" fill="#093F68"/>
</svg>
