<svg width="4" height="3" viewBox="0 0 4 3" fill="none" xmlns="http://www.w3.org/2000/svg">
<path d="M3.17796 2.13199C3.11379 2.13122 3.04997 2.12248 2.98795 2.10599L1.36395 1.65799C1.18268 1.60775 1.02874 1.48763 0.935952 1.32399C0.844069 1.16041 0.820468 0.967172 0.870278 0.786284C0.920087 0.605396 1.03928 0.451479 1.20195 0.357992C1.28264 0.311549 1.37176 0.281619 1.46412 0.269945C1.55648 0.258271 1.65025 0.265086 1.73996 0.289992L3.36595 0.737993C3.50081 0.775626 3.62154 0.852292 3.71295 0.958352C3.80435 1.06441 3.86236 1.19513 3.87967 1.33407C3.89699 1.47301 3.87284 1.61396 3.81026 1.73921C3.74767 1.86446 3.64946 1.96841 3.52796 2.03799C3.42108 2.09833 3.30068 2.13066 3.17796 2.13199ZM1.55195 0.663994C1.49842 0.663992 1.44589 0.678505 1.39995 0.705993C1.36443 0.725672 1.3332 0.752269 1.30813 0.784215C1.28305 0.816162 1.26463 0.852811 1.25395 0.891994C1.24333 0.931056 1.24051 0.971828 1.24566 1.01198C1.25081 1.05213 1.26382 1.09087 1.28396 1.12599C1.30363 1.16152 1.33023 1.19274 1.36218 1.21782C1.39412 1.24289 1.43077 1.26132 1.46995 1.27199L3.09395 1.71999C3.13329 1.73112 3.17446 1.73419 3.21501 1.72904C3.25556 1.72388 3.29465 1.7106 3.32995 1.68999C3.36525 1.67029 3.3962 1.64366 3.42094 1.6117C3.44569 1.57973 3.46372 1.5431 3.47395 1.50399C3.49601 1.42537 3.48594 1.3412 3.44596 1.26999C3.40535 1.19895 3.33861 1.14656 3.25995 1.12399L1.63396 0.675994C1.60737 0.667949 1.57973 0.663905 1.55195 0.663994Z" fill="#093F68"/>
</svg>
