<svg width="3" height="7" viewBox="0 0 3 7" fill="none" xmlns="http://www.w3.org/2000/svg">
<path d="M2.08011 6.95202C1.92333 6.95201 1.7711 6.89938 1.64781 6.80256C1.52451 6.70573 1.43728 6.57032 1.40011 6.41802L0.066107 1.00002C0.0218159 0.819674 0.0509815 0.629119 0.147188 0.470275C0.243394 0.311432 0.398759 0.197312 0.579106 0.153021C0.759453 0.10873 0.95001 0.137897 1.10885 0.234103C1.2677 0.330309 1.38181 0.485674 1.42611 0.666021L2.76011 6.08802C2.80417 6.26862 2.7748 6.45932 2.67844 6.6183C2.58208 6.77727 2.4266 6.89153 2.24611 6.93602C2.19148 6.94712 2.13585 6.95248 2.08011 6.95202Z" fill="#093F68"/>
</svg>
