<svg width="33" height="15" viewBox="0 0 33 15" fill="none" xmlns="http://www.w3.org/2000/svg">
<path d="M21.712 14.16H11.298C11.2449 14.16 11.1941 14.1389 11.1566 14.1014C11.1191 14.0639 11.098 14.013 11.098 13.96V9.53197C9.52199 10.422 8.20799 10.966 6.69799 10.966C2.34599 10.966 0.76799 5.80797 0.51999 2.76597C0.515556 2.71321 0.532225 2.66084 0.566342 2.62035C0.600459 2.57986 0.649241 2.55455 0.701991 2.54997L4.28999 2.25797C4.34275 2.25354 4.39512 2.27021 4.43561 2.30432C4.4761 2.33844 4.50141 2.38722 4.50599 2.43997C4.64199 4.01797 5.42199 6.96397 6.69399 6.96597C8.89399 6.96597 11.418 2.19397 11.442 2.14597C11.4475 2.1346 11.4542 2.12387 11.462 2.11397C11.8184 1.65916 12.2739 1.29162 12.7937 1.03932C13.3136 0.787015 13.8841 0.656592 14.462 0.65797H19.05C20.0464 0.655795 21.0038 1.04508 21.716 1.74197C21.742 1.75617 21.7646 1.77598 21.782 1.79997L21.816 1.84797C21.86 1.89797 21.952 2.01597 22.148 2.26997C25.264 6.28997 26.426 7.06997 26.854 7.01797C27.854 6.89797 28.178 5.90797 28.832 3.93597L29.054 3.26997C29.0627 3.24466 29.0764 3.22135 29.0942 3.20143C29.1121 3.1815 29.1338 3.16537 29.158 3.15397C29.1827 3.14352 29.2092 3.13813 29.236 3.13813C29.2628 3.13813 29.2893 3.14352 29.314 3.15397L32.83 4.46797C32.8771 4.48603 32.9156 4.5212 32.9378 4.56644C32.9601 4.61168 32.9644 4.66366 32.95 4.71197C32.6547 5.63963 32.2716 6.53703 31.806 7.39197C30.778 9.28397 29.586 10.498 28.262 10.992C26.442 11.68 24.662 10.622 22.606 9.39197C22.38 9.25797 22.152 9.12197 21.916 8.99197V13.96C21.916 13.9866 21.9107 14.0129 21.9004 14.0374C21.8901 14.062 21.875 14.0842 21.856 14.1028C21.837 14.1214 21.8145 14.1361 21.7898 14.1459C21.765 14.1557 21.7386 14.1605 21.712 14.16ZM11.498 13.76H21.512V8.64397C21.5119 8.60873 21.521 8.57408 21.5386 8.54352C21.5561 8.51296 21.5815 8.48759 21.612 8.46997C21.6424 8.45242 21.6769 8.44317 21.712 8.44317C21.7471 8.44317 21.7816 8.45242 21.812 8.46997C22.154 8.66997 22.484 8.86997 22.812 9.05397C24.864 10.274 26.484 11.238 28.124 10.618C30.75 9.61797 32.214 5.65997 32.512 4.76797L29.364 3.59997L29.208 4.06797C28.522 6.13197 28.146 7.26797 26.898 7.42197C26.098 7.52597 24.532 6.00797 21.828 2.51997C21.68 2.31997 21.54 2.14797 21.51 2.11997L21.492 2.09597V2.08397C21.4845 2.07978 21.4777 2.07437 21.472 2.06797C21.155 1.74985 20.7781 1.49769 20.363 1.32605C19.948 1.15441 19.5031 1.06669 19.054 1.06797H14.458C13.9441 1.06707 13.4367 1.18269 12.9738 1.40612C12.511 1.62955 12.1049 1.95499 11.786 2.35797C11.586 2.73197 9.08999 7.37597 6.69599 7.37597C5.11999 7.37597 4.30799 4.33597 4.12599 2.68197L0.92599 2.94197C1.21199 5.86797 2.72599 10.57 6.67799 10.576C8.21199 10.576 9.49199 10.006 11.19 9.02397C11.2203 9.00647 11.2547 8.99723 11.2897 8.99718C11.3247 8.99712 11.3591 9.00626 11.3895 9.02367C11.4198 9.04108 11.4451 9.06615 11.4627 9.09639C11.4804 9.12663 11.4898 9.16096 11.49 9.19597L11.498 13.76Z" fill="#093F68"/>
</svg>
