<svg width="4" height="3" viewBox="0 0 4 3" fill="none" xmlns="http://www.w3.org/2000/svg">
<path d="M1.25792 2.05808C1.07511 2.0624 0.897712 1.99582 0.762888 1.87227C0.628064 1.74873 0.54627 1.57781 0.534638 1.39531C0.523006 1.21282 0.582437 1.0329 0.700484 0.893238C0.818532 0.753577 0.986039 0.665007 1.16792 0.646079L2.83792 0.430079C2.93343 0.410072 3.03204 0.410026 3.12756 0.429939C3.22309 0.449851 3.31347 0.489294 3.39302 0.545792C3.47258 0.602291 3.5396 0.674626 3.58988 0.758256C3.64015 0.841885 3.6726 0.935003 3.68518 1.03177C3.69776 1.12853 3.6902 1.22685 3.66298 1.32055C3.63575 1.41426 3.58945 1.50132 3.52699 1.57629C3.46452 1.65125 3.38723 1.71249 3.29997 1.75616C3.21271 1.79984 3.11737 1.825 3.01993 1.83008L1.34992 2.04608L1.25792 2.05808ZM2.92992 0.824079H2.88992L1.21792 1.04008C1.13858 1.0509 1.06671 1.09258 1.01792 1.15608C0.968045 1.22172 0.945796 1.30426 0.955924 1.38608C0.966882 1.46707 1.00939 1.54047 1.07418 1.59028C1.13898 1.6401 1.22083 1.66231 1.30192 1.65208L2.97392 1.43608C3.01414 1.4309 3.05294 1.41784 3.0881 1.39763C3.12325 1.37742 3.15407 1.35047 3.17878 1.31832C3.2035 1.28618 3.22162 1.24947 3.23211 1.2103C3.2426 1.17113 3.24526 1.13028 3.23992 1.09008C3.23453 1.05057 3.22132 1.01254 3.20106 0.978199C3.1808 0.943859 3.1539 0.913902 3.12192 0.890079C3.06722 0.847012 2.99954 0.823747 2.92992 0.824079Z" fill="#093F68"/>
</svg>
