<svg width="20" height="9" viewBox="0 0 20 9" fill="none" xmlns="http://www.w3.org/2000/svg">
<path d="M17.1421 8.75992H11.0901C11.037 8.75992 10.9862 8.73884 10.9486 8.70134C10.9111 8.66383 10.8901 8.61296 10.8901 8.55992C10.8777 8.26138 10.7503 7.9792 10.5347 7.77236C10.3191 7.56552 10.0319 7.45003 9.73307 7.45003C9.43428 7.45003 9.14705 7.56552 8.93143 7.77236C8.71581 7.9792 8.58849 8.26138 8.57607 8.55992C8.57607 8.61296 8.555 8.66383 8.51749 8.70134C8.47999 8.73884 8.42911 8.75992 8.37607 8.75992H2.32207C1.80541 8.75939 1.31002 8.55404 0.944501 8.18889C0.578977 7.82375 0.373129 7.32858 0.37207 6.81191V2.41191C0.3726 1.8949 0.578215 1.39922 0.943796 1.03364C1.30938 0.66806 1.80506 0.462444 2.32207 0.461914H17.1421C17.6591 0.462444 18.1548 0.66806 18.5203 1.03364C18.8859 1.39922 19.0915 1.8949 19.0921 2.41191V6.81191C19.0915 7.32874 18.8859 7.82422 18.5202 8.18948C18.1546 8.55474 17.6589 8.75992 17.1421 8.75992ZM11.2761 8.35992H17.1421C17.5528 8.35992 17.9468 8.19689 18.2374 7.90664C18.528 7.61639 18.6915 7.22265 18.6921 6.81191V2.41191C18.6915 2.00099 18.5281 1.60705 18.2375 1.31648C17.9469 1.02592 17.553 0.862443 17.1421 0.861914H2.32207C1.91115 0.862443 1.51721 1.02592 1.22664 1.31648C0.936072 1.60705 0.7726 2.00099 0.77207 2.41191V6.81191C0.7726 7.22265 0.936137 7.61639 1.22676 7.90664C1.51738 8.19689 1.91133 8.35992 2.32207 8.35992H8.18807C8.23851 7.98619 8.42279 7.64345 8.70672 7.39527C8.99065 7.14709 9.35496 7.01031 9.73207 7.01031C10.1092 7.01031 10.4735 7.14709 10.7574 7.39527C11.0414 7.64345 11.2256 7.98619 11.2761 8.35992Z" fill="#093F68"/>
</svg>
