<svg width="5" height="7" viewBox="0 0 5 7" fill="none" xmlns="http://www.w3.org/2000/svg">
<path d="M1.16389 6.978C1.11595 6.97862 1.06938 6.96199 1.03267 6.93116C0.995964 6.90032 0.971552 6.85733 0.963885 6.81L0.0478851 1.188C0.0436625 1.16141 0.0448528 1.13424 0.0513824 1.10812C0.0579121 1.08201 0.0696471 1.05747 0.0858856 1.036C0.101719 1.01436 0.12174 0.996135 0.14476 0.982391C0.16778 0.968648 0.193328 0.959672 0.219885 0.956L3.08789 0.585999C3.13917 0.579629 3.19092 0.593356 3.23231 0.624301C3.27369 0.655247 3.3015 0.701009 3.30989 0.751999L4.22589 6.376C4.22983 6.40227 4.2285 6.42907 4.22198 6.45482C4.21546 6.48058 4.20387 6.50478 4.18789 6.526C4.17205 6.54764 4.15203 6.56587 4.12901 6.57961C4.10599 6.59335 4.08044 6.60233 4.05389 6.606L1.19989 6.976L1.16389 6.978ZM0.479886 1.328L1.33189 6.554L3.79989 6.236L2.94989 1L0.479886 1.328Z" fill="#093F68"/>
</svg>
