<svg width="13" height="12" viewBox="0 0 13 12" fill="none" xmlns="http://www.w3.org/2000/svg">
<path d="M6.87593 11.5601C6.10179 11.5782 5.3317 11.4435 4.60966 11.1637C3.88763 10.8839 3.22783 10.4646 2.66798 9.92961C2.10814 9.39465 1.65923 8.75459 1.34693 8.04602C1.03463 7.33744 0.865062 6.57426 0.847925 5.80011C0.813925 4.34411 0.141926 1.41611 2.01393 0.776111C4.46793 -0.059889 7.74393 0.176111 10.2639 0.518111C10.8499 0.596111 11.5159 0.730111 11.9899 1.11811C12.6539 1.65011 12.5519 2.24611 12.5699 3.02211L12.6279 5.53411C12.6639 7.09587 12.0782 8.60798 10.9995 9.73799C9.9209 10.868 8.43766 11.5234 6.87593 11.5601Z" fill="#FFC9B0"/>
</svg>
