<svg width="4" height="3" viewBox="0 0 4 3" fill="none" xmlns="http://www.w3.org/2000/svg">
<path d="M1.74406 2.50995C1.46898 2.5095 1.20497 2.40152 1.00841 2.20908C0.811856 2.01663 0.698326 1.75496 0.692062 1.47995L0.664062 0.323951C0.664062 0.270908 0.685134 0.220037 0.722641 0.18253C0.760148 0.145022 0.811019 0.123951 0.864063 0.123951L2.86406 0.075953C2.91694 0.0751125 2.96799 0.0952471 3.00606 0.131953C3.02574 0.149552 3.04145 0.171138 3.05214 0.195277C3.06283 0.219415 3.06825 0.245553 3.06806 0.271952L3.09606 1.42795C3.10197 1.70702 2.99715 1.97708 2.80452 2.17909C2.61188 2.38109 2.3471 2.49861 2.06806 2.50595H1.76406L1.74406 2.50995ZM1.07006 0.509953L1.09206 1.46795C1.09626 1.64107 1.16894 1.80545 1.29416 1.92505C1.41939 2.04465 1.58694 2.10971 1.76006 2.10595H2.06406C2.23718 2.10176 2.40156 2.02908 2.52116 1.90385C2.64076 1.77862 2.70582 1.61108 2.70206 1.43795L2.68006 0.481953L1.07006 0.509953Z" fill="#093F68"/>
</svg>
