<svg width="4" height="11" viewBox="0 0 4 11" fill="none" xmlns="http://www.w3.org/2000/svg">
<path d="M1.73597 10.136C1.6859 10.1362 1.63758 10.1176 1.60055 10.0839C1.56352 10.0502 1.54048 10.0039 1.53597 9.95401L0.691974 0.494013C0.689467 0.466275 0.692781 0.438321 0.701703 0.411939C0.710625 0.385556 0.724959 0.361327 0.743787 0.340805C0.762614 0.320283 0.785521 0.303919 0.811038 0.292761C0.836556 0.281604 0.864124 0.2759 0.891974 0.276013L2.90397 0.230011C2.93255 0.229511 2.96091 0.235145 2.98713 0.24653C3.01335 0.257915 3.03682 0.274787 3.05597 0.296011C3.07511 0.317244 3.08948 0.342334 3.09811 0.369589C3.10673 0.396845 3.10941 0.425634 3.10597 0.454013L1.93997 9.96001C1.93401 10.0095 1.90979 10.055 1.87206 10.0875C1.83432 10.1201 1.78579 10.1374 1.73597 10.136ZM1.10997 0.672012L1.76797 8.03801L2.67597 0.638013L1.10997 0.672012Z" fill="#093F68"/>
</svg>
