<svg width="4" height="3" viewBox="0 0 4 3" fill="none" xmlns="http://www.w3.org/2000/svg">
<path d="M1.51809 2.07804C1.34577 2.07749 1.17953 2.01428 1.05036 1.90021C0.921201 1.78613 0.837936 1.62898 0.816092 1.45804C0.803171 1.36525 0.808794 1.27081 0.832639 1.18021C0.856484 1.0896 0.898075 1.00463 0.955001 0.930218C1.01193 0.855805 1.08305 0.79343 1.16426 0.746709C1.24547 0.699989 1.33515 0.669849 1.42809 0.658041L3.10009 0.442043C3.1956 0.422037 3.29421 0.421987 3.38973 0.4419C3.48526 0.461812 3.57563 0.501255 3.65519 0.557754C3.73475 0.614253 3.80177 0.686588 3.85205 0.770217C3.90232 0.853847 3.93477 0.946964 3.94735 1.04373C3.95992 1.14049 3.95237 1.23881 3.92514 1.33252C3.89792 1.42622 3.85163 1.51329 3.78916 1.58825C3.72669 1.66321 3.6494 1.72445 3.56214 1.76812C3.47488 1.8118 3.37954 1.83697 3.28209 1.84204L1.61209 2.05804C1.58125 2.06682 1.54984 2.07351 1.51809 2.07804ZM3.19209 0.844042H3.15009L1.48009 1.06004C1.40044 1.07136 1.32852 1.11379 1.28009 1.17804C1.24268 1.22631 1.22046 1.28462 1.21626 1.34555C1.21206 1.40648 1.22607 1.46728 1.25651 1.52023C1.28695 1.57318 1.33245 1.61589 1.38722 1.64292C1.44198 1.66995 1.50355 1.68008 1.56409 1.67204L3.23609 1.45604C3.27631 1.45086 3.31511 1.4378 3.35026 1.41759C3.38542 1.39738 3.41623 1.37043 3.44095 1.33829C3.46566 1.30614 3.48379 1.26943 3.49428 1.23026C3.50477 1.19109 3.50743 1.15024 3.50209 1.11004C3.49201 1.03632 3.45576 0.96869 3.39995 0.919488C3.34414 0.870285 3.27249 0.842798 3.19809 0.842043L3.19209 0.844042Z" fill="#093F68"/>
</svg>
