<svg width="4" height="3" viewBox="0 0 4 3" fill="none" xmlns="http://www.w3.org/2000/svg">
<path d="M2.98792 2.18791C2.92434 2.18813 2.86105 2.17938 2.79992 2.16191L1.17592 1.71391C1.08623 1.68922 1.00227 1.64711 0.928855 1.58998C0.855437 1.53284 0.793991 1.46181 0.748026 1.38093C0.702061 1.30005 0.67248 1.21091 0.660966 1.11859C0.649451 1.02628 0.656229 0.932603 0.680918 0.842911C0.705606 0.753218 0.747723 0.669267 0.804856 0.595849C0.861989 0.522432 0.933022 0.460986 1.0139 0.415021C1.09478 0.369056 1.18392 0.339472 1.27624 0.327957C1.36855 0.316442 1.46223 0.323224 1.55192 0.347912L3.17592 0.795911C3.26583 0.819834 3.35003 0.861542 3.42354 0.918567C3.49705 0.975591 3.55839 1.04677 3.60392 1.12791C3.66568 1.2357 3.698 1.35784 3.69762 1.48207C3.69724 1.6063 3.66418 1.72824 3.60176 1.83565C3.53934 1.94306 3.44976 2.03215 3.34201 2.09398C3.23427 2.15582 3.11215 2.18821 2.98792 2.18791ZM1.28192 1.32791L2.90592 1.77591C2.94531 1.78668 2.98644 1.78958 3.02696 1.78445C3.06748 1.77933 3.1066 1.76627 3.14207 1.74603C3.17754 1.72578 3.20868 1.69875 3.2337 1.66647C3.25873 1.6342 3.27715 1.59731 3.28792 1.55791C3.29869 1.51851 3.30159 1.47738 3.29646 1.43687C3.29134 1.39635 3.27828 1.35723 3.25804 1.32176C3.23779 1.28629 3.21076 1.25515 3.17848 1.23013C3.14621 1.2051 3.10932 1.18668 3.06992 1.17591L1.44592 0.727911C1.40652 0.717143 1.36539 0.714239 1.32487 0.719366C1.28435 0.724494 1.24524 0.737554 1.20977 0.757797C1.1743 0.77804 1.14316 0.80507 1.11814 0.837347C1.09311 0.869624 1.07469 0.906514 1.06392 0.945911C1.05315 0.985307 1.05025 1.02644 1.05537 1.06696C1.0605 1.10748 1.07356 1.14659 1.0938 1.18206C1.11405 1.21753 1.14108 1.24867 1.17336 1.27369C1.20563 1.29872 1.24252 1.31714 1.28192 1.32791Z" fill="#093F68"/>
</svg>
