<svg width="6" height="5" viewBox="0 0 6 5" fill="none" xmlns="http://www.w3.org/2000/svg">
<path d="M2.98806 4.09191C2.4556 4.09772 1.93757 3.91892 1.52206 3.58591C1.32004 3.4269 1.15522 3.22565 1.03914 2.99626C0.923061 2.76686 0.858526 2.51486 0.850056 2.25791C0.826056 1.21991 1.77206 0.353911 2.96006 0.325911C3.51204 0.30814 4.05232 0.487523 4.48406 0.831913C4.68602 0.990525 4.85083 1.19141 4.96692 1.42048C5.08301 1.64955 5.14757 1.90125 5.15606 2.15791C5.18006 3.19591 4.23406 4.06391 3.04606 4.09191H2.98806ZM3.01806 0.723913H2.96806C2.00206 0.745913 1.23006 1.42991 1.25006 2.24791C1.25804 2.44685 1.30922 2.64167 1.40005 2.81885C1.49088 2.99602 1.61919 3.1513 1.77606 3.27391C2.13414 3.55774 2.58139 3.70517 3.03806 3.68991C4.00406 3.66591 4.77606 2.98391 4.75606 2.16591C4.74877 1.96655 4.6979 1.7712 4.60703 1.5936C4.51615 1.416 4.38748 1.26046 4.23005 1.13791C3.88574 0.864537 3.45766 0.718311 3.01806 0.723913Z" fill="#093F68"/>
</svg>
