<svg width="7" height="7" viewBox="0 0 7 7" fill="none" xmlns="http://www.w3.org/2000/svg">
<path d="M3.36001 6.36012C2.65776 6.35918 1.98212 6.09136 1.46994 5.6109C0.957769 5.13045 0.64736 4.47328 0.601592 3.77252C0.555824 3.07176 0.778119 2.3798 1.22345 1.83681C1.66878 1.29382 2.30385 0.940387 3.00001 0.848116C3.36131 0.801043 3.72835 0.825869 4.08002 0.921164C4.43169 1.01646 4.76105 1.18034 5.04915 1.40339C5.33726 1.62644 5.57842 1.90425 5.75876 2.22083C5.93911 2.53742 6.05508 2.88654 6.10001 3.24812C6.14654 3.60933 6.12133 3.97619 6.02581 4.32764C5.9303 4.6791 5.76637 5.00825 5.54342 5.29624C5.32046 5.58422 5.04286 5.82538 4.72654 6.00588C4.41021 6.18638 4.06137 6.30268 3.70001 6.34812C3.58699 6.35841 3.47348 6.36242 3.36001 6.36012ZM3.36001 2.22412C3.30048 2.2242 3.24102 2.22821 3.18201 2.23612C2.91363 2.27083 2.66157 2.38436 2.45772 2.56234C2.25387 2.74033 2.10739 2.97478 2.03682 3.23604C1.96624 3.49729 1.97473 3.7736 2.06122 4.03003C2.14771 4.28645 2.30831 4.51147 2.5227 4.6766C2.7371 4.84173 2.99565 4.93957 3.26566 4.95773C3.53567 4.9759 3.805 4.91357 4.03958 4.77863C4.27415 4.6437 4.46344 4.44222 4.58349 4.19969C4.70355 3.95716 4.74897 3.68447 4.71401 3.41612C4.67311 3.08554 4.513 2.78125 4.26371 2.56032C4.01443 2.33939 3.6931 2.217 3.36001 2.21612V2.22412Z" fill="#093F68"/>
</svg>
