<svg width="2" height="5" viewBox="0 0 2 5" fill="none" xmlns="http://www.w3.org/2000/svg">
<path d="M0.738033 4.03997C0.674456 4.04019 0.611165 4.03143 0.550033 4.01397C0.368719 3.96396 0.214656 3.84405 0.121664 3.68056C0.028671 3.51708 0.0043454 3.32337 0.0540306 3.14197L0.502035 1.51797C0.52349 1.42464 0.563601 1.33661 0.619961 1.25919C0.67632 1.18177 0.747761 1.11655 0.829983 1.06745C0.912204 1.01835 1.0035 0.986396 1.0984 0.973504C1.19329 0.960612 1.28981 0.967051 1.38215 0.992431C1.47449 1.01781 1.56074 1.06161 1.63571 1.12119C1.71069 1.18077 1.77283 1.2549 1.81841 1.33912C1.86399 1.42335 1.89206 1.51592 1.90093 1.61127C1.9098 1.70662 1.89929 1.80278 1.87003 1.89397L1.42203 3.51797C1.38028 3.66752 1.29092 3.79938 1.16749 3.89357C1.04407 3.98777 0.893297 4.03916 0.738033 4.03997ZM1.18603 1.39997C1.11827 1.40018 1.05244 1.42259 0.998623 1.46376C0.944804 1.50494 0.905958 1.56262 0.888033 1.62797L0.440035 3.25197C0.429267 3.29136 0.426363 3.3325 0.43149 3.37302C0.436618 3.41353 0.449675 3.45265 0.469918 3.48812C0.490161 3.52359 0.517194 3.55473 0.549471 3.57975C0.581748 3.60478 0.618638 3.6232 0.658035 3.63397C0.697431 3.64474 0.738561 3.64764 0.779079 3.64251C0.819598 3.63739 0.858707 3.62433 0.894179 3.60408C0.929651 3.58384 0.960793 3.55681 0.985818 3.52453C1.01084 3.49226 1.02927 3.45537 1.04004 3.41597L1.48803 1.79197C1.50898 1.71296 1.49809 1.62889 1.4577 1.55782C1.41731 1.48676 1.35063 1.43439 1.27203 1.41197C1.24409 1.40385 1.21513 1.39981 1.18603 1.39997Z" fill="#093F68"/>
</svg>
