<svg width="13" height="12" viewBox="0 0 13 12" fill="none" xmlns="http://www.w3.org/2000/svg">
<path d="M6.73391 11.762C5.14371 11.7604 3.61714 11.1372 2.48006 10.0256C1.34299 8.91389 0.685486 7.40179 0.647911 5.81203C0.647911 5.55603 0.61591 5.24803 0.58791 4.92203C0.45191 3.33803 0.26391 1.16803 1.94991 0.594033C3.91391 -0.0759671 6.64191 -0.163967 10.2899 0.324033C10.9039 0.408033 11.5979 0.546033 12.1139 0.960033C12.7639 1.48003 12.7659 2.08003 12.7679 2.71403V3.01603L12.8259 5.52803C12.8619 7.14239 12.2561 8.7051 11.1414 9.8734C10.0267 11.0417 8.49417 11.7202 6.87991 11.76L6.73391 11.762ZM6.13391 0.414033C4.50991 0.414033 3.16591 0.600033 2.07391 0.972033C0.685909 1.44603 0.85791 3.43603 0.98191 4.88803C1.00991 5.22003 1.03791 5.53403 1.04391 5.80203C1.05209 6.55547 1.20977 7.29978 1.50782 7.99181C1.80587 8.68383 2.23835 9.30979 2.78018 9.83339C3.32201 10.357 3.96241 10.7678 4.66422 11.042C5.36604 11.3162 6.11531 11.4483 6.86858 11.4307C7.62186 11.4131 8.36414 11.2461 9.05238 10.9394C9.74062 10.6327 10.3611 10.1924 10.8779 9.64411C11.3947 9.09577 11.7974 8.45028 12.0628 7.74509C12.3282 7.0399 12.4509 6.28903 12.4239 5.53603L12.3659 3.02403C12.3659 2.91803 12.3659 2.81403 12.3659 2.71403C12.3659 2.08803 12.3659 1.67203 11.8619 1.27203C11.4239 0.920033 10.7939 0.796033 10.2359 0.722033C8.87823 0.528837 7.50922 0.425944 6.13791 0.414033H6.13391Z" fill="#093F68"/>
</svg>
