<svg width="5" height="4" viewBox="0 0 5 4" fill="none" xmlns="http://www.w3.org/2000/svg">
<path d="M2.37404 3.82604C1.84159 3.83185 1.32356 3.65305 0.908043 3.32004C0.706277 3.16125 0.54161 2.96031 0.425541 2.73129C0.309473 2.50226 0.244801 2.25065 0.236042 1.99404C0.212042 0.954042 1.15804 0.0880423 2.34604 0.0600423C2.89803 0.0422707 3.4383 0.221653 3.87005 0.566042C4.07391 0.723171 4.24004 0.923905 4.35629 1.15355C4.47254 1.38319 4.53596 1.63592 4.54191 1.89324C4.54785 2.15056 4.49617 2.40595 4.39065 2.64071C4.28512 2.87548 4.12843 3.08367 3.93204 3.25004C3.51662 3.61459 2.98469 3.81885 2.43204 3.82604H2.37404ZM2.40004 0.460042H2.35004C1.38404 0.482042 0.612045 1.16604 0.632045 1.98404C0.639487 2.18309 0.690434 2.3781 0.781306 2.55535C0.872179 2.73261 1.00077 2.88781 1.15804 3.01004C1.51815 3.28959 1.96361 3.43645 2.41936 3.42588C2.8751 3.41532 3.31328 3.24797 3.66004 2.95204C3.81379 2.8245 3.93667 2.66383 4.01951 2.48206C4.10234 2.30029 4.14297 2.10213 4.13835 1.90243C4.13374 1.70273 4.08399 1.50666 3.99284 1.32891C3.9017 1.15116 3.77151 0.996338 3.61204 0.876041C3.26848 0.601067 2.84005 0.454015 2.40004 0.460042Z" fill="#093F68"/>
</svg>
