<svg width="4" height="3" viewBox="0 0 4 3" fill="none" xmlns="http://www.w3.org/2000/svg">
<path d="M1.38806 2.06811C1.25554 2.06823 1.12565 2.03115 1.01316 1.9611C0.900673 1.89104 0.810104 1.79082 0.751758 1.67183C0.693412 1.55285 0.669632 1.41988 0.683121 1.28805C0.69661 1.15622 0.746827 1.03082 0.828061 0.926117C0.884441 0.852046 0.955066 0.789999 1.03578 0.743631C1.1165 0.697262 1.20567 0.667506 1.29806 0.656115L2.97006 0.440115C3.06286 0.427193 3.15729 0.43282 3.2479 0.456665C3.3385 0.480509 3.42347 0.522099 3.49789 0.579025C3.5723 0.635951 3.63467 0.707077 3.68139 0.788287C3.72811 0.869496 3.75825 0.959172 3.77006 1.05211C3.78271 1.14487 3.77689 1.23921 3.75293 1.32971C3.72898 1.42021 3.68736 1.50508 3.63048 1.57943C3.5736 1.65378 3.50258 1.71615 3.42151 1.76295C3.34043 1.80975 3.25089 1.84005 3.15806 1.85211L1.48806 2.06811H1.38806ZM3.06006 0.834115H3.02006L1.35006 1.05012C1.27097 1.06302 1.1996 1.10513 1.15006 1.16811C1.1003 1.23305 1.07804 1.31493 1.08806 1.39611C1.09938 1.47577 1.14181 1.54769 1.20606 1.59611C1.27099 1.64587 1.35287 1.66814 1.43406 1.65811L3.10606 1.44212C3.18706 1.43116 3.26045 1.38865 3.31027 1.32386C3.36008 1.25906 3.38229 1.17721 3.37206 1.09611C3.36279 1.02152 3.32656 0.952896 3.27019 0.903164C3.21383 0.853433 3.14123 0.82603 3.06606 0.826117L3.06006 0.834115Z" fill="#093F68"/>
</svg>
