<svg width="7" height="7" viewBox="0 0 7 7" fill="none" xmlns="http://www.w3.org/2000/svg">
<path d="M3.41805 6.51201C2.99053 6.51282 2.56863 6.41466 2.18537 6.22521C1.80212 6.03577 1.46791 5.76019 1.20893 5.42004C0.949942 5.07989 0.773208 4.68441 0.692558 4.26457C0.611907 3.84472 0.629532 3.41191 0.744053 3.00001C0.881133 2.50304 1.15428 2.05422 1.53271 1.70413C1.91115 1.35404 2.37984 1.11659 2.88596 1.01854C3.39208 0.920492 3.91553 0.965736 4.39732 1.14917C4.87912 1.33261 5.30011 1.64696 5.61286 2.05679C5.92562 2.46662 6.1177 2.95565 6.16748 3.46877C6.21725 3.9819 6.12273 4.49873 5.89458 4.96103C5.66642 5.42333 5.3137 5.81272 4.87614 6.08534C4.43858 6.35796 3.93359 6.50296 3.41805 6.50401V6.51201ZM2.09405 3.38001C2.04638 3.55322 2.03329 3.73413 2.05553 3.91241C2.07777 4.09068 2.13491 4.26283 2.22369 4.41902C2.31246 4.5752 2.43113 4.71238 2.57292 4.82271C2.71471 4.93303 2.87684 5.01435 3.05005 5.06201C3.22314 5.11 3.40398 5.12337 3.58224 5.10138C3.7605 5.07939 3.93268 5.02246 4.08891 4.93385C4.24514 4.84524 4.38236 4.72669 4.49272 4.58498C4.60308 4.44327 4.68441 4.28119 4.73205 4.10801C4.77985 3.9348 4.79307 3.75387 4.77095 3.57555C4.74882 3.39723 4.69179 3.22501 4.60311 3.06873C4.51443 2.91244 4.39584 2.77516 4.25411 2.66471C4.11237 2.55426 3.95027 2.47281 3.77705 2.42501C3.60384 2.37721 3.42291 2.364 3.24458 2.38612C3.06626 2.40824 2.89405 2.46527 2.73777 2.55395C2.58149 2.64263 2.4442 2.76122 2.33375 2.90296C2.2233 3.0447 2.14185 3.2068 2.09405 3.38001Z" fill="#093F68"/>
</svg>
