<svg width="5" height="3" viewBox="0 0 5 3" fill="none" xmlns="http://www.w3.org/2000/svg">
<path d="M1.64806 2.08591C1.46525 2.09023 1.28785 2.02365 1.15302 1.9001C1.0182 1.77656 0.936407 1.60564 0.924775 1.42315C0.913143 1.24065 0.972575 1.06073 1.09062 0.92107C1.20867 0.78141 1.37618 0.692839 1.55806 0.673911L3.23006 0.457911C3.4166 0.434622 3.60481 0.485627 3.75406 0.599912C3.86512 0.685661 3.94828 0.802393 3.99304 0.935368C4.0378 1.06834 4.04216 1.2116 4.00557 1.34705C3.96898 1.4825 3.89308 1.60408 3.78745 1.69642C3.68181 1.78877 3.55119 1.84775 3.41206 1.86591L1.74006 2.07991C1.70956 2.0839 1.67883 2.08591 1.64806 2.08591ZM3.32206 0.851911H3.28206L1.61006 1.06791C1.56988 1.07303 1.5311 1.08602 1.49593 1.10613C1.46076 1.12624 1.4299 1.15308 1.40511 1.18511C1.38032 1.21715 1.36208 1.25376 1.35143 1.29284C1.34078 1.33193 1.33794 1.37273 1.34306 1.41291C1.34818 1.4531 1.36117 1.49188 1.38128 1.52705C1.40139 1.56221 1.42823 1.59307 1.46026 1.61786C1.4923 1.64266 1.52891 1.6609 1.56799 1.67154C1.60708 1.68219 1.64788 1.68503 1.68806 1.67991L3.36006 1.46391C3.40028 1.45874 3.43908 1.44567 3.47423 1.42546C3.50939 1.40525 3.54021 1.3783 3.56492 1.34616C3.58963 1.31401 3.60776 1.2773 3.61825 1.23813C3.62874 1.19896 3.6314 1.15811 3.62606 1.11791C3.61525 1.03857 3.57356 0.966699 3.51006 0.917912C3.45629 0.875955 3.39026 0.852772 3.32206 0.851911Z" fill="#093F68"/>
</svg>
