<svg width="4" height="3" viewBox="0 0 4 3" fill="none" xmlns="http://www.w3.org/2000/svg">
<path d="M2.72001 2.16808C2.65242 2.1694 2.58502 2.16064 2.52001 2.14208L0.896013 1.69408C0.805921 1.66998 0.721514 1.62822 0.647697 1.57123C0.57388 1.51423 0.512119 1.44314 0.466008 1.36208C0.373937 1.19846 0.350219 1.0051 0.400011 0.824077C0.423956 0.733906 0.465886 0.649509 0.523283 0.575957C0.580681 0.502406 0.652364 0.441219 0.734013 0.396077C0.8147 0.349635 0.903814 0.319705 0.996178 0.308031C1.08854 0.296357 1.1823 0.303172 1.27201 0.328078L2.89601 0.776079C3.07703 0.826553 3.23075 0.946543 3.32367 1.10989C3.41658 1.27324 3.44114 1.46669 3.39201 1.64808C3.34177 1.82936 3.22165 1.98329 3.05801 2.07608C2.955 2.13498 2.83867 2.16664 2.72001 2.16808ZM1.09201 0.702077C1.02433 0.701709 0.958468 0.723937 0.904851 0.765236C0.851233 0.806536 0.812932 0.864547 0.796013 0.930077C0.773956 1.0087 0.784024 1.09288 0.82401 1.16408C0.86492 1.23568 0.932512 1.28817 1.01201 1.31008L2.63601 1.75808C2.71497 1.77845 2.79874 1.76771 2.87001 1.72808C2.90554 1.7084 2.93676 1.6818 2.96183 1.64986C2.98691 1.61791 3.00533 1.58126 3.01601 1.54208C3.0272 1.50309 3.03031 1.46222 3.02515 1.42198C3.01999 1.38175 3.00667 1.34299 2.98601 1.30808C2.96633 1.27255 2.93973 1.24133 2.90779 1.21625C2.87584 1.19118 2.83919 1.17276 2.80001 1.16208L1.17601 0.71408C1.14871 0.706173 1.12043 0.702131 1.09201 0.702077Z" fill="#093F68"/>
</svg>
