<svg width="18" height="18" viewBox="0 0 18 18" fill="none" xmlns="http://www.w3.org/2000/svg">
<path d="M2.08 15.9C1.69456 15.2613 1.40355 14.5701 1.216 13.848C0.649999 11.966 0.558 10.228 0.598 8.25805C0.614 7.49205 0.661998 6.71004 0.957998 6.00405C1.38 5.00404 2.274 4.25405 3.27 3.82805C4.266 3.40205 5.364 3.26605 6.448 3.22804C7.23 3.20005 8.012 3.10605 8.78 3.07405C9.622 3.04005 10.438 3.07404 11.256 2.82004C12.17 2.53004 13.026 1.87005 13.288 0.946045C13.6401 1.39075 13.8769 1.91554 13.9774 2.47379C14.0779 3.03204 14.0389 3.60647 13.864 4.14605C14.4025 3.64946 14.783 3.00537 14.958 2.29405C15.37 2.86205 15.558 3.55805 15.732 4.23805C15.906 4.91805 16.052 5.67005 15.614 6.18805C16.2182 5.91672 16.6985 5.42853 16.96 4.82004C17.738 6.42005 16.594 7.93205 16.16 9.42005C15.786 10.694 16.16 11.986 15.84 13.244C15.536 14.392 15.096 15.6 14.134 16.364C13.228 17.084 12.018 17.276 10.866 17.392C9.36494 17.5423 7.85631 17.6038 6.348 17.576C5.028 17.554 3.598 17.418 2.62 16.53C2.41433 16.3435 2.23291 16.1318 2.08 15.9Z" fill="#725858"/>
</svg>
