<svg width="8" height="8" viewBox="0 0 8 8" fill="none" xmlns="http://www.w3.org/2000/svg">
<path d="M7.31011 7.3859H4.89011C4.85468 7.38575 4.81992 7.37619 4.7894 7.3582C4.75887 7.34021 4.73367 7.31444 4.71638 7.28351C4.69909 7.25259 4.69032 7.21763 4.69097 7.1822C4.69163 7.14677 4.70168 7.11216 4.72011 7.0819C4.79334 6.96122 4.83271 6.82305 4.83411 6.6819C4.83411 6.46972 4.74982 6.26624 4.59979 6.11621C4.44976 5.96618 4.24628 5.8819 4.03411 5.8819C3.82193 5.8819 3.61845 5.96618 3.46842 6.11621C3.31839 6.26624 3.23411 6.46972 3.23411 6.6819C3.2348 6.82287 3.27349 6.96106 3.34611 7.0819C3.36453 7.11216 3.37459 7.14677 3.37524 7.1822C3.3759 7.21763 3.36713 7.25259 3.34984 7.28351C3.33254 7.31444 3.30734 7.34021 3.27682 7.3582C3.24629 7.37619 3.21154 7.38575 3.17611 7.3859H0.758105C0.705062 7.3859 0.654191 7.36482 0.616684 7.32732C0.579177 7.28981 0.558105 7.23894 0.558105 7.1859V5.8999C0.558105 5.1979 1.68211 4.8659 2.11811 4.7639L2.33611 1.11789C2.35522 0.88783 2.46031 0.673412 2.63044 0.517366C2.80057 0.36132 3.02325 0.275103 3.25411 0.275896H4.81411C5.04362 0.274513 5.26524 0.359525 5.43495 0.514041C5.60466 0.668556 5.71002 0.881265 5.73011 1.1099L5.95011 4.7639C6.38611 4.8659 7.51011 5.1979 7.51011 5.8999V7.1859C7.51011 7.23894 7.48904 7.28981 7.45153 7.32732C7.41402 7.36482 7.36315 7.3859 7.31011 7.3859ZM5.19211 6.9859H7.11011V5.8999C7.11011 5.5139 6.17411 5.2099 5.72211 5.1239C5.67852 5.11555 5.63894 5.09294 5.60961 5.05963C5.58028 5.02631 5.56287 4.98419 5.56011 4.9399L5.33211 1.13989C5.31874 1.01189 5.25838 0.893386 5.1627 0.807308C5.06702 0.721231 4.94281 0.673694 4.81411 0.673895H3.25411C3.12425 0.673796 2.99902 0.7221 2.90287 0.809377C2.80672 0.896654 2.74654 1.01664 2.73411 1.1459L2.50811 4.9459C2.50535 4.99019 2.48793 5.03232 2.4586 5.06563C2.42927 5.09894 2.3897 5.12155 2.34611 5.1299C1.89211 5.2159 0.958105 5.5199 0.958105 5.9059V6.9919H2.87411C2.84752 6.88935 2.83408 6.78383 2.83411 6.6779C2.83411 6.35964 2.96053 6.05441 3.18558 5.82937C3.41062 5.60432 3.71585 5.4779 4.03411 5.4779C4.35237 5.4779 4.65759 5.60432 4.88264 5.82937C5.10768 6.05441 5.23411 6.35964 5.23411 6.6779C5.23653 6.78162 5.22509 6.8852 5.20011 6.9859H5.19211Z" fill="#093F68"/>
</svg>
