<svg width="11" height="5" viewBox="0 0 11 5" fill="none" xmlns="http://www.w3.org/2000/svg">
<path d="M10.7119 4.70601H0.2979C0.244857 4.70601 0.193986 4.68494 0.156479 4.64743C0.118972 4.60992 0.0979004 4.55905 0.0979004 4.50601V0.96001C0.0979004 0.906966 0.118972 0.856096 0.156479 0.818588C0.193986 0.781081 0.244857 0.76001 0.2979 0.76001H10.7119C10.7649 0.76001 10.8158 0.781081 10.8533 0.818588C10.8908 0.856096 10.9119 0.906966 10.9119 0.96001V4.50601C10.9119 4.55905 10.8908 4.60992 10.8533 4.64743C10.8158 4.68494 10.7649 4.70601 10.7119 4.70601ZM0.4979 4.30601H10.5119V1.16001H0.4979V4.30601Z" fill="#093F68"/>
</svg>
