<svg width="19" height="9" viewBox="0 0 19 9" fill="none" xmlns="http://www.w3.org/2000/svg">
<path d="M18.892 2.41797V6.81797C18.892 7.04769 18.8467 7.27516 18.7588 7.48736C18.6708 7.69957 18.5419 7.89236 18.3793 8.0547C18.2168 8.21704 18.0239 8.34576 17.8116 8.43348C17.5993 8.52121 17.3717 8.56623 17.142 8.56597H11.09C11.0765 8.21509 10.9277 7.88306 10.6747 7.63958C10.4217 7.39609 10.0842 7.26008 9.73302 7.26008C9.38188 7.26008 9.04439 7.39609 8.79137 7.63958C8.53836 7.88306 8.3895 8.21509 8.37602 8.56597H2.32202C2.0923 8.56623 1.86479 8.52121 1.65248 8.43348C1.44017 8.34576 1.24723 8.21704 1.0847 8.0547C0.922176 7.89236 0.793241 7.69957 0.70527 7.48736C0.6173 7.27516 0.572021 7.04769 0.572021 6.81797V2.41797C0.572021 1.95384 0.756397 1.50872 1.08459 1.18053C1.41277 0.852344 1.85789 0.667969 2.32202 0.667969H17.142C17.6062 0.667969 18.0513 0.852344 18.3795 1.18053C18.7076 1.50872 18.892 1.95384 18.892 2.41797Z" fill="#F56132"/>
</svg>
