<svg width="18" height="18" viewBox="0 0 18 18" fill="none" xmlns="http://www.w3.org/2000/svg">
<path d="M7.01611 17.7781C6.79011 17.7781 6.56411 17.7781 6.34011 17.7781C4.94011 17.7541 3.49611 17.6041 2.48011 16.6801C2.26542 16.483 2.07537 16.2608 1.91412 16.0181C1.516 15.3636 1.21677 14.654 1.02612 13.9121C0.448115 11.9981 0.358115 10.2681 0.398115 8.26006C0.414115 7.53006 0.456113 6.68806 0.774113 5.93206C1.17411 4.96606 2.06212 4.13206 3.19212 3.65006C4.32212 3.16806 5.59212 3.06206 6.44212 3.03206C6.84212 3.01806 7.24212 2.98605 7.64212 2.95405C8.04212 2.92205 8.40211 2.89406 8.77811 2.87806L9.26811 2.86406C9.92006 2.87767 10.5706 2.7982 11.2001 2.62806C11.9501 2.39206 12.8421 1.81006 13.1021 0.890056C13.112 0.854722 13.1314 0.822785 13.1582 0.79774C13.185 0.772695 13.2182 0.755507 13.2541 0.748056C13.2907 0.739821 13.3288 0.742016 13.3641 0.754392C13.3995 0.766768 13.4307 0.788827 13.4541 0.818055C14.0382 1.56064 14.3139 2.49958 14.2241 3.44005C14.4813 3.0782 14.6679 2.67108 14.7741 2.24006C14.7832 2.20302 14.8027 2.16936 14.8303 2.14302C14.8578 2.11669 14.8924 2.0988 14.9298 2.09144C14.9672 2.08408 15.0059 2.08757 15.0414 2.1015C15.0769 2.11543 15.1077 2.13922 15.1301 2.17006C15.5701 2.77006 15.7641 3.52206 15.9301 4.18206C16.0859 4.66235 16.1338 5.17114 16.0701 5.67206C16.38 5.42305 16.6238 5.1016 16.7801 4.73606C16.796 4.70114 16.8216 4.67153 16.8539 4.65077C16.8862 4.63001 16.9237 4.61898 16.9621 4.61898C17.0005 4.61898 17.038 4.63001 17.0703 4.65077C17.1026 4.67153 17.1282 4.70114 17.1441 4.73606C17.7561 5.99406 17.2641 7.18006 16.7861 8.32606C16.6202 8.70466 16.4746 9.09188 16.3501 9.48606C16.1976 10.1119 16.141 10.7572 16.1821 11.4001C16.2185 12.038 16.1674 12.678 16.0301 13.3021C15.7301 14.4401 15.2861 15.7021 14.2581 16.5281C13.2841 17.3021 12.0061 17.4861 10.8841 17.5981C9.60011 17.7141 8.30411 17.7781 7.01611 17.7781ZM2.24611 15.8001C2.38933 16.0154 2.55787 16.2128 2.74812 16.3881C3.66812 17.2221 5.02012 17.3601 6.34812 17.3881C7.84841 17.4137 9.34894 17.3523 10.8421 17.2041C11.9061 17.0981 13.1181 16.9261 14.0061 16.2201C14.9441 15.4741 15.3581 14.2781 15.6421 13.2041C15.7703 12.6132 15.8168 12.0075 15.7801 11.4041C15.7389 10.7213 15.8009 10.0363 15.9641 9.37206C16.0929 8.96414 16.2438 8.56355 16.4161 8.17206C16.8161 7.19206 17.2161 6.26205 16.9341 5.30405C16.6362 5.77516 16.2054 6.14748 15.6961 6.37406C15.6547 6.39272 15.6082 6.39675 15.5642 6.38549C15.5203 6.37422 15.4814 6.34832 15.4541 6.31206C15.4257 6.27658 15.4102 6.2325 15.4102 6.18706C15.4102 6.14161 15.4257 6.09753 15.4541 6.06206C15.8181 5.63205 15.7061 4.95806 15.5341 4.29206C15.4179 3.76954 15.2435 3.2617 15.0141 2.77806C14.7982 3.35228 14.451 3.86803 14.0001 4.28405C13.9679 4.31153 13.9278 4.32808 13.8856 4.33132C13.8434 4.33456 13.8013 4.32433 13.7653 4.30209C13.7292 4.27986 13.7012 4.24677 13.6852 4.20759C13.6692 4.16841 13.666 4.12515 13.6761 4.08405C13.8197 3.63549 13.8643 3.16114 13.807 2.69365C13.7497 2.22617 13.5918 1.77666 13.3441 1.37606C12.9961 2.12006 12.2641 2.72005 11.3181 3.01805C10.6524 3.19928 9.96392 3.28348 9.27411 3.26805L8.79011 3.28206C8.42211 3.29806 8.04011 3.32806 7.67011 3.35806C7.30012 3.38806 6.87011 3.42206 6.45811 3.43606C5.64211 3.46606 4.43211 3.55806 3.35011 4.02206C2.31611 4.46606 1.51211 5.22205 1.15011 6.09005C0.858114 6.78205 0.818115 7.57806 0.804115 8.27206C0.764115 10.2421 0.852115 11.9361 1.40411 13.8021C1.58533 14.5057 1.8676 15.1794 2.24212 15.8021L2.24611 15.8001Z" fill="#093F68"/>
</svg>
