<svg width="15" height="14" viewBox="0 0 15 14" fill="none" xmlns="http://www.w3.org/2000/svg">
<path d="M13.8661 13.2001H0.800098C0.747054 13.2001 0.696183 13.179 0.658676 13.1415C0.621169 13.104 0.600098 13.0531 0.600098 13.0001V0.988086C0.600098 0.935043 0.621169 0.884172 0.658676 0.846664C0.696183 0.809157 0.747054 0.788086 0.800098 0.788086H13.8721C13.9251 0.788086 13.976 0.809157 14.0135 0.846664C14.051 0.884172 14.0721 0.935043 14.0721 0.988086V13.0001C14.0721 13.0269 14.0667 13.0534 14.0563 13.078C14.0459 13.1027 14.0306 13.125 14.0114 13.1437C13.9922 13.1623 13.9694 13.1769 13.9445 13.1866C13.9195 13.1963 13.8929 13.2009 13.8661 13.2001ZM1.0001 12.8001H13.6721V1.18809H1.0001V12.8001Z" fill="#DFEAEF"/>
</svg>
